<svg width="24" height="24" viewBox="0 0 24 24"  xmlns="http://www.w3.org/2000/svg">
<path d="M5 17.75C5 18.16 5.34 18.5 5.75 18.5C6.16 18.5 6.5 18.16 6.5 17.75V15.75C6.5 15.34 6.16 15 5.75 15C5.34 15 5 15.34 5 15.75V17.75Z" />
<path d="M9.75 18.5C9.34 18.5 9 18.16 9 17.75V15.75C9 15.34 9.34 15 9.75 15C10.16 15 10.5 15.34 10.5 15.75V17.75C10.5 18.16 10.16 18.5 9.75 18.5Z" />
<path d="M13.75 17.5H17.75C18.16 17.5 18.5 17.16 18.5 16.75C18.5 16.34 18.16 16 17.75 16H13.75C13.34 16 13 16.34 13 16.75C13 17.16 13.34 17.5 13.75 17.5Z" />
<path fill-rule="evenodd" clip-rule="evenodd" d="M9 22.75H15C20.43 22.75 22.75 20.43 22.75 15V9C22.75 3.57 20.43 1.25 15 1.25H9C3.57 1.25 1.25 3.57 1.25 9V15C1.25 20.43 3.57 22.75 9 22.75ZM2.75 9C2.75 8.5562 2.7652 8.13993 2.79678 7.75H21.2032C21.2348 8.13993 21.25 8.5562 21.25 9V11.25H2.75V9ZM9 2.75C5.46157 2.75 3.67289 3.71619 3.03253 6.25H20.9675C20.3271 3.71619 18.5384 2.75 15 2.75H9ZM2.75 12.75H21.25V15C21.25 19.61 19.61 21.25 15 21.25H9C4.39 21.25 2.75 19.61 2.75 15V12.75Z" />
</svg>
