<svg width="16" height="16" viewBox="0 0 16 16"  xmlns="http://www.w3.org/2000/svg">
<path d="M12 4V6H13V4H15V3H13V1H12V3H10V4H12Z" />
<path d="M9 3H2.5C1.67157 3 1 3.67157 1 4.5V6.5C1 7.32843 1.67157 8 2.5 8H13V7H2.5C2.22386 7 2 6.77614 2 6.5V4.5C2 4.22386 2.22386 4 2.5 4H9V3Z" />
<path fill-rule="evenodd" clip-rule="evenodd" d="M2.5 10C1.67157 10 1 10.6716 1 11.5V13.5C1 14.3284 1.67157 15 2.5 15H11.5C12.3284 15 13 14.3284 13 13.5V11.5C13 10.6716 12.3284 10 11.5 10H2.5ZM11.5 11H2.5C2.22386 11 2 11.2239 2 11.5V13.5C2 13.7761 2.22386 14 2.5 14H11.5C11.7761 14 12 13.7761 12 13.5V11.5C12 11.2239 11.7761 11 11.5 11Z" />
</svg>
