<svg width="16" height="16" viewBox="0 0 16 16" xmlns="http://www.w3.org/2000/svg">
<path fill-rule="evenodd" clip-rule="evenodd" d="M7.19709 2.04633V2.04633L3.23887 4.33196C2.74428 4.62333 2.44043 5.15311 2.44043 5.72V10.28C2.44043 10.8557 2.74602 11.3835 3.23709 11.667L7.19517 13.9525L7.19614 13.9531C7.69636 14.2385 8.30621 14.237 8.79707 13.9537V13.9537L12.7538 11.6689L12.7553 11.668C13.2499 11.3767 13.5538 10.8469 13.5538 10.28V5.72C13.5538 5.14734 13.2507 4.62378 12.7553 4.33198L12.7538 4.33106L8.79903 2.04743L8.79809 2.0469C8.29787 1.76149 7.68796 1.76296 7.19709 2.04633ZM6.69711 1.18029C7.49926 0.717198 8.48891 0.718474 9.29517 1.17919L9.29713 1.18031L13.2604 3.46888C14.0575 3.93726 14.5538 4.7866 14.5538 5.72V10.28C14.5538 11.2058 14.0582 12.0623 13.2604 12.5311L13.2571 12.533L9.29712 14.8197C8.49498 15.2828 7.50528 15.2815 6.69903 14.8208L6.69707 14.8197L2.73711 12.533V12.533C1.93487 12.0699 1.44043 11.2109 1.44043 10.28V5.72C1.44043 4.79415 1.93595 3.93772 2.73378 3.46889L2.73706 3.46697L6.69711 1.18029Z" />
<path fill-rule="evenodd" clip-rule="evenodd" d="M7.99962 4.72668C7.41787 4.72668 6.94629 5.19826 6.94629 5.77999C6.94629 6.36173 7.41789 6.83333 7.99962 6.83333C8.58136 6.83333 9.05296 6.36173 9.05296 5.77999C9.05296 5.19826 8.58137 4.72668 7.99962 4.72668ZM5.94629 5.77999C5.94629 4.64595 6.86561 3.72668 7.99962 3.72668C9.13363 3.72668 10.053 4.64595 10.053 5.77999C10.053 6.91401 9.13365 7.83333 7.99962 7.83333C6.86559 7.83333 5.94629 6.91401 5.94629 5.77999Z" />
<path fill-rule="evenodd" clip-rule="evenodd" d="M4.83301 11.1066C4.83301 9.53985 6.35055 8.43335 7.99967 8.43335C9.6488 8.43335 11.1663 9.53985 11.1663 11.1066C11.1663 11.3828 10.9425 11.6066 10.6663 11.6066C10.3902 11.6066 10.1663 11.3828 10.1663 11.1066C10.1663 10.2734 9.29722 9.43335 7.99967 9.43335C6.70213 9.43335 5.83301 10.2734 5.83301 11.1066C5.83301 11.3828 5.60915 11.6066 5.33301 11.6066C5.05687 11.6066 4.83301 11.3828 4.83301 11.1066Z" />
</svg>
