<svg width="16" height="16" viewBox="0 0 16 16"  xmlns="http://www.w3.org/2000/svg">
<path fill-rule="evenodd" clip-rule="evenodd" d="M2.5 3C2.77614 3 3 3.22386 3 3.5L3 13.5C3 13.7761 2.77614 14 2.5 14C2.22386 14 2 13.7761 2 13.5L2 3.5C2 3.22386 2.22386 3 2.5 3Z" />
<path fill-rule="evenodd" clip-rule="evenodd" d="M5 8.5C5 8.22386 5.22386 8 5.5 8L13.5 8C13.7761 8 14 8.22386 14 8.5C14 8.77614 13.7761 9 13.5 9L5.5 9C5.22386 9 5 8.77614 5 8.5Z" />
<path fill-rule="evenodd" clip-rule="evenodd" d="M7.85355 6.14645C8.04882 6.34171 8.04882 6.65829 7.85355 6.85355L6.20711 8.5L7.85355 10.1464C8.04882 10.3417 8.04882 10.6583 7.85355 10.8536C7.65829 11.0488 7.34171 11.0488 7.14645 10.8536L5.14645 8.85355C4.95118 8.65829 4.95118 8.34171 5.14645 8.14645L7.14645 6.14645C7.34171 5.95118 7.65829 5.95118 7.85355 6.14645Z" />
</svg>
