<svg width="16" height="16" viewBox="0 0 16 16"  xmlns="http://www.w3.org/2000/svg">
<path fill-rule="evenodd" clip-rule="evenodd" d="M7.5 3C7.77614 3 8 3.22386 8 3.5V13.5C8 13.7761 7.77614 14 7.5 14C7.22386 14 7 13.7761 7 13.5L7 3.5C7 3.22386 7.22386 3 7.5 3Z" />
<path fill-rule="evenodd" clip-rule="evenodd" d="M3.64645 6.64645C3.84171 6.45118 4.15829 6.45118 4.35355 6.64645L5.85355 8.14645C6.04882 8.34171 6.04882 8.65829 5.85355 8.85355L4.35355 10.3536C4.15829 10.5488 3.84171 10.5488 3.64645 10.3536C3.45118 10.1583 3.45118 9.84171 3.64645 9.64645L4.29289 9H1.5C1.22386 9 1 8.77614 1 8.5C1 8.22386 1.22386 8 1.5 8H4.29289L3.64645 7.35355C3.45118 7.15829 3.45118 6.84171 3.64645 6.64645Z" />
<path fill-rule="evenodd" clip-rule="evenodd" d="M11.3536 6.64645C11.5488 6.84171 11.5488 7.15829 11.3536 7.35355L10.7071 8L13.5 8C13.7761 8 14 8.22386 14 8.5C14 8.77614 13.7761 9 13.5 9L10.7071 9L11.3536 9.64645C11.5488 9.84171 11.5488 10.1583 11.3536 10.3536C11.1583 10.5488 10.8417 10.5488 10.6464 10.3536L9.14645 8.85355C8.95118 8.65829 8.95118 8.34171 9.14645 8.14645L10.6464 6.64645C10.8417 6.45118 11.1583 6.45118 11.3536 6.64645Z" />
</svg>
