<svg width="16" height="16" viewBox="0 0 16 16"  xmlns="http://www.w3.org/2000/svg">
<path fill-rule="evenodd" clip-rule="evenodd" d="M13.5 3C13.7761 3 14 3.22386 14 3.5V13.5C14 13.7761 13.7761 14 13.5 14C13.2239 14 13 13.7761 13 13.5V3.5C13 3.22386 13.2239 3 13.5 3Z" />
<path fill-rule="evenodd" clip-rule="evenodd" d="M2 8.5C2 8.22386 2.22386 8 2.5 8H10.5C10.7761 8 11 8.22386 11 8.5C11 8.77614 10.7761 9 10.5 9H2.5C2.22386 9 2 8.77614 2 8.5Z" />
<path fill-rule="evenodd" clip-rule="evenodd" d="M8.14645 6.14645C8.34171 5.95118 8.65829 5.95118 8.85355 6.14645L10.8536 8.14645C11.0488 8.34171 11.0488 8.65829 10.8536 8.85355L8.85355 10.8536C8.65829 11.0488 8.34171 11.0488 8.14645 10.8536C7.95118 10.6583 7.95118 10.3417 8.14645 10.1464L9.79289 8.5L8.14645 6.85355C7.95118 6.65829 7.95118 6.34171 8.14645 6.14645Z" />
</svg>
