<svg width="16" height="16" viewBox="0 0 16 16"  xmlns="http://www.w3.org/2000/svg">
<path fill-rule="evenodd" clip-rule="evenodd" d="M7 3L3 3C2.44772 3 2 3.44772 2 4L2 6C2 6.55228 2.44771 7 3 7H7L7 9H5C4.44772 9 4 9.44772 4 10L4 12C4 12.5523 4.44772 13 5 13H7V14.5C7 14.7761 7.22386 15 7.5 15C7.77614 15 8 14.7761 8 14.5V13H10C10.5523 13 11 12.5523 11 12V10C11 9.44772 10.5523 9 10 9H8L8 7L12 7C12.5523 7 13 6.55228 13 6V4C13 3.44772 12.5523 3 12 3H8V1.5C8 1.22386 7.77614 1 7.5 1C7.22386 1 7 1.22386 7 1.5V3ZM3 4L3 6L12 6V4H3ZM5 12L5 10H10V12H5Z" />
</svg>
