<svg width="16" height="16" viewBox="0 0 16 16"  xmlns="http://www.w3.org/2000/svg">
<path fill-rule="evenodd" clip-rule="evenodd" d="M7 9H9V11C9 11.5523 9.44772 12 10 12H12C12.5523 12 13 11.5523 13 11V9H14.5C14.7761 9 15 8.77614 15 8.5C15 8.22386 14.7761 8 14.5 8H13V6C13 5.44772 12.5523 5 12 5H10C9.44772 5 9 5.44772 9 6V8H7V4C7 3.44772 6.55228 3 6 3H4C3.44772 3 3 3.44771 3 4V8H1.5C1.22386 8 1 8.22386 1 8.5C1 8.77614 1.22386 9 1.5 9H3V13C3 13.5523 3.44772 14 4 14H6C6.55228 14 7 13.5523 7 13V9ZM6 13H4V4H6V13ZM10 11H12V6H10V11Z" />
</svg>
