<svg width="24" height="24" viewBox="0 0 24 24"  xmlns="http://www.w3.org/2000/svg">
<path d="M13 3C13.5523 3 14 3.44772 14 4V20C14 20.5523 13.5523 21 13 21C12.4477 21 12 20.5523 12 20V4C12 3.44772 12.4477 3 13 3Z" />
<path d="M2 12C2 11.4477 2.44772 11 3 11H6.58579L5.29289 9.70711C4.90237 9.31658 4.90237 8.68342 5.29289 8.29289C5.68342 7.90237 6.31658 7.90237 6.70711 8.29289L9.70711 11.2929C9.89464 11.4804 10 11.7348 10 12C10 12.2652 9.89464 12.5196 9.70711 12.7071L6.70711 15.7071C6.31658 16.0976 5.68342 16.0976 5.29289 15.7071C4.90237 15.3166 4.90237 14.6834 5.29289 14.2929L6.58579 13H3C2.44772 13 2 12.5523 2 12Z" />
<path d="M19.4142 11L20.7071 9.70711C21.0976 9.31658 21.0976 8.68342 20.7071 8.29289C20.3166 7.90237 19.6834 7.90237 19.2929 8.29289L16.2929 11.2929C16.1054 11.4804 16 11.7348 16 12C16 12.2652 16.1054 12.5196 16.2929 12.7071L19.2929 15.7071C19.6834 16.0976 20.3166 16.0976 20.7071 15.7071C21.0976 15.3166 21.0976 14.6834 20.7071 14.2929L19.4142 13H23C23.5523 13 24 12.5523 24 12C24 11.4477 23.5523 11 23 11H19.4142Z" />
</svg>
