<svg width="16" height="16" viewBox="0 0 16 16"  xmlns="http://www.w3.org/2000/svg">
<path d="M10 2.29644C10 1.15283 9.55869 0.424242 8.67606 0.110672C8.43192 0.0368906 8.1784 0 7.91549 0C7.14554 0 6.58216 0.350461 6.22535 1.05138C6.07512 1.34651 6 1.65086 6 1.96443C6 2.77602 6.38498 3.36627 7.15493 3.73518C7.30516 3.79051 7.4554 3.83663 7.60563 3.87352C8.07512 4.00264 8.31925 4.2332 8.33803 4.56522C8.33803 5.11858 7.99061 5.76416 7.29577 6.50198C7.277 6.52042 7.25822 6.53887 7.23944 6.55731L7.83099 7C9.01408 5.74572 9.71831 4.39921 9.94366 2.96047C9.98122 2.72069 10 2.49934 10 2.29644Z" />
</svg>
