<svg width="16" height="16" viewBox="0 0 16 16" xmlns="http://www.w3.org/2000/svg">
<path fill-rule="evenodd" clip-rule="evenodd" d="M5 2H3C2.44772 2 2 2.44772 2 3V5C2 5.55228 2.44772 6 3 6H5C5.55228 6 6 5.55228 6 5V3C6 2.44772 5.55228 2 5 2ZM3 1C1.89543 1 1 1.89543 1 3V5C1 6.10457 1.89543 7 3 7H5C6.10457 7 7 6.10457 7 5V3C7 1.89543 6.10457 1 5 1H3Z" />
<path fill-rule="evenodd" clip-rule="evenodd" d="M13 2H11C10.4477 2 10 2.44772 10 3V5C10 5.55228 10.4477 6 11 6H13C13.5523 6 14 5.55228 14 5V3C14 2.44772 13.5523 2 13 2ZM11 1C9.89543 1 9 1.89543 9 3V5C9 6.10457 9.89543 7 11 7H13C14.1046 7 15 6.10457 15 5V3C15 1.89543 14.1046 1 13 1H11Z" />
<path fill-rule="evenodd" clip-rule="evenodd" d="M5 10H3C2.44772 10 2 10.4477 2 11V13C2 13.5523 2.44772 14 3 14H5C5.55228 14 6 13.5523 6 13V11C6 10.4477 5.55228 10 5 10ZM3 9C1.89543 9 1 9.89543 1 11V13C1 14.1046 1.89543 15 3 15H5C6.10457 15 7 14.1046 7 13V11C7 9.89543 6.10457 9 5 9H3Z" />
<path fill-rule="evenodd" clip-rule="evenodd" d="M13 10H11C10.4477 10 10 10.4477 10 11V13C10 13.5523 10.4477 14 11 14H13C13.5523 14 14 13.5523 14 13V11C14 10.4477 13.5523 10 13 10ZM11 9C9.89543 9 9 9.89543 9 11V13C9 14.1046 9.89543 15 11 15H13C14.1046 15 15 14.1046 15 13V11C15 9.89543 14.1046 9 13 9H11Z" />
</svg>
