<svg width="16" height="16" viewBox="0 0 16 16"  xmlns="http://www.w3.org/2000/svg">
<path d="M4.85337 1.64645C4.65811 1.45118 4.34152 1.45118 4.14626 1.64645L1.31783 4.47487C1.12257 4.67014 1.12257 4.98672 1.31783 5.18198C1.5131 5.37724 1.82968 5.37724 2.02494 5.18198L3.99981 3.20711V14.5C3.99981 14.7762 4.22367 15 4.49981 15C4.77596 15 4.99981 14.7762 4.99981 14.5V3.20711L6.97469 5.18198C7.16995 5.37724 7.48653 5.37724 7.68179 5.18198C7.87706 4.98672 7.87706 4.67014 7.68179 4.47487L4.85337 1.64645Z" />
<path fill-rule="evenodd" clip-rule="evenodd" d="M6.99983 7.5C6.99983 7.22386 7.22369 7 7.49983 7H14.4998C14.776 7 14.9998 7.22386 14.9998 7.5C14.9998 7.77614 14.776 8 14.4998 8H7.49983C7.22369 8 6.99983 7.77614 6.99983 7.5Z" />
<path fill-rule="evenodd" clip-rule="evenodd" d="M6.99983 10.5C6.99983 10.2239 7.22369 10 7.49983 10H12.4998C12.776 10 12.9998 10.2239 12.9998 10.5C12.9998 10.7761 12.776 11 12.4998 11H7.49983C7.22369 11 6.99983 10.7761 6.99983 10.5Z" />
<path fill-rule="evenodd" clip-rule="evenodd" d="M6.99983 13.5C6.99983 13.2239 7.22369 13 7.49983 13H10.4998C10.776 13 10.9998 13.2239 10.9998 13.5C10.9998 13.7761 10.776 14 10.4998 14H7.49983C7.22369 14 6.99983 13.7761 6.99983 13.5Z" />
</svg>
