<svg width="16" height="16" viewBox="0 0 16 16"  xmlns="http://www.w3.org/2000/svg">
<path fill-rule="evenodd" clip-rule="evenodd" d="M8.46904 3C5.70785 3 3.25575 5.26311 3.0137 8.04361C2.77451 10.7914 4.77914 13 7.50519 13C8.45293 13 8.96532 12.9285 9.776 12.5859C10.0291 12.4789 10.3206 12.5986 10.4269 12.8532C10.5333 13.1078 10.4143 13.4009 10.1612 13.5078C9.197 13.9153 8.54605 14 7.50519 14C4.19085 14 1.73354 11.2836 2.02319 7.95639C2.30999 4.66189 5.18984 2 8.46904 2C10.2804 2 11.7415 2.59943 12.7131 3.65634C13.6841 4.71249 14.1152 6.17005 13.9737 7.78546C13.9729 7.79511 13.9717 7.80468 13.9704 7.81415C13.7452 10.249 12.1243 11.1818 11.0267 10.9861L11.0138 10.9836C10.544 10.8964 10.1082 10.6348 9.8122 10.1915C9.76944 10.1275 9.73015 10.0605 9.69439 9.99068C9.13745 10.6397 8.33962 10.9999 7.47302 10.9999C5.85039 10.9999 4.86684 9.54867 5.00627 7.95608C5.14434 6.37899 6.33995 4.99994 7.91113 4.99994C8.62161 4.99994 9.23541 5.28292 9.68505 5.73993L9.70978 5.45774C9.73387 5.18266 9.97513 4.97931 10.2486 5.00355C10.5222 5.02778 10.7243 5.27042 10.7002 5.5455L10.4371 8.54946L10.4368 8.55327C10.3908 9.07904 10.4965 9.42266 10.6376 9.63395C10.7765 9.84196 10.9749 9.96117 11.201 10.0015L11.2079 10.0028C11.6043 10.0661 12.8065 9.70773 12.9825 7.69776C12.9833 7.68886 12.9843 7.68004 12.9855 7.6713C13.0998 6.2983 12.7273 5.14468 11.9831 4.33523C11.2348 3.52136 10.0597 3 8.46904 3ZM7.91098 5.99994C6.96968 5.99994 6.10026 6.85964 5.99659 8.04379C5.89427 9.21245 6.58301 9.99994 7.47287 9.99994C8.4606 9.99994 9.36233 9.30267 9.48048 7.95602C9.57965 6.82485 8.82907 5.99994 7.91098 5.99994Z" />
</svg>
