<svg width="17" height="16" viewBox="0 0 17 16"  xmlns="http://www.w3.org/2000/svg">
<path d="M11.6659 4.50002V11.5534C11.6659 12.9467 10.6459 14.1867 9.25919 14.32C7.66585 14.4733 6.33252 13.2267 6.33252 11.6667V3.42668C6.33252 2.55335 6.95919 1.76002 7.82585 1.67335C8.82585 1.57335 9.66585 2.35335 9.66585 3.33335V10.3333C9.66585 10.7 9.36585 11 8.99919 11C8.63252 11 8.33252 10.7 8.33252 10.3333V4.50002C8.33252 4.22668 8.10585 4.00002 7.83252 4.00002C7.55919 4.00002 7.33252 4.22668 7.33252 4.50002V10.24C7.33252 11.1133 7.95919 11.9067 8.82585 11.9934C9.82585 12.0934 10.6659 11.3133 10.6659 10.3333V3.44668C10.6659 2.05335 9.64585 0.813349 8.25919 0.680016C6.67252 0.526683 5.33252 1.77335 5.33252 3.33335V11.5134C5.33252 13.4267 6.73252 15.14 8.63919 15.32C10.8325 15.52 12.6659 13.8134 12.6659 11.6667V4.50002C12.6659 4.22668 12.4392 4.00002 12.1659 4.00002C11.8925 4.00002 11.6659 4.22668 11.6659 4.50002Z" />
</svg>
