<svg width="16" height="16" viewBox="0 0 16 16"  xmlns="http://www.w3.org/2000/svg">
<path fill-rule="evenodd" clip-rule="evenodd" d="M7.5 4C7.77614 4 8 3.77614 8 3.5C8 3.22386 7.77614 3 7.5 3C7.22386 3 7 3.22386 7 3.5C7 3.77614 7.22386 4 7.5 4ZM7.5 5C8.32843 5 9 4.32843 9 3.5C9 2.67157 8.32843 2 7.5 2C6.67157 2 6 2.67157 6 3.5C6 4.32843 6.67157 5 7.5 5Z" />
<path fill-rule="evenodd" clip-rule="evenodd" d="M7 3.5C7 3.77614 6.77614 4 6.5 4L1.5 4C1.22386 4 1 3.77614 1 3.5C1 3.22386 1.22386 3 1.5 3L6.5 3C6.77614 3 7 3.22386 7 3.5Z" />
<path fill-rule="evenodd" clip-rule="evenodd" d="M8 3.5C8 3.22386 8.22386 3 8.5 3L13.5 3C13.7761 3 14 3.22386 14 3.5C14 3.77614 13.7761 4 13.5 4L8.5 4C8.22386 4 8 3.77614 8 3.5Z" />
<path fill-rule="evenodd" clip-rule="evenodd" d="M7 13L7 4H8V13H7Z" />
<path fill-rule="evenodd" clip-rule="evenodd" d="M4 13.5C4 13.2239 4.22386 13 4.5 13H10.5C10.7761 13 11 13.2239 11 13.5C11 13.7761 10.7761 14 10.5 14H4.5C4.22386 14 4 13.7761 4 13.5Z" />
<path fill-rule="evenodd" clip-rule="evenodd" d="M3.0625 4.25L1.0625 7.75L1 7.875V8C1 9.375 2.125 10.5 3.5 10.5C4.875 10.5 6 9.375 6 8V7.875L5.9375 7.75L3.9375 4.25L3.79688 4H3.20312L3.0625 4.25ZM3.5 5.49994L2.00458 8.11692C2.06508 8.88591 2.71661 9.5 3.5 9.5C4.28339 9.5 4.93492 8.88591 4.99542 8.11692L3.5 5.49994Z" />
<path fill-rule="evenodd" clip-rule="evenodd" d="M5 8.5H2L2 7.5L5 7.5V8.5Z" />
<path fill-rule="evenodd" clip-rule="evenodd" d="M11.0625 4.25L9.0625 7.75L9 7.875V8C9 9.375 10.125 10.5 11.5 10.5C12.875 10.5 14 9.375 14 8V7.875L13.9375 7.75L11.9375 4.25L11.7969 4H11.2031L11.0625 4.25ZM11.5 5.49994L10.0046 8.11692C10.0651 8.88591 10.7166 9.5 11.5 9.5C12.2834 9.5 12.9349 8.88591 12.9954 8.11692L11.5 5.49994Z" />
<path fill-rule="evenodd" clip-rule="evenodd" d="M13 8.5H10V7.5L13 7.5V8.5Z" />
</svg>
