<svg width="16" height="16" viewBox="0 0 16 16"  xmlns="http://www.w3.org/2000/svg">
<path fill-rule="evenodd" clip-rule="evenodd" d="M2.01033 3.79551C2.11275 2.787 2.96447 2 4 2H12C13.1046 2 14 2.89543 14 4V5C14 6.10457 13.1046 7 12 7H4C2.89543 7 2 6.10457 2 5V4C2 3.93096 2.0035 3.86275 2.01033 3.79551ZM1 4C1 3.89645 1.00525 3.79412 1.01549 3.69327C1.16912 2.1805 2.4467 1 4 1H12C13.6569 1 15 2.34315 15 4V12C15 13.6569 13.6569 15 12 15H4C2.34315 15 1 13.6569 1 12V4ZM14 7.23611V12C14 13.1046 13.1046 14 12 14H4C2.89543 14 2 13.1046 2 12V7.23611C2.53076 7.71115 3.23165 8 4 8H12C12.7684 8 13.4692 7.71115 14 7.23611ZM8 5.5C8 5.22386 8.22386 5 8.5 5H9.5C9.77614 5 10 5.22386 10 5.5C10 5.77614 9.77614 6 9.5 6H8.5C8.22386 6 8 5.77614 8 5.5ZM11.5 5C11.2239 5 11 5.22386 11 5.5C11 5.77614 11.2239 6 11.5 6H12.5C12.7761 6 13 5.77614 13 5.5C13 5.22386 12.7761 5 12.5 5H11.5Z" />
</svg>
