<svg width="16" height="16" viewBox="0 0 16 16"  xmlns="http://www.w3.org/2000/svg">
<path fill-rule="evenodd" clip-rule="evenodd" d="M12.5838 2.70913C9.83381 0.321752 5.66505 0.43546 3.05025 3.05025C0.43546 5.66505 0.321752 9.83381 2.70913 12.5838L2.6967 12.5962L3.4038 13.3033L3.41624 13.2909C6.16618 15.6782 10.335 15.5645 12.9497 12.9497C15.5645 10.335 15.6782 6.16618 13.2909 3.41624L13.3033 3.4038L12.5962 2.6967L12.5838 2.70913ZM12.5817 4.12543C14.5797 6.48281 14.4667 10.0186 12.2426 12.2426C10.0186 14.4667 6.48281 14.5797 4.12543 12.5817L12.5817 4.12543ZM11.8746 3.41833L3.41833 11.8746C1.42026 9.51718 1.53327 5.98144 3.75736 3.75736C5.98144 1.53327 9.51718 1.42026 11.8746 3.41833Z" />
</svg>
