<svg width="16" height="16" viewBox="0 0 16 16" xmlns="http://www.w3.org/2000/svg">
<path fill-rule="evenodd" clip-rule="evenodd" d="M3 3.5C3 2.67157 3.67157 2 4.5 2H8C9.65685 2 11 3.34315 11 5C11 5.80026 10.6867 6.52733 10.176 7.06523C11.7855 7.38017 13 8.79825 13 10.5C13 12.433 11.433 14 9.5 14H4.5C3.67157 14 3 13.3284 3 12.5V3.5ZM4.5 3H8C9.10457 3 10 3.89543 10 5C10 6.10457 9.10457 7 8 7H4V3.5C4 3.22386 4.22386 3 4.5 3ZM4 8V12.5C4 12.7761 4.22386 13 4.5 13H9.5C10.8807 13 12 11.8807 12 10.5C12 9.11929 10.8807 8 9.5 8H4Z" />
</svg>
