<svg width="24" height="24" viewBox="0 0 24 24" xmlns="http://www.w3.org/2000/svg">
<path fill-rule="evenodd" clip-rule="evenodd" d="M12.0001 1.24879C12.8436 1.24738 13.7281 1.42201 14.4405 1.81227L14.4447 1.81458L19.7834 4.78391C20.5334 5.19923 21.1715 5.89736 21.6199 6.65784C22.0684 7.41834 22.3701 8.31398 22.3701 9.17004V14.8201C22.3701 15.6762 22.0684 16.5718 21.6199 17.3323C21.1715 18.0928 20.5336 18.7908 19.7837 19.2061L14.4447 22.1756L14.4429 22.1765C13.7338 22.5684 12.848 22.7426 12.0051 22.7426C11.1622 22.7426 10.2765 22.5684 9.56737 22.1765L9.56559 22.1756L4.22683 19.2062C3.47706 18.7909 2.83867 18.0927 2.39034 17.3323C1.94191 16.5718 1.64014 15.6762 1.64014 14.8201V9.17004C1.64014 8.31398 1.94191 7.41834 2.39034 6.65784C2.83874 5.89738 3.47662 5.1994 4.22653 4.78407L9.56486 1.825C10.2742 1.42731 11.1579 1.25019 12.0001 1.24879ZM20.8701 9.17004V14.8201C20.8701 15.3441 20.6769 15.9784 20.3278 16.5704C19.9788 17.1624 19.5168 17.6393 19.0568 17.894L13.7165 20.8642C13.4535 21.0094 13.1203 21.1184 12.75 21.1812V12.9824L20.7401 8.35414C20.8254 8.64032 20.8701 8.91796 20.8701 9.17004ZM20.0589 7.01527L11.9999 11.6834L3.94597 7.02257C4.24879 6.61569 4.60195 6.2908 4.95374 6.096L10.2937 3.13601L10.2973 3.13402C10.7276 2.89245 11.3432 2.74988 12.0026 2.74879C12.6607 2.74769 13.2804 2.88765 13.7179 3.12675L13.7198 3.1278L19.0568 6.09617C19.4065 6.28979 19.7574 6.61186 20.0589 7.01527ZM3.26752 8.36301L11.25 12.9826V21.1794C10.8835 21.1161 10.5536 21.0076 10.2929 20.8637L4.95468 17.8947L4.95345 17.894C4.49349 17.6393 4.03148 17.1624 3.68244 16.5704C3.33336 15.9784 3.14014 15.3441 3.14014 14.8201V9.17004C3.14014 8.92056 3.18394 8.64606 3.26752 8.36301Z"/>
</svg>
