<svg width="16" height="16" viewBox="0 0 16 16"  xmlns="http://www.w3.org/2000/svg">
<path d="M10 8.5C10 8.22386 10.2239 8 10.5 8H12.5C12.7761 8 13 8.22386 13 8.5C13 8.77614 12.7761 9 12.5 9H10.5C10.2239 9 10 8.77614 10 8.5Z" />
<path d="M3.5 8C3.22386 8 3 8.22386 3 8.5C3 8.77614 3.22386 9 3.5 9H5.5C5.77614 9 6 8.77614 6 8.5C6 8.22386 5.77614 8 5.5 8H3.5Z" />
<path fill-rule="evenodd" clip-rule="evenodd" d="M6.99195 11H3C1.89543 11 1 10.1046 1 9V8C1 6.89543 1.89543 6 3 6H13C14.1046 6 15 6.89543 15 8V9C15 10.1046 14.1046 11 13 11H7.00734C7.00221 11.0001 6.99708 11.0001 6.99195 11ZM8.00001 7H13C13.5523 7 14 7.44772 14 8V9C14 9.55228 13.5523 10 13 10H8.00005L8.90003 8.80003C9.03336 8.62225 9.03336 8.37781 8.90003 8.20003L8.00001 7ZM6.75001 7L7.87503 8.50003L6.75005 10H3C2.44772 10 2 9.55228 2 9V8C2 7.44772 2.44772 7 3 7H6.75001Z" />
</svg>
