<svg width="16" height="16" viewBox="0 0 16 16"  xmlns="http://www.w3.org/2000/svg">
<path fill-rule="evenodd" clip-rule="evenodd" d="M4.12148 8.16065C4.01576 8.28299 3.92271 8.41895 3.84515 8.56388C2.4535 8.73533 1.19261 9.79668 1.01626 11.4055L0.836462 13.0436C0.693454 14.2703 1.73148 15.2986 2.94224 15.1635L4.58118 14.9838L4.59171 14.9824C5.35619 14.882 6.01234 14.5547 6.50017 14.0669L6.50238 14.0646C7.04575 13.5144 7.36675 12.8118 7.43808 12.0661C7.55704 11.9981 7.66549 11.9242 7.76518 11.8525C7.77221 11.8474 7.7791 11.8422 7.78586 11.8367L9.09915 10.7834C11.3194 9.00309 13.9437 5.45424 15.0028 2.81515C15.2478 2.2199 15.0575 1.63077 14.68 1.25983C14.3016 0.874734 13.715 0.723029 13.1383 0.938078L13.1275 0.942372C11.798 1.47349 10.2482 2.40092 8.81944 3.46002C7.39071 4.51908 6.05144 5.73321 5.15569 6.85464L4.12148 8.16065ZM13.4924 1.87345C12.2698 2.3628 10.7989 3.2375 9.41494 4.26337C8.62427 4.84947 7.87226 5.4773 7.2191 6.10006C8.50707 6.41885 9.52663 7.4218 9.86916 8.70027C11.5792 6.89845 13.2961 4.38435 14.0756 2.44058L14.0777 2.43551C14.1499 2.26087 14.103 2.09371 13.9776 1.9716L13.9679 1.96217C13.8668 1.8583 13.6978 1.79871 13.4924 1.87345ZM8.9918 9.5606C8.94636 8.13946 7.77979 6.99813 6.34884 6.99336C6.20208 7.1572 6.06463 7.31903 5.93769 7.47792L5.93703 7.47875L5.03014 8.624C5.56978 8.76332 6.08308 9.05012 6.51478 9.4877C6.93095 9.90428 7.20993 10.3842 7.35003 10.9044L8.47353 10.0033C8.64374 9.86683 8.81685 9.71877 8.9918 9.5606ZM4.21158 9.53935C4.29152 9.53535 4.37827 9.53738 4.47244 9.5416L4.53369 9.54499C4.98103 9.60699 5.4266 9.82071 5.79947 10.1936C6.17182 10.5659 6.37204 10.9858 6.43042 11.4316L6.43248 11.4447C6.43586 11.4661 6.43878 11.4882 6.44126 11.5108L6.44414 11.5513C6.44797 11.6044 6.45119 11.6492 6.45256 11.697C6.45288 11.7136 6.45303 11.7302 6.45303 11.7467L6.45324 11.7612C6.44958 12.359 6.2207 12.9261 5.79195 13.3609C5.46752 13.6848 5.01913 13.9166 4.46657 13.9902L2.83206 14.1696L2.83099 14.1697C2.2561 14.2341 1.76097 13.7439 1.82986 13.1584L1.8303 13.1545L2.01031 11.5144C2.14009 10.3302 3.1275 9.56192 4.19692 9.53987L4.21158 9.53935Z" />
</svg>
