<svg width="16" height="16" viewBox="0 0 16 16"  xmlns="http://www.w3.org/2000/svg">
<path fill-rule="evenodd" clip-rule="evenodd" d="M2.81344 1.47976C3.27361 1.01959 3.92325 0.833313 4.66699 0.833313H5.33366C5.50695 0.833313 5.66788 0.923039 5.75898 1.07045C5.85009 1.21786 5.85837 1.40193 5.78087 1.55692C5.18459 2.74949 5.18459 3.91714 5.78087 5.10971C5.85837 5.2647 5.85009 5.44877 5.75898 5.59618C5.66788 5.74359 5.50695 5.83331 5.33366 5.83331H4.66699C3.92325 5.83331 3.27361 5.64704 2.81344 5.18687C2.35327 4.72669 2.16699 4.07705 2.16699 3.33331C2.16699 2.58957 2.35327 1.93993 2.81344 1.47976ZM3.52055 2.18687C3.31405 2.39336 3.16699 2.74372 3.16699 3.33331C3.16699 3.92291 3.31405 4.27327 3.52055 4.47976C3.71717 4.67639 4.04425 4.81912 4.58411 4.83232C4.25018 3.83551 4.25018 2.83111 4.58411 1.83431C4.04425 1.8475 3.71717 1.99024 3.52055 2.18687Z" />
<path fill-rule="evenodd" clip-rule="evenodd" d="M5.33379 0.833313C5.11857 0.833313 4.9275 0.971028 4.85945 1.1752C4.3919 2.57783 4.3919 4.08879 4.85945 5.49143C4.9275 5.6956 5.11857 5.83331 5.33379 5.83331H8.66667C9.41041 5.83331 10.06 5.64704 10.5202 5.18687C10.8739 4.83318 11.0658 4.36756 11.1357 3.83331H11.3337C12.3294 3.83331 12.5925 4.01171 12.6837 4.13331C12.7349 4.20169 12.7803 4.3123 12.8063 4.52033C12.8329 4.73297 12.8337 4.99035 12.8337 5.33331V6.66665C12.8337 7.00961 12.8329 7.26699 12.8063 7.47963C12.7803 7.68766 12.7349 7.79827 12.6837 7.86665C12.5925 7.98825 12.3294 8.16665 11.3337 8.16665H8.66699C7.62007 8.16665 6.90021 8.3966 6.50569 8.96734C6.31856 9.23806 6.2393 9.54029 6.20245 9.82255C6.18755 9.93669 6.17891 10.0542 6.1739 10.1717C5.63547 10.2062 5.24833 10.4195 5.02935 10.7844C4.83157 11.1141 4.83261 11.4852 4.83305 11.6464L4.83309 11.6667V13.6667L4.83305 13.687C4.83261 13.8481 4.83157 14.2193 5.02935 14.5489C5.26935 14.9489 5.71133 15.1667 6.33309 15.1667H6.99976C7.62152 15.1667 8.0635 14.9489 8.30351 14.5489C8.50128 14.2193 8.50025 13.8481 8.4998 13.687L8.49976 13.6667V11.6667L8.4998 11.6464C8.50025 11.4852 8.50128 11.1141 8.30351 10.7844C8.08668 10.4231 7.70501 10.2105 7.17487 10.1728C7.17888 10.095 7.18492 10.0218 7.19404 9.952C7.21969 9.75551 7.26543 9.62691 7.32829 9.53596C7.43378 9.38336 7.71391 9.16665 8.66699 9.16665H11.3337C12.3379 9.16665 13.0749 9.01171 13.4837 8.46665C13.6824 8.20169 13.7621 7.89564 13.7985 7.60366C13.8337 7.3225 13.8337 7.00439 13.8337 6.68758V5.31238C13.8337 4.99557 13.8337 4.67746 13.7985 4.3963C13.7621 4.10432 13.6824 3.79827 13.4837 3.53331C13.0749 2.98825 12.3379 2.83331 11.3337 2.83331H11.1357C11.0658 2.29907 10.8739 1.83345 10.5202 1.47976C10.06 1.01959 9.41041 0.833313 8.66667 0.833313H5.33379ZM5.70564 4.83331C5.44317 3.84961 5.44317 2.81702 5.70564 1.83331H7.62861C7.89107 2.81702 7.89107 3.84961 7.62861 4.83331H5.70564ZM8.74955 1.83431C9.08348 2.83111 9.08348 3.83551 8.74955 4.83232C9.28941 4.81912 9.61649 4.67639 9.81311 4.47976C10.0196 4.27327 10.1667 3.92291 10.1667 3.33331C10.1667 2.74372 10.0196 2.39336 9.81311 2.18687C9.61649 1.99024 9.28941 1.8475 8.74955 1.83431ZM5.83309 11.6667C5.83309 11.4816 5.84344 11.3713 5.88684 11.2989C5.90063 11.276 5.92184 11.2507 5.97188 11.2266C6.02779 11.1996 6.13666 11.1667 6.33309 11.1667H6.99976C7.1962 11.1667 7.30506 11.1996 7.36098 11.2266C7.41102 11.2507 7.43223 11.276 7.44601 11.2989C7.48941 11.3713 7.49976 11.4816 7.49976 11.6667V13.6667C7.49976 13.8518 7.48941 13.9621 7.44601 14.0344C7.43223 14.0574 7.41102 14.0827 7.36098 14.1068C7.30506 14.1337 7.1962 14.1667 6.99976 14.1667H6.33309C6.13666 14.1667 6.02779 14.1337 5.97188 14.1068C5.92184 14.0827 5.90063 14.0574 5.88684 14.0344C5.84344 13.9621 5.83309 13.8518 5.83309 13.6667V11.6667Z" />
</svg>
