<svg width="24" height="24" viewBox="0 0 24 24"  xmlns="http://www.w3.org/2000/svg">
<path fill-rule="evenodd" clip-rule="evenodd" d="M3.25 6.21429C3.25 4.02487 5.02487 2.25 7.21429 2.25H16.2143C18.4037 2.25 20.1786 4.02487 20.1786 6.21429C20.1786 8.4037 18.4037 10.1786 16.2143 10.1786H13.6429C13.2286 10.1786 12.8929 9.84278 12.8929 9.42857C12.8929 9.01436 13.2286 8.67857 13.6429 8.67857H16.2143C17.5753 8.67857 18.6786 7.57527 18.6786 6.21429C18.6786 4.8533 17.5753 3.75 16.2143 3.75H7.21429C5.8533 3.75 4.75 4.8533 4.75 6.21429C4.75 7.57527 5.8533 8.67857 7.21429 8.67857C7.6285 8.67857 7.96429 9.01436 7.96429 9.42857C7.96429 9.84278 7.6285 10.1786 7.21429 10.1786C5.02487 10.1786 3.25 8.4037 3.25 6.21429ZM10.4286 6.32143C10.1327 6.32143 9.89286 6.56128 9.89286 6.85714V15.2143C9.89286 15.6285 9.55707 15.9643 9.14286 15.9643C8.72864 15.9643 8.39286 15.6285 8.39286 15.2143V14.1968C7.76103 14.4827 7.32143 15.1186 7.32143 15.8571C7.32143 18.2832 9.28818 20.25 11.7143 20.25H12.3571C15.1383 20.25 17.3929 17.9955 17.3929 15.2143V14.1176C17.3929 13.3623 16.7806 12.75 16.0252 12.75H10.9643V6.85714C10.9643 6.56128 10.7244 6.32143 10.4286 6.32143ZM8.39286 12.6207V6.85714C8.39286 5.73286 9.30428 4.82143 10.4286 4.82143C11.5529 4.82143 12.4643 5.73285 12.4643 6.85714V11.25H16.0252C17.609 11.25 18.8929 12.5339 18.8929 14.1176V15.2143C18.8929 18.8239 15.9667 21.75 12.3571 21.75H11.7143C8.45974 21.75 5.82143 19.1116 5.82143 15.8571C5.82143 14.2807 6.91971 12.9608 8.39286 12.6207Z" />
</svg>
