<svg width="16" height="16" viewBox="0 0 16 16"  xmlns="http://www.w3.org/2000/svg">
<path d="M3 10.5C3 10.2239 3.22386 10 3.5 10H4.5C4.77614 10 5 10.2239 5 10.5C5 10.7761 4.77614 11 4.5 11H3.5C3.22386 11 3 10.7761 3 10.5Z" />
<path d="M6.5 10C6.22386 10 6 10.2239 6 10.5C6 10.7761 6.22386 11 6.5 11H8.5C8.77614 11 9 10.7761 9 10.5C9 10.2239 8.77614 10 8.5 10H6.5Z" />
<path fill-rule="evenodd" clip-rule="evenodd" d="M5.50011 3H12.5001C13.3285 3 14.0001 3.67157 14.0001 4.5V9.5C14.0001 10.1531 13.5827 10.7087 13.0001 10.9146V11.5C13.0001 11.6565 12.9857 11.8096 12.9582 11.9581C14.1202 11.7429 15.0001 10.7242 15.0001 9.5V4.5C15.0001 3.11929 13.8808 2 12.5001 2H5.50011C4.27589 2 3.25719 2.87995 3.042 4.04186C1.88002 4.257 1 5.27573 1 6.5V11.5C1 12.8807 2.11929 14 3.5 14H10.5C11.8807 14 13.0001 12.8807 13.0001 11.5L13 6.5C13 5.11929 11.8807 4 10.5 4H4.08546C4.29138 3.4174 4.847 3 5.50011 3ZM2 8V11.5C2 12.3284 2.67157 13 3.5 13H10.5C11.3284 13 12 12.3284 12 11.5V8H2ZM12 7V6.5C12 5.67157 11.3284 5 10.5 5H3.5C2.67157 5 2 5.67157 2 6.5V7H12Z" />
</svg>
