<svg width="16" height="16" viewBox="0 0 16 16"  xmlns="http://www.w3.org/2000/svg">
<path fill-rule="evenodd" clip-rule="evenodd" d="M7.0681 1.74037C7.26104 1.40962 7.73894 1.40962 7.93188 1.74037L10.5614 6.24806C10.7558 6.58139 10.5154 6.99999 10.1295 6.99999H4.8705C4.48461 6.99999 4.24417 6.58139 4.43861 6.24806L7.0681 1.74037ZM5.74102 5.99999L7.49999 2.98463L9.25895 5.99999H5.74102Z" />
<path fill-rule="evenodd" clip-rule="evenodd" d="M2.5 8C1.67157 8 1 8.67157 1 9.5V12.5C1 13.3284 1.67157 14 2.5 14H5.5C6.32843 14 7 13.3284 7 12.5V9.5C7 8.67157 6.32843 8 5.5 8H2.5ZM5.5 9H2.5C2.22386 9 2 9.22386 2 9.5V12.5C2 12.7761 2.22386 13 2.5 13H5.5C5.77614 13 6 12.7761 6 12.5V9.5C6 9.22386 5.77614 9 5.5 9Z" />
<path fill-rule="evenodd" clip-rule="evenodd" d="M11 14C12.6569 14 14 12.6569 14 11C14 9.34315 12.6569 8 11 8C9.34315 8 8 9.34315 8 11C8 12.6569 9.34315 14 11 14ZM11 13C12.1046 13 13 12.1046 13 11C13 9.89543 12.1046 9 11 9C9.89543 9 9 9.89543 9 11C9 12.1046 9.89543 13 11 13Z" />
</svg>
