<svg width="16" height="16" viewBox="0 0 16 16"  xmlns="http://www.w3.org/2000/svg">
<path fill-rule="evenodd" clip-rule="evenodd" d="M6 3.5V14H5V7.5C5 6.67157 4.32843 6 3.5 6C2.67157 6 2 6.67157 2 7.5V14H1.5C1.22386 14 1 14.2239 1 14.5C1 14.7761 1.22386 15 1.5 15H14.5C14.7761 15 15 14.7761 15 14.5C15 14.2239 14.7761 14 14.5 14H13V8.5C13 7.67157 12.3284 7 11.5 7C10.6716 7 10 7.67157 10 8.5V14H9V3.5C9 2.67157 8.32843 2 7.5 2C6.67157 2 6 2.67157 6 3.5ZM8 14V3.5C8 3.22386 7.77614 3 7.5 3C7.22386 3 7 3.22386 7 3.5V14H8ZM11 14H12V8.5C12 8.22386 11.7761 8 11.5 8C11.2239 8 11 8.22386 11 8.5V14ZM4 7.5V14H3V7.5C3 7.22386 3.22386 7 3.5 7C3.77614 7 4 7.22386 4 7.5Z" />
</svg>
