<svg width="24" height="24" viewBox="0 0 24 24" xmlns="http://www.w3.org/2000/svg">
<path fill-rule="evenodd" clip-rule="evenodd" d="M8.5 17.6067V20.119L12.2415 17.5H16.5C18.7091 17.5 20.5 15.7091 20.5 13.5V7.5C20.5 5.29086 18.7091 3.5 16.5 3.5H7.5C5.29086 3.5 3.5 5.29086 3.5 7.5V13.5C3.5 15.5857 5.09749 17.3001 7.13463 17.4836L8.5 17.6067ZM8.57346 21.8986L12.7143 19H16.5C19.5376 19 22 16.5376 22 13.5V7.5C22 4.46243 19.5376 2 16.5 2H7.5C4.46243 2 2 4.46243 2 7.5V13.5C2 16.369 4.19675 18.725 7 18.9776V21.0793C7 21.8884 7.91069 22.3625 8.57346 21.8986Z" />
<path fill-rule="evenodd" clip-rule="evenodd" d="M9.58984 8.52002C9.58984 7.18584 10.6656 6.10999 11.9998 6.10999C13.3341 6.10999 14.4098 7.18584 14.4098 8.52002C14.4098 9.57292 13.7176 10.1286 13.2645 10.4382C13.0701 10.5725 12.9448 10.6782 12.8636 10.7871C12.7962 10.8775 12.7498 10.9821 12.7498 11.15V11.36C12.7498 11.7742 12.414 12.11 11.9998 12.11C11.5856 12.11 11.2498 11.7742 11.2498 11.36V11.15C11.2498 10.0732 11.9585 9.51714 12.4137 9.20283L12.4169 9.20065C12.602 9.07419 12.7232 8.97096 12.8009 8.86603C12.866 8.77816 12.9098 8.67775 12.9098 8.52002C12.9098 8.0142 12.5056 7.60999 11.9998 7.60999C11.4941 7.60999 11.0898 8.0142 11.0898 8.52002C11.0898 8.93423 10.7541 9.27002 10.3398 9.27002C9.92563 9.27002 9.58984 8.93423 9.58984 8.52002Z" />
<path fill-rule="evenodd" clip-rule="evenodd" d="M11.2455 13.75C11.2455 13.3358 11.5813 13 11.9955 13H12.0045C12.4187 13 12.7545 13.3358 12.7545 13.75C12.7545 14.1642 12.4187 14.5 12.0045 14.5H11.9955C11.5813 14.5 11.2455 14.1642 11.2455 13.75Z" />
</svg>
