<svg width="16" height="16" viewBox="0 0 16 16" xmlns="http://www.w3.org/2000/svg">
<path d="M6.5 5.10669C6.5 4.21724 7.21715 3.5 8.10665 3.5C8.99615 3.5 9.7133 4.21724 9.7133 5.10669C9.7133 5.80864 9.25179 6.17909 8.94975 6.3855C8.82015 6.47505 8.73661 6.54548 8.68251 6.61805C8.63755 6.67835 8.60665 6.74808 8.60665 6.86003V7C8.60665 7.27614 8.38279 7.5 8.10665 7.5C7.83051 7.5 7.60665 7.27614 7.60665 7V6.86003C7.60665 6.14211 8.0791 5.77144 8.38257 5.5619L8.38468 5.56044C8.50813 5.47614 8.5889 5.40732 8.64074 5.33736C8.68414 5.27879 8.7133 5.21184 8.7133 5.10669C8.7133 4.76947 8.44382 4.5 8.10665 4.5C7.76948 4.5 7.5 4.76947 7.5 5.10669C7.5 5.38283 7.27614 5.60669 7 5.60669C6.72386 5.60669 6.5 5.38283 6.5 5.10669Z" />
<path d="M8.10352 8.5C7.82737 8.5 7.60352 8.72386 7.60352 9C7.60352 9.27614 7.82737 9.5 8.10352 9.5H8.10952C8.38566 9.5 8.60952 9.27614 8.60952 9C8.60952 8.72386 8.38566 8.5 8.10952 8.5H8.10352Z" />
<path fill-rule="evenodd" clip-rule="evenodd" d="M1 5C1 2.79086 2.79086 1 5 1H11C13.2091 1 15 2.79086 15 5V9C15 11.2091 13.2091 13 11 13H8L5.6 14.8C4.94076 15.2944 4 14.824 4 14V12.874C2.27477 12.4299 1 10.8638 1 9V5ZM5 12.0988V14L7.66667 12H11C12.6569 12 14 10.6569 14 9V5C14 3.34315 12.6569 2 11 2H5C3.34315 2 2 3.34315 2 5V9C2 10.3965 2.95512 11.5725 4.24926 11.9055L5 12.0988Z" />
</svg>
