<svg width="24" height="24" viewBox="0 0 24 24" xmlns="http://www.w3.org/2000/svg">
<path fill-rule="evenodd" clip-rule="evenodd" d="M8.5 17.6067V20.119L12.2415 17.5H16.5C18.7091 17.5 20.5 15.7091 20.5 13.5V7.5C20.5 5.29086 18.7091 3.5 16.5 3.5H7.5C5.29086 3.5 3.5 5.29086 3.5 7.5V13.5C3.5 15.5857 5.09749 17.3001 7.13463 17.4836L8.5 17.6067ZM8.57346 21.8986L12.7143 19H16.5C19.5376 19 22 16.5376 22 13.5V7.5C22 4.46243 19.5376 2 16.5 2H7.5C4.46243 2 2 4.46243 2 7.5V13.5C2 16.369 4.19675 18.725 7 18.9776V21.0793C7 21.8884 7.91069 22.3625 8.57346 21.8986Z" />
</svg>
