<svg width="24" height="24" viewBox="0 0 24 24"  xmlns="http://www.w3.org/2000/svg">
<path d="M16.7682 9.64021C17.1218 9.21593 17.0645 8.58537 16.6402 8.2318C16.2159 7.87824 15.5853 7.93556 15.2318 8.35984L10.9328 13.5186L8.70711 11.2929C8.31658 10.9024 7.68342 10.9024 7.29289 11.2929C6.90237 11.6834 6.90237 12.3166 7.29289 12.7071L10.2929 15.7071C10.4916 15.9058 10.7646 16.0117 11.0453 15.999C11.326 15.9863 11.5884 15.856 11.7682 15.6402L16.7682 9.64021Z" />
<path fill-rule="evenodd" clip-rule="evenodd" d="M22 12C22 17.5228 17.5228 22 12 22C6.47715 22 2 17.5228 2 12C2 6.47715 6.47715 2 12 2C17.5228 2 22 6.47715 22 12ZM20 12C20 16.4183 16.4183 20 12 20C7.58172 20 4 16.4183 4 12C4 7.58172 7.58172 4 12 4C16.4183 4 20 7.58172 20 12Z" />
</svg>
