<svg width="16" height="16" viewBox="0 0 16 16"  xmlns="http://www.w3.org/2000/svg">
<path fill-rule="evenodd" clip-rule="evenodd" d="M10 3H6C4.34315 3 3 4.34315 3 6V10C3 11.6569 4.34315 13 6 13H10C11.6569 13 13 11.6569 13 10V6C13 4.34315 11.6569 3 10 3ZM6 2C3.79086 2 2 3.79086 2 6V10C2 12.2091 3.79086 14 6 14H10C12.2091 14 14 12.2091 14 10V6C14 3.79086 12.2091 2 10 2H6Z" />
<path fill-rule="evenodd" clip-rule="evenodd" d="M11.3123 5.10957C11.528 5.28207 11.5629 5.59672 11.3904 5.81235L7.39043 10.8123C7.30159 10.9234 7.16965 10.9914 7.02765 10.9992C6.88565 11.0071 6.74701 10.9541 6.64645 10.8536L4.64645 8.85355C4.45118 8.65829 4.45118 8.34171 4.64645 8.14645C4.84171 7.95118 5.15829 7.95118 5.35355 8.14645L6.95854 9.75143L10.6096 5.18765C10.7821 4.97202 11.0967 4.93706 11.3123 5.10957Z" />
</svg>
