<svg width="16" height="16" viewBox="0 0 16 16"  xmlns="http://www.w3.org/2000/svg">
<path fill-rule="evenodd" clip-rule="evenodd" d="M2 6C2 3.79086 3.79086 2 6 2H10C12.2091 2 14 3.79086 14 6V10C14 12.2091 12.2091 14 10 14H6C3.79086 14 2 12.2091 2 10V6ZM11.3123 5.10957C11.528 5.28207 11.5629 5.59672 11.3904 5.81235L7.39043 10.8123C7.30159 10.9234 7.16965 10.9914 7.02765 10.9992C6.88565 11.0071 6.74701 10.9541 6.64645 10.8536L4.64686 8.85397C4.4516 8.65871 4.45118 8.34171 4.64645 8.14645C4.84171 7.95118 5.15829 7.95118 5.35355 8.14645L6.95854 9.75143L10.6091 5.18826C10.609 5.18836 10.6092 5.18816 10.6091 5.18826C10.7816 4.9729 11.0968 4.93714 11.3123 5.10957Z" />
</svg>
