<svg width="16" height="16" viewBox="0 0 16 16"  xmlns="http://www.w3.org/2000/svg">
<path d="M11.3508 6.35626C11.5476 6.1625 11.55 5.84593 11.3563 5.64917C11.1625 5.45242 10.8459 5.44999 10.6492 5.64374L7.04125 9.19668L5.33831 7.63183C5.13498 7.44499 4.81868 7.45836 4.63184 7.66169C4.44499 7.86502 4.45836 8.18132 4.66169 8.36817L6.71486 10.2548C6.91106 10.4351 7.21415 10.4299 7.404 10.2429L11.3508 6.35626Z" />
<path fill-rule="evenodd" clip-rule="evenodd" d="M15 8C15 11.866 11.866 15 8 15C4.13401 15 1 11.866 1 8C1 4.13401 4.13401 1 8 1C11.866 1 15 4.13401 15 8ZM14 8C14 11.3137 11.3137 14 8 14C4.68629 14 2 11.3137 2 8C2 4.68629 4.68629 2 8 2C11.3137 2 14 4.68629 14 8Z" />
</svg>
