<svg width="16" height="16" viewBox="0 0 16 16"  xmlns="http://www.w3.org/2000/svg">
<path fill-rule="evenodd" clip-rule="evenodd" d="M7.5 7H3.5C2.67157 7 2 7.67157 2 8.5C2 9.32843 2.67157 10 3.5 10H7.5C8.32843 10 9 9.32843 9 8.5C9 7.67157 8.32843 7 7.5 7ZM3.5 6C2.11929 6 1 7.11929 1 8.5C1 9.88071 2.11929 11 3.5 11H7.5C8.88071 11 10 9.88071 10 8.5C10 7.11929 8.88071 6 7.5 6H3.5Z" />
<path fill-rule="evenodd" clip-rule="evenodd" d="M13.5 7C12.6716 7 12 7.67157 12 8.5C12 9.32843 12.6716 10 13.5 10H15V11H13.5C12.1193 11 11 9.88071 11 8.5C11 7.11929 12.1193 6 13.5 6H15V7H13.5Z" />
<path fill-rule="evenodd" clip-rule="evenodd" d="M3 8.5C3 8.22386 3.22386 8 3.5 8H7.5C7.77614 8 8 8.22386 8 8.5C8 8.77614 7.77614 9 7.5 9H3.5C3.22386 9 3 8.77614 3 8.5Z" />
<path fill-rule="evenodd" clip-rule="evenodd" d="M13 8.5C13 8.22386 13.2239 8 13.5 8H15V9H13.5C13.2239 9 13 8.77614 13 8.5Z" />
</svg>
