<svg width="24" height="24" viewBox="0 0 24 24"  xmlns="http://www.w3.org/2000/svg">
<path fill-rule="evenodd" clip-rule="evenodd" d="M10 9H5C3.34315 9 2 10.3431 2 12C2 13.6569 3.34315 15 5 15H10C11.6569 15 13 13.6569 13 12C13 10.3431 11.6569 9 10 9ZM5 7C2.23858 7 0 9.23858 0 12C0 14.7614 2.23858 17 5 17H10C12.7614 17 15 14.7614 15 12C15 9.23858 12.7614 7 10 7H5Z" />
<path fill-rule="evenodd" clip-rule="evenodd" d="M22 9C20.3431 9 19 10.3431 19 12C19 13.6569 20.3431 15 22 15H24V17H22C19.2386 17 17 14.7614 17 12C17 9.23858 19.2386 7 22 7H24V9H22Z" />
<path fill-rule="evenodd" clip-rule="evenodd" d="M4 12C4 11.4477 4.44772 11 5 11H10C10.5523 11 11 11.4477 11 12C11 12.5523 10.5523 13 10 13H5C4.44772 13 4 12.5523 4 12Z" />
<path fill-rule="evenodd" clip-rule="evenodd" d="M21 12C21 11.4477 21.4477 11 22 11H24V13H22C21.4477 13 21 12.5523 21 12Z" />
</svg>
