<svg width="16" height="16" viewBox="0 0 16 16"  xmlns="http://www.w3.org/2000/svg">
<path d="M3.5 4C3.22386 4 3 4.22386 3 4.5C3 4.77614 3.22386 5 3.5 5H4.5C4.77614 5 5 4.77614 5 4.5C5 4.22386 4.77614 4 4.5 4H3.5Z" />
<path d="M6.5 4C6.22386 4 6 4.22386 6 4.5C6 4.77614 6.22386 5 6.5 5H11.5C11.7761 5 12 4.77614 12 4.5C12 4.22386 11.7761 4 11.5 4H6.5Z" />
<path fill-rule="evenodd" clip-rule="evenodd" d="M3.5 2C2.11929 2 1 3.11929 1 4.5C1 5.88071 2.11929 7 3.5 7H12.5C13.8807 7 15 5.88071 15 4.5C15 3.11929 13.8807 2 12.5 2H3.5ZM12.5 3H3.5C2.67157 3 2 3.67157 2 4.5C2 5.32843 2.67157 6 3.5 6H12.5C13.3284 6 14 5.32843 14 4.5C14 3.67157 13.3284 3 12.5 3Z" />
<path d="M6 11.5C6 11.2239 6.22386 11 6.5 11H11.5C11.7761 11 12 11.2239 12 11.5C12 11.7761 11.7761 12 11.5 12H6.5C6.22386 12 6 11.7761 6 11.5Z" />
<path d="M3.5 11C3.22386 11 3 11.2239 3 11.5C3 11.7761 3.22386 12 3.5 12H4.5C4.77614 12 5 11.7761 5 11.5C5 11.2239 4.77614 11 4.5 11H3.5Z" />
<path fill-rule="evenodd" clip-rule="evenodd" d="M3.5 9C2.11929 9 1 10.1193 1 11.5C1 12.8807 2.11929 14 3.5 14H12.5C13.8807 14 15 12.8807 15 11.5C15 10.1193 13.8807 9 12.5 9H3.5ZM12.5 10H3.5C2.67157 10 2 10.6716 2 11.5C2 12.3284 2.67157 13 3.5 13H12.5C13.3284 13 14 12.3284 14 11.5C14 10.6716 13.3284 10 12.5 10Z" />
</svg>
