<svg width="16" height="16" viewBox="0 0 16 16"  xmlns="http://www.w3.org/2000/svg">
<path d="M8.5 4.5C8.5 4.22386 8.27614 4 8 4C7.72386 4 7.5 4.22386 7.5 4.5V8C7.5 8.17563 7.59215 8.33838 7.74275 8.42875L10.2428 9.92875C10.4795 10.0708 10.7867 9.99404 10.9287 9.75725C11.0708 9.52046 10.994 9.21333 10.7572 9.07125L8.5 7.7169V4.5Z" />
<path fill-rule="evenodd" clip-rule="evenodd" d="M15 8C15 11.866 11.866 15 8 15C4.13401 15 1 11.866 1 8C1 4.13401 4.13401 1 8 1C11.866 1 15 4.13401 15 8ZM14 8C14 11.3137 11.3137 14 8 14C4.68629 14 2 11.3137 2 8C2 4.68629 4.68629 2 8 2C11.3137 2 14 4.68629 14 8Z" />
</svg>
