<svg width="16" height="16" viewBox="0 0 16 16" xmlns="http://www.w3.org/2000/svg">
<path fill-rule="evenodd" clip-rule="evenodd" d="M4.85355 6.14656C5.04882 6.34182 5.04882 6.6584 4.85355 6.85366L3.20711 8.50011L4.85355 10.1466C5.04882 10.3418 5.04882 10.6584 4.85355 10.8537C4.65829 11.0489 4.34171 11.0489 4.14645 10.8537L2.14645 8.85366C1.95118 8.6584 1.95118 8.34182 2.14645 8.14656L4.14645 6.14656C4.34171 5.95129 4.65829 5.95129 4.85355 6.14656Z" />
<path fill-rule="evenodd" clip-rule="evenodd" d="M11.1464 6.14656C11.3417 5.95129 11.6583 5.95129 11.8536 6.14656L13.8536 8.14656C14.0488 8.34182 14.0488 8.6584 13.8536 8.85366L11.8536 10.8537C11.6583 11.0489 11.3417 11.0489 11.1464 10.8537C10.9512 10.6584 10.9512 10.3418 11.1464 10.1466L12.7929 8.50011L11.1464 6.85366C10.9512 6.6584 10.9512 6.34182 11.1464 6.14656Z" />
<path fill-rule="evenodd" clip-rule="evenodd" d="M9.22361 6.0529C9.4706 6.17639 9.57071 6.47673 9.44721 6.72372L7.44721 10.7237C7.32372 10.9707 7.02338 11.0708 6.77639 10.9473C6.5294 10.8238 6.42929 10.5235 6.55279 10.2765L8.55279 6.2765C8.67628 6.02951 8.97662 5.9294 9.22361 6.0529Z" />
</svg>
