<svg width="16" height="16" viewBox="0 0 16 16" xmlns="http://www.w3.org/2000/svg">
<path d="M8.65801 8.02555C8.91998 8.11287 9.06156 8.39603 8.97423 8.65801L7.97423 11.658C7.88691 11.92 7.60375 12.0616 7.34178 11.9742C7.07981 11.8869 6.93823 11.6037 7.02555 11.3418L8.02555 8.34178C8.11287 8.07981 8.39603 7.93823 8.65801 8.02555Z" />
<path d="M5.80008 8.90003C6.021 8.73434 6.06577 8.42094 5.90008 8.20003C5.7344 7.97912 5.421 7.93434 5.20008 8.10003L4.26675 8.80003C3.46675 9.40003 3.46675 10.6 4.26675 11.2L5.20008 11.9C5.421 12.0657 5.7344 12.0209 5.90008 11.8C6.06577 11.5791 6.021 11.2657 5.80008 11.1L4.86675 10.4C4.60008 10.2 4.60008 9.80003 4.86675 9.60003L5.80008 8.90003Z" />
<path d="M10.1 8.20003C10.2657 7.97912 10.5791 7.93434 10.8 8.10003L11.7334 8.80003C12.5334 9.40003 12.5334 10.6 11.7334 11.2L10.8 11.9C10.5791 12.0657 10.2657 12.0209 10.1 11.8C9.93434 11.5791 9.97912 11.2657 10.2 11.1L11.1334 10.4C11.4 10.2 11.4 9.80003 11.1334 9.60003L10.2 8.90003C9.97912 8.73434 9.93434 8.42094 10.1 8.20003Z" />
<path fill-rule="evenodd" clip-rule="evenodd" d="M5 1C2.79086 1 1 2.79086 1 5V11C1 13.2091 2.79086 15 5 15H11C13.2091 15 15 13.2091 15 11V5C15 2.79086 13.2091 1 11 1H5ZM11 2H5C3.34315 2 2 3.34315 2 5L14 5C14 3.34315 12.6569 2 11 2ZM14 6H2V11C2 12.6569 3.34315 14 5 14H11C12.6569 14 14 12.6569 14 11V6Z" />
</svg>
