<svg width="16" height="16" viewBox="0 0 16 16"  xmlns="http://www.w3.org/2000/svg">
<path d="M10 10.2964C10 9.15283 9.55869 8.42424 8.67606 8.11067C8.43192 8.03689 8.1784 8 7.91549 8C7.14554 8 6.58216 8.35046 6.22535 9.05138C6.07512 9.34651 6 9.65086 6 9.96443C6 10.776 6.38498 11.3663 7.15493 11.7352C7.30516 11.7905 7.4554 11.8366 7.60563 11.8735C8.07512 12.0026 8.31925 12.2332 8.33803 12.5652C8.33803 13.1186 7.99061 13.7642 7.29577 14.502C7.277 14.5204 7.25822 14.5389 7.23944 14.5573L7.83099 15C9.01408 13.7457 9.71831 12.3992 9.94366 10.9605C9.98122 10.7207 10 10.4993 10 10.2964Z" />
</svg>
