<svg width="16" height="16" viewBox="0 0 16 16"  xmlns="http://www.w3.org/2000/svg">
<path fill-rule="evenodd" clip-rule="evenodd" d="M13.5 4.93699C14.3626 4.71497 15 3.93192 15 3C15 1.89543 14.1046 1 13 1C11.8954 1 11 1.89543 11 3C11 3.93192 11.6374 4.71497 12.5 4.93699V7C12.5 7.27614 12.2761 7.5 12 7.5L9.93699 7.5C9.71497 6.63739 8.93192 6 8 6C7.06808 6 6.28503 6.63739 6.06301 7.5H4C3.17157 7.5 2.5 8.17157 2.5 9V11.063C1.63739 11.285 1 12.0681 1 13C1 14.1046 1.89543 15 3 15C4.10457 15 5 14.1046 5 13C5 12.0681 4.36261 11.285 3.5 11.063V9C3.5 8.72386 3.72386 8.5 4 8.5H6.06301C6.28503 9.36261 7.06808 10 8 10C8.93192 10 9.71497 9.36261 9.93699 8.5L12 8.5C12.8284 8.5 13.5 7.82843 13.5 7V4.93699ZM13 4C13.5523 4 14 3.55228 14 3C14 2.44772 13.5523 2 13 2C12.4477 2 12 2.44772 12 3C12 3.55228 12.4477 4 13 4ZM8 9C8.55228 9 9 8.55228 9 8C9 7.44772 8.55228 7 8 7C7.44772 7 7 7.44772 7 8C7 8.55228 7.44772 9 8 9ZM4 13C4 13.5523 3.55228 14 3 14C2.44772 14 2 13.5523 2 13C2 12.4477 2.44772 12 3 12C3.55228 12 4 12.4477 4 13Z" />
</svg>
