<svg width="24" height="24" viewBox="0 0 24 24"  xmlns="http://www.w3.org/2000/svg">
<path fill-rule="evenodd" clip-rule="evenodd" d="M22 5C22 6.30622 21.1652 7.41746 20 7.82929V10C20 11.6569 18.6569 13 17 13L14.8293 13C14.4175 14.1652 13.3062 15 12 15C10.6938 15 9.58254 14.1652 9.17071 13H7C6.44772 13 6 13.4477 6 14V16.1707C7.16519 16.5825 8 17.6938 8 19C8 20.6569 6.65685 22 5 22C3.34315 22 2 20.6569 2 19C2 17.6938 2.83481 16.5825 4 16.1707V14C4 12.3431 5.34315 11 7 11H9.17071C9.58254 9.83481 10.6938 9 12 9C13.3062 9 14.4175 9.83481 14.8293 11L17 11C17.5523 11 18 10.5523 18 10V7.82929C16.8348 7.41746 16 6.30622 16 5C16 3.34315 17.3431 2 19 2C20.6569 2 22 3.34315 22 5ZM19 6C19.5523 6 20 5.55228 20 5C20 4.44772 19.5523 4 19 4C18.4477 4 18 4.44772 18 5C18 5.55228 18.4477 6 19 6ZM12 13C12.5523 13 13 12.5523 13 12C13 11.4477 12.5523 11 12 11C11.4477 11 11 11.4477 11 12C11 12.5523 11.4477 13 12 13ZM6 19C6 19.5523 5.55228 20 5 20C4.44772 20 4 19.5523 4 19C4 18.4477 4.44772 18 5 18C5.55228 18 6 18.4477 6 19Z" />
</svg>
