<svg width="16" height="16" viewBox="0 0 16 16"  xmlns="http://www.w3.org/2000/svg">
<path d="M5.5 9C5.77614 9 6 8.77614 6 8.5C6 8.22386 5.77614 8 5.5 8C5.22386 8 5 8.22386 5 8.5C5 8.77614 5.22386 9 5.5 9Z" />
<path d="M8 9C8.27614 9 8.5 8.77614 8.5 8.5C8.5 8.22386 8.27614 8 8 8C7.72386 8 7.5 8.22386 7.5 8.5C7.5 8.77614 7.72386 9 8 9Z" />
<path d="M6 10.5C6 10.7761 5.77614 11 5.5 11C5.22386 11 5 10.7761 5 10.5C5 10.2239 5.22386 10 5.5 10C5.77614 10 6 10.2239 6 10.5Z" />
<path d="M12 10.5C12 10.2239 11.7761 10 11.5 10C11.2239 10 11 10.2239 11 10.5V11.7071L12.1464 12.8536C12.3417 13.0488 12.6583 13.0488 12.8536 12.8536C13.0488 12.6583 13.0488 12.3417 12.8536 12.1464L12 11.2929V10.5Z" />
<path fill-rule="evenodd" clip-rule="evenodd" d="M6 1.5C6 1.22386 5.77614 1 5.5 1C5.22386 1 5 1.22386 5 1.5V2C3.34315 2 2 3.34315 2 5V11C2 12.6569 3.34315 14 5 14H9.05051C9.68178 14.6186 10.5463 15 11.5 15C13.433 15 15 13.433 15 11.5C15 10.5463 14.6186 9.68178 14 9.05051V5C14 3.34315 12.6569 2 11 2V1.5C11 1.22386 10.7761 1 10.5 1C10.2239 1 10 1.22386 10 1.5V2H6V1.5ZM8 11.5C8 12.0368 8.12085 12.5454 8.33682 13H5C3.89543 13 3 12.1046 3 11V7H13V8.33682C12.5454 8.12085 12.0368 8 11.5 8C9.567 8 8 9.567 8 11.5ZM10 3.5V3H6V3.5C6 3.77614 5.77614 4 5.5 4C5.22386 4 5 3.77614 5 3.5V3C3.89543 3 3 3.89543 3 5V6H13V5C13 3.89543 12.1046 3 11 3V3.5C11 3.77614 10.7761 4 10.5 4C10.2239 4 10 3.77614 10 3.5ZM14 11.5C14 12.8807 12.8807 14 11.5 14C10.1193 14 9 12.8807 9 11.5C9 10.1193 10.1193 9 11.5 9C12.8807 9 14 10.1193 14 11.5Z" />
</svg>
