<svg width="16" height="16" viewBox="0 0 16 16"  xmlns="http://www.w3.org/2000/svg">
<path fill-rule="evenodd" clip-rule="evenodd" d="M5.5 1C5.77614 1 6 1.22386 6 1.5V2H10V1.5C10 1.22386 10.2239 1 10.5 1C10.7761 1 11 1.22386 11 1.5V2C12.6569 2 14 3.34315 14 5V11C14 12.6569 12.6569 14 11 14H5C3.34315 14 2 12.6569 2 11V5C2 3.34315 3.34315 2 5 2V1.5C5 1.22386 5.22386 1 5.5 1ZM10 3V3.5C10 3.77614 10.2239 4 10.5 4C10.7761 4 11 3.77614 11 3.5V3C12.1046 3 13 3.89543 13 5V6H3V5C3 3.89543 3.89543 3 5 3V3.5C5 3.77614 5.22386 4 5.5 4C5.77614 4 6 3.77614 6 3.5V3H10ZM3 7V11C3 12.1046 3.89543 13 5 13H11C12.1046 13 13 12.1046 13 11V7H3Z" />
<path d="M6 8.5C6 8.77614 5.77614 9 5.5 9C5.22386 9 5 8.77614 5 8.5C5 8.22386 5.22386 8 5.5 8C5.77614 8 6 8.22386 6 8.5Z" />
<path d="M8.5 8.5C8.5 8.77614 8.27614 9 8 9C7.72386 9 7.5 8.77614 7.5 8.5C7.5 8.22386 7.72386 8 8 8C8.27614 8 8.5 8.22386 8.5 8.5Z" />
<path d="M11 8.5C11 8.77614 10.7761 9 10.5 9C10.2239 9 10 8.77614 10 8.5C10 8.22386 10.2239 8 10.5 8C10.7761 8 11 8.22386 11 8.5Z" />
<path d="M11 10.5C11 10.7761 10.7761 11 10.5 11C10.2239 11 10 10.7761 10 10.5C10 10.2239 10.2239 10 10.5 10C10.7761 10 11 10.2239 11 10.5Z" />
<path d="M8.5 10.5C8.5 10.7761 8.27614 11 8 11C7.72386 11 7.5 10.7761 7.5 10.5C7.5 10.2239 7.72386 10 8 10C8.27614 10 8.5 10.2239 8.5 10.5Z" />
<path d="M6 10.5C6 10.7761 5.77614 11 5.5 11C5.22386 11 5 10.7761 5 10.5C5 10.2239 5.22386 10 5.5 10C5.77614 10 6 10.2239 6 10.5Z" />
</svg>
