<svg width="16" height="16" viewBox="0 0 16 16"  xmlns="http://www.w3.org/2000/svg">
<path d="M4 4C4.55228 4 5 3.55228 5 3C5 2.44772 4.55228 2 4 2C3.44772 2 3 2.44772 3 3C3 3.55228 3.44772 4 4 4Z" />
<path d="M12.5 3C12.7761 3 13 2.77614 13 2.5C13 2.22386 12.7761 2 12.5 2H7.5C7.22386 2 7 2.22386 7 2.5C7 2.77614 7.22386 3 7.5 3H12.5Z" />
<path d="M5 8C5 8.55229 4.55228 9 4 9C3.44772 9 3 8.55229 3 8C3 7.44772 3.44772 7 4 7C4.55228 7 5 7.44772 5 8Z" />
<path d="M13 7.5C13 7.77614 12.7761 8 12.5 8H7.5C7.22386 8 7 7.77614 7 7.5C7 7.22386 7.22386 7 7.5 7H12.5C12.7761 7 13 7.22386 13 7.5Z" />
<path d="M5 13C5 13.5523 4.55228 14 4 14C3.44772 14 3 13.5523 3 13C3 12.4477 3.44772 12 4 12C4.55228 12 5 12.4477 5 13Z" />
<path d="M12.5 13C12.7761 13 13 12.7761 13 12.5C13 12.2239 12.7761 12 12.5 12H7.5C7.22386 12 7 12.2239 7 12.5C7 12.7761 7.22386 13 7.5 13H12.5Z" />
<path fill-rule="evenodd" clip-rule="evenodd" d="M1 4C1 4.59735 1.26188 5.13353 1.67709 5.5C1.26188 5.86647 1 6.40265 1 7V9C1 9.59735 1.26188 10.1335 1.67709 10.5C1.26188 10.8665 1 11.4027 1 12V14C1 15.1046 1.89543 16 3 16H13C14.1046 16 15 15.1046 15 14V12C15 11.4027 14.7381 10.8665 14.3229 10.5C14.7381 10.1335 15 9.59735 15 9V7C15 6.40265 14.7381 5.86647 14.3229 5.5C14.7381 5.13353 15 4.59735 15 4V2C15 0.895431 14.1046 0 13 0H3C1.89543 0 1 0.89543 1 2V4ZM13 1H3C2.44772 1 2 1.44772 2 2V4C2 4.55228 2.44772 5 3 5H13C13.5523 5 14 4.55228 14 4V2C14 1.44772 13.5523 1 13 1ZM13 10C13.5523 10 14 9.55228 14 9V7C14 6.44772 13.5523 6 13 6H3C2.44772 6 2 6.44772 2 7V9C2 9.55228 2.44772 10 3 10H13ZM3 11C2.44772 11 2 11.4477 2 12V14C2 14.5523 2.44772 15 3 15H13C13.5523 15 14 14.5523 14 14V12C14 11.4477 13.5523 11 13 11H3Z" />
</svg>
