<svg width="16" height="16" viewBox="0 0 16 16"  xmlns="http://www.w3.org/2000/svg">
<path d="M4 4.5C4 4.77614 3.77614 5 3.5 5C3.22386 5 3 4.77614 3 4.5C3 4.22386 3.22386 4 3.5 4C3.77614 4 4 4.22386 4 4.5Z" />
<path d="M10.5 4C10.2239 4 10 4.22386 10 4.5C10 4.77614 10.2239 5 10.5 5H12.5C12.7761 5 13 4.77614 13 4.5C13 4.22386 12.7761 4 12.5 4H10.5Z" />
<path d="M3.5 9C3.77614 9 4 8.77614 4 8.5C4 8.22386 3.77614 8 3.5 8C3.22386 8 3 8.22386 3 8.5C3 8.77614 3.22386 9 3.5 9Z" />
<path d="M10 8.5C10 8.22386 10.2239 8 10.5 8H12.5C12.7761 8 13 8.22386 13 8.5C13 8.77614 12.7761 9 12.5 9H10.5C10.2239 9 10 8.77614 10 8.5Z" />
<path d="M4 12.5C4 12.7761 3.77614 13 3.5 13C3.22386 13 3 12.7761 3 12.5C3 12.2239 3.22386 12 3.5 12C3.77614 12 4 12.2239 4 12.5Z" />
<path d="M10.5 12C10.2239 12 10 12.2239 10 12.5C10 12.7761 10.2239 13 10.5 13H12.5C12.7761 13 13 12.7761 13 12.5C13 12.2239 12.7761 12 12.5 12H10.5Z" />
<path fill-rule="evenodd" clip-rule="evenodd" d="M1 5C1 5.59735 1.26188 6.13353 1.67709 6.5C1.26188 6.86647 1 7.40265 1 8V9C1 9.59735 1.26188 10.1335 1.67709 10.5C1.26188 10.8665 1 11.4027 1 12V13C1 14.1046 1.89543 15 3 15H13C14.1046 15 15 14.1046 15 13V12C15 11.4027 14.7381 10.8665 14.3229 10.5C14.7381 10.1335 15 9.59735 15 9V8C15 7.40265 14.7381 6.86647 14.3229 6.5C14.7381 6.13353 15 5.59735 15 5V4C15 2.89543 14.1046 2 13 2H3C1.89543 2 1 2.89543 1 4V5ZM13 3H3C2.44772 3 2 3.44772 2 4V5C2 5.55228 2.44772 6 3 6H13C13.5523 6 14 5.55228 14 5V4C14 3.44772 13.5523 3 13 3ZM13 10C13.5523 10 14 9.55228 14 9V8C14 7.44772 13.5523 7 13 7H3C2.44772 7 2 7.44772 2 8V9C2 9.55228 2.44772 10 3 10H13ZM3 11C2.44772 11 2 11.4477 2 12V13C2 13.5523 2.44772 14 3 14H13C13.5523 14 14 13.5523 14 13V12C14 11.4477 13.5523 11 13 11H3Z" />
</svg>
