<svg width="16" height="16" viewBox="0 0 16 16"  xmlns="http://www.w3.org/2000/svg">
<path d="M10.8536 1.14645C10.6583 0.951184 10.3417 0.951184 10.1464 1.14645C9.95118 1.34171 9.95118 1.65829 10.1464 1.85355L11.7929 3.5L10.1464 5.14645C9.95118 5.34171 9.95118 5.65829 10.1464 5.85355C10.3417 6.04882 10.6583 6.04882 10.8536 5.85355L12.5 4.20711L14.1464 5.85355C14.3417 6.04882 14.6583 6.04882 14.8536 5.85355C15.0488 5.65829 15.0488 5.34171 14.8536 5.14645L13.2071 3.5L14.8536 1.85355C15.0488 1.65829 15.0488 1.34171 14.8536 1.14645C14.6583 0.951184 14.3417 0.951184 14.1464 1.14645L12.5 2.79289L10.8536 1.14645Z" />
<path d="M2.5 3H9V4H2.5C2.22386 4 2 4.22386 2 4.5V6.5C2 6.77614 2.22386 7 2.5 7H13V8H2.5C1.67157 8 1 7.32843 1 6.5V4.5C1 3.67157 1.67157 3 2.5 3Z" />
<path fill-rule="evenodd" clip-rule="evenodd" d="M1 11.5C1 10.6716 1.67157 10 2.5 10H11.5C12.3284 10 13 10.6716 13 11.5V13.5C13 14.3284 12.3284 15 11.5 15H2.5C1.67157 15 1 14.3284 1 13.5V11.5ZM2.5 11H11.5C11.7761 11 12 11.2239 12 11.5V13.5C12 13.7761 11.7761 14 11.5 14H2.5C2.22386 14 2 13.7761 2 13.5V11.5C2 11.2239 2.22386 11 2.5 11Z" />
</svg>
