<svg width="24" height="24" viewBox="0 0 24 24"  xmlns="http://www.w3.org/2000/svg">
<path fill-rule="evenodd" clip-rule="evenodd" d="M3 4C3 3.44772 3.44772 3 4 3H20C20.5523 3 21 3.44772 21 4C21 4.55228 20.5523 5 20 5H4C3.44772 5 3 4.55228 3 4Z" />
<path fill-rule="evenodd" clip-rule="evenodd" d="M3 9.33333C3 8.78105 3.44772 8.33333 4 8.33333H20C20.5523 8.33333 21 8.78105 21 9.33333C21 9.88562 20.5523 10.3333 20 10.3333H4C3.44772 10.3333 3 9.88562 3 9.33333Z" />
<path fill-rule="evenodd" clip-rule="evenodd" d="M3 14.6667C3 14.1144 3.44772 13.6667 4 13.6667H20C20.5523 13.6667 21 14.1144 21 14.6667C21 15.219 20.5523 15.6667 20 15.6667H4C3.44772 15.6667 3 15.219 3 14.6667Z" />
<path fill-rule="evenodd" clip-rule="evenodd" d="M3 20C3 19.4477 3.44772 19 4 19H20C20.5523 19 21 19.4477 21 20C21 20.5523 20.5523 21 20 21H4C3.44772 21 3 20.5523 3 20Z" />
</svg>
