<svg width="16" height="16" viewBox="0 0 16 16"  xmlns="http://www.w3.org/2000/svg">
<path d="M4.14626 14.3535C4.34152 14.5488 4.65811 14.5488 4.85337 14.3535L7.68179 11.5251C7.87706 11.3298 7.87706 11.0133 7.68179 10.818C7.48653 10.6227 7.16995 10.6227 6.97469 10.818L4.99981 12.7929V1.49994C4.99981 1.2238 4.77596 0.999939 4.49981 0.999939C4.22367 0.999939 3.99981 1.2238 3.99981 1.49994V12.7929L2.02494 10.818C1.82968 10.6227 1.5131 10.6227 1.31783 10.818C1.12257 11.0133 1.12257 11.3298 1.31783 11.5251L4.14626 14.3535Z" />
<path fill-rule="evenodd" clip-rule="evenodd" d="M14.9998 8.49999C14.9998 8.77613 14.7759 8.99999 14.4998 8.99999L7.4998 8.99998C7.22366 8.99998 6.9998 8.77613 6.9998 8.49999C6.9998 8.22384 7.22366 7.99999 7.4998 7.99999L14.4998 7.99999C14.7759 7.99999 14.9998 8.22384 14.9998 8.49999Z" />
<path fill-rule="evenodd" clip-rule="evenodd" d="M12.9998 5.49999C12.9998 5.77613 12.7759 5.99999 12.4998 5.99999L7.4998 5.99999C7.22366 5.99999 6.9998 5.77613 6.9998 5.49999C6.9998 5.22384 7.22366 4.99999 7.4998 4.99999L12.4998 4.99999C12.7759 4.99999 12.9998 5.22384 12.9998 5.49999Z" />
<path fill-rule="evenodd" clip-rule="evenodd" d="M10.9998 2.49999C10.9998 2.77613 10.7759 2.99999 10.4998 2.99999L7.4998 2.99999C7.22366 2.99999 6.9998 2.77613 6.9998 2.49999C6.9998 2.22384 7.22366 1.99999 7.4998 1.99999L10.4998 1.99999C10.7759 1.99999 10.9998 2.22384 10.9998 2.49999Z" />
</svg>
