<svg width="16" height="16" viewBox="0 0 16 16"  xmlns="http://www.w3.org/2000/svg">
<path fill-rule="evenodd" clip-rule="evenodd" d="M7.5 13C8.32843 13 9 12.3284 9 11.5C9 10.6716 8.32843 10 7.5 10C6.67157 10 6 10.6716 6 11.5C6 12.3284 6.67157 13 7.5 13ZM7.5 12C7.77614 12 8 11.7761 8 11.5C8 11.2239 7.77614 11 7.5 11C7.22386 11 7 11.2239 7 11.5C7 11.7761 7.22386 12 7.5 12Z" />
<path d="M6.5 3C6.22386 3 6 3.22386 6 3.5C6 3.77614 6.22386 4 6.5 4H8.5C8.77614 4 9 3.77614 9 3.5C9 3.22386 8.77614 3 8.5 3H6.5Z" />
<path d="M4 6.5C4 6.22386 4.22386 6 4.5 6H9.5C9.77614 6 10 6.22386 10 6.5C10 6.77614 9.77614 7 9.5 7H4.5C4.22386 7 4 6.77614 4 6.5Z" />
<path d="M4.5 8C4.22386 8 4 8.22386 4 8.5C4 8.77614 4.22386 9 4.5 9H8.5C8.77614 9 9 8.77614 9 8.5C9 8.22386 8.77614 8 8.5 8L4.5 8Z" />
<path fill-rule="evenodd" clip-rule="evenodd" d="M5 1C3.34315 1 2 2.34315 2 4V12C2 13.6569 3.34315 15 5 15H10C11.6569 15 13 13.6569 13 12V4C13 2.34315 11.6569 1 10 1H5ZM10 2H5C3.89543 2 3 2.89543 3 4V12C3 13.1046 3.89543 14 5 14H10C11.1046 14 12 13.1046 12 12V4C12 2.89543 11.1046 2 10 2Z" />
</svg>
