<svg width="16" height="16" viewBox="0 0 16 16"  xmlns="http://www.w3.org/2000/svg">
<path fill-rule="evenodd" clip-rule="evenodd" d="M12 2H4C2.89543 2 2 2.89543 2 4V12C2 13.1046 2.89543 14 4 14H12C13.1046 14 14 13.1046 14 12V4C14 2.89543 13.1046 2 12 2ZM4 1C2.34315 1 1 2.34315 1 4V12C1 13.6569 2.34315 15 4 15H12C13.6569 15 15 13.6569 15 12V4C15 2.34315 13.6569 1 12 1H4Z" />
<path fill-rule="evenodd" clip-rule="evenodd" d="M11 5H5C4.44772 5 4 5.44772 4 6V10C4 10.5523 4.44772 11 5 11H11C11.5523 11 12 10.5523 12 10V6C12 5.44772 11.5523 5 11 5ZM5 4C3.89543 4 3 4.89543 3 6V10C3 11.1046 3.89543 12 5 12H11C12.1046 12 13 11.1046 13 10V6C13 4.89543 12.1046 4 11 4H5Z" />
<path fill-rule="evenodd" clip-rule="evenodd" d="M11 9.5C11 9.77614 10.7761 10 10.5 10H9.5C9.22386 10 9 9.77614 9 9.5C9 9.22386 9.22386 9 9.5 9H10.5C10.7761 9 11 9.22386 11 9.5Z" />
<path fill-rule="evenodd" clip-rule="evenodd" d="M8 9.5C8 9.77614 7.77614 10 7.5 10H6.5C6.22386 10 6 9.77614 6 9.5C6 9.22386 6.22386 9 6.5 9H7.5C7.77614 9 8 9.22386 8 9.5Z" />
</svg>
