<svg width="16" height="16" viewBox="0 0 16 16"  xmlns="http://www.w3.org/2000/svg">
<path fill-rule="evenodd" clip-rule="evenodd" d="M13.5 3H2.5C2.22386 3 2 3.22386 2 3.5V4.5C2 4.77614 2.22386 5 2.5 5H13.5C13.7761 5 14 4.77614 14 4.5V3.5C14 3.22386 13.7761 3 13.5 3ZM2.5 2C1.67157 2 1 2.67157 1 3.5V4.5C1 5.32843 1.67157 6 2.5 6H13.5C14.3284 6 15 5.32843 15 4.5V3.5C15 2.67157 14.3284 2 13.5 2H2.5Z" />
<path fill-rule="evenodd" clip-rule="evenodd" d="M13.5 10H2.5C2.22386 10 2 10.2239 2 10.5V11.5C2 11.7761 2.22386 12 2.5 12H13.5C13.7761 12 14 11.7761 14 11.5V10.5C14 10.2239 13.7761 10 13.5 10ZM2.5 9C1.67157 9 1 9.67157 1 10.5V11.5C1 12.3284 1.67157 13 2.5 13H13.5C14.3284 13 15 12.3284 15 11.5V10.5C15 9.67157 14.3284 9 13.5 9H2.5Z" />
<path fill-rule="evenodd" clip-rule="evenodd" d="M1 7.5C1 7.22386 1.22386 7 1.5 7H2.5C2.77614 7 3 7.22386 3 7.5C3 7.77614 2.77614 8 2.5 8H1.5C1.22386 8 1 7.77614 1 7.5Z" />
<path fill-rule="evenodd" clip-rule="evenodd" d="M4 7.5C4 7.22386 4.22386 7 4.5 7H5.5C5.77614 7 6 7.22386 6 7.5C6 7.77614 5.77614 8 5.5 8H4.5C4.22386 8 4 7.77614 4 7.5Z" />
<path fill-rule="evenodd" clip-rule="evenodd" d="M7 7.5C7 7.22386 7.22386 7 7.5 7H8.5C8.77614 7 9 7.22386 9 7.5C9 7.77614 8.77614 8 8.5 8H7.5C7.22386 8 7 7.77614 7 7.5Z" />
<path fill-rule="evenodd" clip-rule="evenodd" d="M10 7.5C10 7.22386 10.2239 7 10.5 7H11.5C11.7761 7 12 7.22386 12 7.5C12 7.77614 11.7761 8 11.5 8H10.5C10.2239 8 10 7.77614 10 7.5Z" />
<path fill-rule="evenodd" clip-rule="evenodd" d="M13 7.5C13 7.22386 13.2239 7 13.5 7H14.5C14.7761 7 15 7.22386 15 7.5C15 7.77614 14.7761 8 14.5 8H13.5C13.2239 8 13 7.77614 13 7.5Z" />
</svg>
