<svg width="16" height="16" viewBox="0 0 16 16"  xmlns="http://www.w3.org/2000/svg">
<path d="M5.85353 9.14569L7 10.292L7 1.5C7 1.22386 7.22386 1 7.5 1C7.77614 1 8 1.22386 8 1.5V10.2923L9.14642 9.14574C9.34167 8.95046 9.65825 8.95044 9.85353 9.14569C10.0488 9.34093 10.0488 9.65752 9.85358 9.85279L7.85389 11.8528C7.76013 11.9466 7.63295 11.9993 7.50035 11.9993C7.36774 11.9993 7.24056 11.9466 7.14678 11.8528L5.14647 9.85285C4.9512 9.6576 4.95117 9.34102 5.14642 9.14574C5.34167 8.95046 5.65825 8.95044 5.85353 9.14569Z" />
<path d="M1 9.99976C1 7.79062 2.79086 5.99976 5 5.99976H5.5C5.77614 5.99976 6 6.22361 6 6.49976C6 6.7759 5.77614 6.99976 5.5 6.99976H5C3.34315 6.99976 2 8.3429 2 9.99976V10.9998C2 12.6566 3.34315 13.9998 5 13.9998H11C12.6569 13.9998 14 12.6566 14 10.9998V9.99975C14 8.3429 12.6569 6.99976 11 6.99976H10.5C10.2239 6.99976 10 6.7759 10 6.49976C10 6.22361 10.2239 5.99976 10.5 5.99976H11C13.2091 5.99976 15 7.79062 15 9.99975V10.9998C15 13.2089 13.2091 14.9998 11 14.9998H5C2.79086 14.9998 1 13.2089 1 10.9998V9.99976Z" />
</svg>
