<svg width="24" height="24" viewBox="0 0 24 24" xmlns="http://www.w3.org/2000/svg">
<path d="M7.5 6.74976C7.08579 6.74976 6.75 7.08554 6.75 7.49976C6.75 7.91397 7.08579 8.24976 7.5 8.24976H10.5C10.9142 8.24976 11.25 7.91397 11.25 7.49976C11.25 7.08554 10.9142 6.74976 10.5 6.74976H7.5Z" />
<path d="M6.75 11.9998C6.75 11.5855 7.08579 11.2498 7.5 11.2498H10.5C10.9142 11.2498 11.25 11.5855 11.25 11.9998C11.25 12.414 10.9142 12.7498 10.5 12.7498H7.5C7.08579 12.7498 6.75 12.414 6.75 11.9998Z"/>
<path d="M7.5 15.7498C7.08579 15.7498 6.75 16.0855 6.75 16.4998C6.75 16.914 7.08579 17.2498 7.5 17.2498H10.5C10.9142 17.2498 11.25 16.914 11.25 16.4998C11.25 16.0855 10.9142 15.7498 10.5 15.7498H7.5Z"/>
<path fill-rule="evenodd" clip-rule="evenodd" d="M4.89688 2.45517C5.83871 1.47566 7.3139 1.25 9.1875 1.25H14.8125C16.6861 1.25 18.1613 1.47566 19.1031 2.45517C20.035 3.4243 20.25 4.9339 20.25 6.875V16.625C20.25 18.5661 20.035 20.0757 19.1031 21.0448C18.1613 22.0243 16.6861 22.25 14.8125 22.25H9.1875C7.3139 22.25 5.83871 22.0243 4.89688 21.0448C3.96502 20.0757 3.75 18.5661 3.75 16.625V6.875C3.75 4.9339 3.96502 3.4243 4.89688 2.45517ZM5.97812 3.49483C5.50373 3.9882 5.25 4.9161 5.25 6.875V16.625C5.25 18.5839 5.50373 19.5118 5.97812 20.0052C6.44254 20.4882 7.3111 20.75 9.1875 20.75H14.25V2.75H9.1875C7.3111 2.75 6.44254 3.01184 5.97812 3.49483ZM18.0219 20.0052C17.6429 20.3993 16.995 20.6461 15.75 20.7236V2.77636C16.995 2.85389 17.6429 3.10075 18.0219 3.49483C18.4963 3.9882 18.75 4.9161 18.75 6.875V16.625C18.75 18.5839 18.4963 19.5118 18.0219 20.0052Z"/>
</svg>
