<svg width="16" height="16" viewBox="0 0 16 16"  xmlns="http://www.w3.org/2000/svg">
<path d="M3 7.5C3 7.22386 3.22386 7 3.5 7H7.5C7.77614 7 8 7.22386 8 7.5C8 7.77614 7.77614 8 7.5 8H3.5C3.22386 8 3 7.77614 3 7.5Z" />
<path d="M10.3536 6.64645C10.1583 6.45118 9.84171 6.45118 9.64645 6.64645C9.45119 6.84171 9.45118 7.15829 9.64645 7.35355L10.6464 8.35356C10.7402 8.44732 10.8674 8.5 11 8.5C11.1326 8.5 11.2598 8.44732 11.3536 8.35356L12.3536 7.35356C12.5488 7.15829 12.5488 6.84171 12.3536 6.64645C12.1583 6.45119 11.8417 6.45119 11.6464 6.64645L11 7.2929L10.3536 6.64645Z" />
<path fill-rule="evenodd" clip-rule="evenodd" d="M3 4C1.89543 4 1 4.89543 1 6V9C1 10.1046 1.89543 11 3 11H13C14.1046 11 15 10.1046 15 9V6C15 4.89543 14.1046 4 13 4H3ZM13 5H3C2.44772 5 2 5.44772 2 6V9C2 9.55228 2.44772 10 3 10H13C13.5523 10 14 9.55228 14 9V6C14 5.44772 13.5523 5 13 5Z" />
</svg>
