<svg width="16" height="16" viewBox="0 0 16 16"  xmlns="http://www.w3.org/2000/svg">
<path fill-rule="evenodd" clip-rule="evenodd" d="M8.04638 1.97674C6.52689 1.97674 5.29509 3.21577 5.29509 4.74419C5.29509 6.2726 6.52689 7.51163 8.04638 7.51163C9.56588 7.51163 10.7977 6.2726 10.7977 4.74419C10.7977 3.21577 9.56588 1.97674 8.04638 1.97674ZM4.32405 4.74419C4.32405 2.67633 5.99059 1 8.04638 1C10.1022 1 11.7687 2.67633 11.7687 4.74419C11.7687 6.81204 10.1022 8.48837 8.04638 8.48837C5.99059 8.48837 4.32405 6.81204 4.32405 4.74419Z" />
<path fill-rule="evenodd" clip-rule="evenodd" d="M14.4878 10.0835C14.136 9.7296 13.7409 9.53562 13.3116 9.58C12.9088 9.62162 12.5956 9.86364 12.3705 10.09C12.3655 10.0951 12.3606 10.1002 12.3558 10.1055L12.0543 10.4087C12.0452 10.4172 12.0364 10.4261 12.028 10.4352L10.091 12.3836L10.0791 12.3952C9.98692 12.4879 9.91555 12.6001 9.86533 12.6999C9.81511 12.7998 9.76839 12.9224 9.74859 13.0485L9.62439 13.9357L9.62338 13.9433C9.58524 14.2283 9.66102 14.5211 9.87195 14.7332C10.085 14.9476 10.3799 15.0232 10.6659 14.9821L10.667 14.9819L11.5389 14.8585L11.547 14.8573C11.6704 14.8377 11.793 14.7916 11.8939 14.7409C11.9921 14.6915 12.1122 14.6164 12.2083 14.5126L14.0907 12.6192C14.1434 12.5838 14.1894 12.538 14.2253 12.4837L14.4838 12.2238L14.4878 12.2198C14.7128 11.9934 14.9542 11.6776 14.9942 11.2705C15.0368 10.8377 14.8416 10.4394 14.4878 10.0835ZM13.6879 11.643L13.8011 11.5291L13.8047 11.5255C13.9717 11.3567 14.0211 11.2438 14.0279 11.1743C14.0322 11.1302 14.03 11.0043 13.8012 10.7742C13.5769 10.5485 13.454 10.5472 13.4108 10.5516C13.3429 10.5586 13.2331 10.6071 13.0709 10.767C13.0666 10.7717 13.0622 10.7762 13.0578 10.7807L12.9465 10.8927C13.101 11.221 13.3626 11.4856 13.6879 11.643ZM12.2343 11.609L10.7661 13.0858L10.7647 13.0872C10.763 13.0893 10.7602 13.093 10.7566 13.0983C10.7489 13.1096 10.7402 13.1242 10.7318 13.1409C10.7234 13.1576 10.7169 13.1733 10.7124 13.1862C10.7096 13.1943 10.7082 13.1993 10.7078 13.2013L10.5952 14.0057L11.3955 13.8924C11.3976 13.8919 11.4035 13.8904 11.4131 13.8871C11.4269 13.8823 11.4432 13.8755 11.4597 13.8672C11.4763 13.8589 11.4895 13.8508 11.4984 13.8447L11.5016 13.8423L11.5095 13.8342L12.9766 12.3584C12.6801 12.1633 12.4272 11.9081 12.2343 11.609Z" />
<path fill-rule="evenodd" clip-rule="evenodd" d="M8.04638 10.4419C5.14806 10.4419 2.97104 12.3503 2.97104 14.5116C2.97104 14.7813 2.75367 15 2.48552 15C2.21738 15 2 14.7813 2 14.5116C2 11.6329 4.80771 9.46512 8.04638 9.46512C8.7663 9.46512 9.46084 9.56955 10.109 9.76585C10.3658 9.8436 10.5112 10.116 10.4339 10.3743C10.3566 10.6325 10.0858 10.7789 9.82906 10.7011C9.27313 10.5328 8.67299 10.4419 8.04638 10.4419Z" />
</svg>
