<svg width="16" height="16" viewBox="0 0 16 16" xmlns="http://www.w3.org/2000/svg">
<path fill-rule="evenodd" clip-rule="evenodd" d="M1 5.5C1 3.01472 3.01472 1 5.5 1H7.5C7.77614 1 8 1.22386 8 1.5C8 1.77614 7.77614 2 7.5 2H5.5C3.567 2 2 3.567 2 5.5V10.5C2 12.433 3.567 14 5.5 14H10.5C12.433 14 14 12.433 14 10.5V7.5C14 7.22386 14.2239 7 14.5 7C14.7761 7 15 7.22386 15 7.5V10.5C15 12.9853 12.9853 15 10.5 15H5.5C3.01472 15 1 12.9853 1 10.5V5.5Z" />
<path fill-rule="evenodd" clip-rule="evenodd" d="M14.018 1.98212C13.2959 1.25993 12.5689 0.937874 11.8357 1.00986C11.1284 1.0793 10.5421 1.50594 10.066 1.98212L4.87629 7.17251C4.72897 7.31985 4.60196 7.51488 4.50762 7.70259C4.41348 7.88991 4.33135 8.11142 4.30169 8.32301L4.01899 10.3022L4.01884 10.3032C3.94697 10.7948 4.08145 11.2626 4.41022 11.5901C4.73829 11.9169 5.20591 12.0503 5.69464 11.9831L5.69716 11.9827L7.67953 11.6995C7.88834 11.6696 8.10738 11.5872 8.29333 11.4937C8.48039 11.3997 8.67425 11.2743 8.82256 11.1307L14.018 5.93463C14.4941 5.45845 14.9207 4.87215 14.9901 4.16472C15.0621 3.43138 14.7401 2.70432 14.018 1.98212ZM10.7646 2.68076C11.1841 2.26113 11.566 2.0291 11.9322 1.99315C12.2725 1.95975 12.7244 2.0856 13.3195 2.68076C13.9145 3.27592 14.0404 3.72789 14.007 4.0682C13.971 4.43442 13.739 4.81637 13.3195 5.236L12.5143 6.04128C11.2984 5.64611 10.3485 4.69559 9.95862 3.48679L10.7646 2.68076ZM9.23618 4.20932L5.57483 7.87114C5.52457 7.92141 5.45401 8.01949 5.39029 8.1463C5.32649 8.27324 5.29005 8.38818 5.2801 8.45955L5.27987 8.46115L4.99668 10.4438L4.9964 10.4457C4.96324 10.6716 5.02967 10.8127 5.10735 10.89C5.18582 10.9682 5.33034 11.0356 5.55879 11.0044L5.55997 11.0043L7.53982 10.7214C7.60761 10.7117 7.72117 10.6756 7.84969 10.611C7.97531 10.5478 8.07676 10.4768 8.13312 10.423L11.7923 6.76333C10.6452 6.26718 9.73018 5.35338 9.23618 4.20932Z" />
</svg>
