<svg width="16" height="16" viewBox="0 0 16 16"  xmlns="http://www.w3.org/2000/svg">
<path fill-rule="evenodd" clip-rule="evenodd" d="M1 8.00007C1 4.13589 4.13586 1 8 1C11.8641 1 15 4.13589 15 8.00007C15 8.26979 14.7813 8.48845 14.5116 8.48845C14.2419 8.48845 14.0233 8.26979 14.0233 8.00007C14.0233 7.49475 13.9609 7.00389 13.8435 6.53478C13.7977 6.53318 13.7514 6.52506 13.7057 6.50981C12.9073 6.24321 12.0948 6.03412 11.2742 5.8825C11.3532 6.58604 11.3928 7.29301 11.3928 8.00004C11.3928 8.26977 11.1742 8.48842 10.9044 8.48842C10.6347 8.48842 10.4161 8.26977 10.4161 8.00004C10.4161 7.24067 10.3678 6.48121 10.2717 5.72635C8.76294 5.53465 7.23553 5.5347 5.72673 5.72652C5.53488 7.23536 5.5348 8.76281 5.72648 10.2717C6.48122 10.3677 7.24054 10.416 7.99979 10.416C8.26951 10.416 8.48816 10.6346 8.48816 10.9043C8.48816 11.1741 8.26951 11.3927 7.99979 11.3927C7.29288 11.3927 6.58603 11.3531 5.88262 11.2741C6.03423 12.0948 6.24335 12.9074 6.50997 13.7059C6.525 13.751 6.53321 13.7973 6.53482 13.8437C7.0039 13.9611 7.49472 14.0234 8 14.0234C8.26972 14.0234 8.48837 14.242 8.48837 14.5118C8.48837 14.7815 8.26972 15.0001 8 15.0001C4.13586 15.0001 1 11.8642 1 8.00007ZM5.88298 4.72414C7.28931 4.56648 8.70914 4.56643 10.1155 4.72398C9.96397 3.90382 9.75541 3.09162 9.49028 2.29348C9.4752 2.24809 9.46715 2.20206 9.46554 2.15656C8.99635 2.03912 8.50541 1.97675 8 1.97675C7.49472 1.97675 7.0039 2.03908 6.53482 2.15647C6.53322 2.20281 6.52501 2.2492 6.50997 2.29424C6.24356 3.0921 6.03456 3.9041 5.88298 4.72414ZM11.1321 4.86579C11.907 4.99531 12.6758 5.17324 13.4338 5.39957C12.8403 4.16264 11.8368 3.15926 10.5999 2.5659C10.8251 3.32327 11.0026 4.09143 11.1321 4.86579ZM4.86627 4.86603C4.09192 4.99552 3.32371 5.17335 2.56621 5.39951C3.1428 4.19783 4.10635 3.21658 5.29504 2.61759C5.32304 2.62345 5.35193 2.62691 5.38146 2.62774C5.16399 3.36522 4.99226 4.11272 4.86627 4.86603ZM2.15648 6.53478C2.20222 6.53316 2.24851 6.52504 2.29413 6.50981C3.0921 6.24336 3.90421 6.03434 4.72436 5.88274C4.56667 7.28913 4.5666 8.70902 4.72414 10.1154C3.90385 9.96391 3.09154 9.75532 2.29328 9.49015C2.24856 9.47529 2.20252 9.46716 2.15653 9.46554C2.0391 8.99637 1.97674 8.50546 1.97674 8.00007C1.97674 7.49475 2.03908 7.00389 2.15648 6.53478ZM5.29511 13.3826C4.14092 12.801 3.19899 11.859 2.61744 10.7048C2.6233 10.6767 2.62673 10.6477 2.62752 10.618C3.36497 10.8346 4.11251 11.0061 4.86593 11.1321C4.99194 11.8861 5.16379 12.6343 5.38146 13.3724C5.35195 13.3733 5.32309 13.3767 5.29511 13.3826Z" />
<path fill-rule="evenodd" clip-rule="evenodd" d="M9.12835 12.6154C9.15628 12.4176 9.22589 12.244 9.28809 12.1202C9.35064 11.9958 9.44725 11.8391 9.58496 11.7014L11.6583 9.62768C11.8945 9.39151 12.2947 9.06291 12.8545 9.00795C13.4668 8.94784 13.9808 9.23595 14.3724 9.62768C14.7641 10.0194 15.0521 10.5334 14.992 11.1456C14.9371 11.7053 14.6086 12.1056 14.3724 12.3418L12.2991 14.4155L12.2874 14.427C12.153 14.557 12.0014 14.6505 11.8782 14.7124C11.7573 14.7732 11.5841 14.8437 11.386 14.872L10.589 14.9859C10.1827 15.0418 9.73366 14.9349 9.39991 14.6024C9.06495 14.2688 8.95579 13.817 9.01556 13.4051L9.12835 12.6154ZM10.4526 13.9952C10.1658 14.0347 9.96321 13.8347 10.0053 13.5479L10.1185 12.7558C10.1342 12.6426 10.2132 12.4874 10.2921 12.4084L11.8249 10.8754C12.13 11.4193 12.5804 11.8691 13.1254 12.1747L11.5919 13.7084C11.5104 13.7873 11.3551 13.8663 11.2446 13.8821L10.4526 13.9952ZM13.8496 11.4178C14.0624 11.1101 14.0887 10.7582 13.6653 10.3347C13.2416 9.911 12.8896 9.93759 12.5817 10.1508C12.8227 10.7197 13.2772 11.1745 13.8496 11.4178Z" />
</svg>
