<svg width="16" height="16" viewBox="0 0 16 16"  xmlns="http://www.w3.org/2000/svg">
<path fill-rule="evenodd" clip-rule="evenodd" d="M13.9809 1.49468C13.6396 1.17357 13.2558 0.995073 12.8404 1.04818C12.4513 1.09794 12.1575 1.33871 11.9523 1.55546L11.6177 1.90964C11.6122 1.91521 11.6068 1.9209 11.6015 1.92672L9.89979 3.72796L9.89881 3.72899C9.81141 3.82204 9.74651 3.93399 9.7029 4.02751C9.65895 4.12176 9.61631 4.24069 9.60003 4.36274L9.50646 5.1821L9.5063 5.18362C9.47527 5.46285 9.55817 5.74854 9.77199 5.95132C9.98618 6.15444 10.2771 6.22194 10.5557 6.17406L11.3599 6.03671L11.3633 6.03611C11.486 6.01429 11.6042 5.96575 11.6984 5.91539C11.7902 5.86631 11.8997 5.79388 11.989 5.69721L13.6561 3.93269C13.6861 3.90757 13.7132 3.87894 13.7367 3.84735L14.0392 3.52721C14.2441 3.31062 14.4687 3.00386 14.4961 2.61151C14.5254 2.19269 14.3237 1.81886 13.9818 1.49555L13.9809 1.49468ZM10.6319 4.40922L11.8053 3.16715C11.9705 3.4099 12.1867 3.61416 12.4383 3.76552L11.2595 5.01319L11.2574 5.01471C11.2506 5.01967 11.2401 5.02644 11.2269 5.03352C11.2137 5.04057 11.2013 5.04605 11.1917 5.04965L11.1843 5.05222L10.5147 5.16658L10.5911 4.49774L10.5935 4.48952C10.597 4.47877 10.6023 4.46499 10.6092 4.45016C10.6161 4.43528 10.623 4.42291 10.6285 4.41428L10.6319 4.40922ZM12.5262 2.40411C12.6376 2.68668 12.8693 2.90632 13.1586 3.00312L13.3123 2.84046C13.4622 2.68206 13.4953 2.58733 13.4985 2.54178C13.4999 2.52249 13.5053 2.42145 13.2952 2.22256C13.0867 2.02661 12.9869 2.03759 12.9673 2.04011C12.9214 2.04597 12.8286 2.08445 12.6788 2.24257L12.5262 2.40411Z" />
<path d="M9 3H2.5C1.67157 3 1 3.67157 1 4.5V6.5C1 7.32843 1.67157 8 2.5 8H13V7H2.5C2.22386 7 2 6.77614 2 6.5V4.5C2 4.22386 2.22386 4 2.5 4H9V3Z" />
<path fill-rule="evenodd" clip-rule="evenodd" d="M2.5 10C1.67157 10 1 10.6716 1 11.5V13.5C1 14.3284 1.67157 15 2.5 15H11.5C12.3284 15 13 14.3284 13 13.5V11.5C13 10.6716 12.3284 10 11.5 10H2.5ZM11.5 11H2.5C2.22386 11 2 11.2239 2 11.5V13.5C2 13.7761 2.22386 14 2.5 14H11.5C11.7761 14 12 13.7761 12 13.5V11.5C12 11.2239 11.7761 11 11.5 11Z" />
</svg>
