<svg width="16" height="16" viewBox="0 0 16 16"  xmlns="http://www.w3.org/2000/svg">
<path d="M3 5.5C3 4.11929 4.11929 3 5.5 3H10C10.2761 3 10.5 2.77614 10.5 2.5C10.5 2.22386 10.2761 2 10 2H5.5C3.567 2 2 3.567 2 5.5V10.5C2 12.433 3.567 14 5.5 14H10.5C12.433 14 14 12.433 14 10.5V9C14 8.72386 13.7761 8.5 13.5 8.5C13.2239 8.5 13 8.72386 13 9V10.5C13 11.8807 11.8807 13 10.5 13H5.5C4.11929 13 3 11.8807 3 10.5V5.5Z" />
<path d="M11.6464 3.64645C11.8417 3.45118 12.1583 3.45118 12.3536 3.64645L13.8536 5.14645C14.0488 5.34171 14.0488 5.65829 13.8536 5.85355L12.3536 7.35355C12.1583 7.54882 11.8417 7.54882 11.6464 7.35355C11.4512 7.15829 11.4512 6.84171 11.6464 6.64645L12.2929 6H7C6.44772 6 6 6.44772 6 7V10.5C6 10.7761 5.77614 11 5.5 11C5.22386 11 5 10.7761 5 10.5V7C5 5.89543 5.89543 5 7 5H12.2929L11.6464 4.35355C11.4512 4.15829 11.4512 3.84171 11.6464 3.64645Z" />
</svg>
