<svg width="16" height="16" viewBox="0 0 16 16"  xmlns="http://www.w3.org/2000/svg">
<path fill-rule="evenodd" clip-rule="evenodd" d="M6 2H10C11.1046 2 12 2.89543 12 4V12C12 13.1046 11.1046 14 10 14H6C4.89543 14 4 13.1046 4 12V4C4 2.89543 4.89543 2 6 2ZM10 1C11.6569 1 13 2.34315 13 4V12C13 13.6569 11.6569 15 10 15H6C4.34315 15 3 13.6569 3 12V4C3 2.34315 4.34315 1 6 1H10Z" />
<path d="M10 13C9.44772 13 9 12.5523 9 12C9 11.4477 9.44772 11 10 11C10.5523 11 11 11.4477 11 12C11 12.5523 10.5523 13 10 13Z" />
</svg>
