<svg width="16" height="16" viewBox="0 0 16 16"  xmlns="http://www.w3.org/2000/svg">
<path fill-rule="evenodd" clip-rule="evenodd" d="M10 2H6C4.89543 2 4 2.89543 4 4V12C4 13.1046 4.89543 14 6 14H10C11.1046 14 12 13.1046 12 12V4C12 2.89543 11.1046 2 10 2ZM6 1C4.34315 1 3 2.34315 3 4V12C3 13.6569 4.34315 15 6 15H10C11.6569 15 13 13.6569 13 12V4C13 2.34315 11.6569 1 10 1H6Z" />
<path d="M8 13C8.55228 13 9 12.5523 9 12C9 11.4477 8.55228 11 8 11C7.44772 11 7 11.4477 7 12C7 12.5523 7.44772 13 8 13Z" />
</svg>
