<svg width="16" height="16" viewBox="0 0 16 16"  xmlns="http://www.w3.org/2000/svg">
<path fill-rule="evenodd" clip-rule="evenodd" d="M3.90835 2C3.50502 2 3.26768 2.45299 3.49726 2.7846L6.73307 7.45856C6.90674 7.70942 6.99978 8.00727 6.99978 8.31238V12.365C6.99978 12.7889 7.49421 13.0205 7.81988 12.7491L8.81988 11.9157C8.93387 11.8207 8.99978 11.68 8.99978 11.5316V8.31238C8.99978 8.00727 9.09283 7.70942 9.2665 7.45856L12.5023 2.78461C12.7319 2.45299 12.4945 2 12.0912 2H3.90835ZM2.67506 3.35381C1.98632 2.35897 2.69836 1 3.90835 1H12.0912C13.3012 1 14.0132 2.35897 13.3245 3.35382L10.0887 8.02777C10.0308 8.11139 9.99978 8.21067 9.99978 8.31238V11.5316C9.99978 11.9768 9.80205 12.399 9.46006 12.684L8.46006 13.5173C7.48307 14.3315 5.99978 13.6367 5.99978 12.365V8.31238C5.99978 8.21067 5.96877 8.11139 5.91088 8.02777L2.67506 3.35381Z" />
</svg>
