<svg width="24" height="24" viewBox="0 0 24 24"  xmlns="http://www.w3.org/2000/svg">
<path fill-rule="evenodd" clip-rule="evenodd" d="M5.93877 1.75872C5.93877 1.33969 5.59428 1 5.16933 1C4.74439 1 4.3999 1.33969 4.3999 1.75872V3.78198V15.9215V21.9913C4.3999 22.4103 4.74439 22.75 5.16933 22.75C5.59428 22.75 5.93877 22.4103 5.93877 21.9913V16.6802H16.6595C18.0481 16.6802 19.3501 16.2935 19.8161 15.2214C20.287 14.1379 19.653 12.9446 18.6399 11.9455L17.4088 10.7315C17.3967 10.7196 17.3842 10.7081 17.3714 10.697C16.9226 10.3098 16.8669 9.50631 17.4088 8.97196L18.6399 7.75801C19.1711 7.23411 19.5699 6.69786 19.7942 6.1633C20.0205 5.624 20.0856 5.03985 19.8597 4.49424C19.6335 3.94766 19.1716 3.57573 18.6241 3.34939C18.0823 3.12542 17.4144 3.02326 16.6595 3.02326H5.93877V1.75872ZM5.93877 4.5407V15.1628H16.6595C17.9383 15.1628 18.329 14.7908 18.4017 14.6237C18.4693 14.4679 18.4878 13.9415 17.5517 13.0185L16.3372 11.8208C15.166 10.7885 15.2275 8.97687 16.3206 7.89897L17.5517 6.68501C17.995 6.24786 18.2503 5.87366 18.3723 5.5831C18.4922 5.2973 18.4656 5.14169 18.435 5.06768C18.4047 4.99464 18.3152 4.86708 18.0291 4.74883C17.7374 4.62822 17.2896 4.5407 16.6595 4.5407H5.93877Z" />
</svg>
