<svg width="16" height="16" viewBox="0 0 16 16"  xmlns="http://www.w3.org/2000/svg">
<path fill-rule="evenodd" clip-rule="evenodd" d="M4 1.5C4 1.22386 3.77614 1 3.5 1C3.22386 1 3 1.22386 3 1.5V2.5V10.5V14.5C3 14.7761 3.22386 15 3.5 15C3.77614 15 4 14.7761 4 14.5V11H10.9153C11.3274 11 11.7089 10.9428 12.0286 10.8149C12.3481 10.6871 12.6395 10.4735 12.7986 10.1445C12.9615 9.80753 12.9442 9.4356 12.8102 9.08322C12.6793 8.73873 12.4313 8.39176 12.0896 8.04647L11.2981 7.24647C11.2904 7.23862 11.2823 7.23104 11.2741 7.22373C10.9856 6.96858 10.9497 6.43904 11.2981 6.08691L12.0896 5.28691C12.7478 4.62175 13.165 3.82253 12.9373 3.09153C12.6948 2.31298 11.8633 2 10.9153 2H4V1.5ZM4 3V10H10.9153C11.2453 10 11.4946 9.95305 11.6644 9.88509C11.8344 9.8171 11.8914 9.74317 11.9096 9.70549C11.924 9.67583 11.9475 9.60193 11.8866 9.44181C11.8228 9.27381 11.675 9.04162 11.39 8.75357L10.5539 7.96433C9.80089 7.28404 9.84044 6.09014 10.5433 5.3798L11.39 4.5798C11.9852 3.97829 12.0462 3.56083 11.9935 3.39182C11.9557 3.27037 11.7483 3 10.9153 3H4Z" />
</svg>
