<svg width="24" height="24" viewBox="0 0 24 24"  xmlns="http://www.w3.org/2000/svg">
<path fill-rule="evenodd" clip-rule="evenodd" d="M15.3329 2.00271C15.4853 2.38131 15.5485 2.83427 15.5485 3.3237V9.92301H17.88C18.6712 9.92301 19.5247 10.1716 19.8687 10.9539C20.213 11.7366 19.8292 12.5569 19.3069 13.1628C19.3067 13.163 19.3065 13.1633 19.3062 13.1636L11.7653 21.9609C11.4504 22.3279 11.1114 22.6251 10.7539 22.8062C10.3931 22.9889 9.95514 23.079 9.52068 22.9115C9.0858 22.7439 8.81389 22.3796 8.66006 21.9973C8.50771 21.6187 8.44447 21.1657 8.44447 20.6763V14.077H6.11299C5.32736 14.077 4.47661 13.8314 4.13212 13.0509C3.78838 12.2721 4.16627 11.4521 4.6818 10.8422L4.68522 10.8382L12.2277 2.03909C12.5425 1.67205 12.8815 1.37491 13.2391 1.19381C13.5999 1.0111 14.0378 0.920983 14.4723 1.08848C14.9072 1.25613 15.1791 1.62039 15.3329 2.00271ZM13.3495 3.05312C13.5875 2.77573 13.7767 2.63275 13.9002 2.57023C13.9137 2.56336 13.9257 2.55781 13.9362 2.55333C13.941 2.5634 13.9462 2.57516 13.9517 2.5888C14.0039 2.71858 14.054 2.95368 14.054 3.3237V10.6904C14.054 11.1142 14.3885 11.4577 14.8012 11.4577H17.88C18.1609 11.4577 18.3379 11.5032 18.4348 11.5474C18.471 11.564 18.4919 11.578 18.503 11.5871C18.5022 11.6015 18.4987 11.6262 18.4871 11.6641C18.4556 11.7668 18.3723 11.9317 18.1874 12.146L18.1859 12.1478L10.6437 20.9466C10.4056 21.2242 10.2163 21.3672 10.0928 21.4298C10.0792 21.4366 10.0673 21.4422 10.0568 21.4467C10.052 21.4366 10.0468 21.4248 10.0413 21.4112C9.9891 21.2814 9.93901 21.0463 9.93901 20.6763V13.3096C9.93901 12.8858 9.60444 12.5423 9.19174 12.5423H6.11299C5.83413 12.5423 5.65887 12.4973 5.56321 12.4538C5.52815 12.4378 5.50785 12.4242 5.49691 12.4154C5.49756 12.4008 5.50094 12.3753 5.51272 12.3361C5.54397 12.2322 5.62647 12.0663 5.80893 11.85L13.3495 3.05312C13.3494 3.0532 13.3496 3.05304 13.3495 3.05312Z" />
</svg>
