<svg width="16" height="16" viewBox="0 0 16 16"  xmlns="http://www.w3.org/2000/svg">
<path d="M13.476 7.52499H14.6C14.355 6.10799 13.144 5.12799 11.575 5.12799C9.69305 5.12799 8.31905 6.54499 8.31905 8.86799C8.31905 11.168 9.65405 12.599 11.625 12.599C13.389 12.599 14.65 11.442 14.65 9.60599V8.77799H11.792V9.68399H13.588C13.564 10.856 12.789 11.598 11.625 11.598C10.343 11.598 9.40905 10.628 9.40905 8.85999C9.40905 7.09899 10.349 6.12999 11.582 6.12999C12.548 6.12999 13.202 6.66199 13.475 7.52499H13.476ZM2.41205 12.5L3.08005 10.575H5.92005L6.58505 12.5H7.75005L5.13305 5.22699H3.86505L1.24805 12.5H2.41205ZM3.40005 9.65199L4.47205 6.54799H4.52905L5.60005 9.65199H3.40005Z" />
</svg>
