<svg width="16" height="16" viewBox="0 0 16 16"  xmlns="http://www.w3.org/2000/svg">
<path d="M4.31301 15C5.47686 15 6.09471 13.9783 6.27641 13.3748C6.27931 13.3653 6.28201 13.3555 6.2845 13.3456C6.70787 11.6221 7.38229 8.89031 7.88191 6.90329H9.66951C10.0056 6.90329 10.2782 6.6355 10.2782 6.30504C10.2782 5.97457 10.0056 5.70678 9.66951 5.70678H8.18444C8.34435 5.08072 8.46139 4.63483 8.50746 4.48266L8.55863 4.31232C8.74733 3.67939 9.18918 2.19681 9.8725 2.19681C10.5061 2.19681 10.6006 3.15598 10.6049 3.20235C10.6319 3.53075 10.9233 3.7788 11.2582 3.75041C11.5934 3.72526 11.8443 3.43733 11.8184 3.10805C11.7615 2.37884 11.2811 1 9.8723 1C8.27709 1 7.67823 3.00971 7.39049 3.97576L7.34151 4.13874C7.28305 4.3299 7.12963 4.91893 6.92954 5.70678H4.79993C4.46372 5.70678 4.19127 5.97457 4.19127 6.30504C4.19127 6.6355 4.46372 6.90329 4.79993 6.90329H6.62801C6.00306 9.39475 5.19541 12.681 5.10656 13.0428C5.07338 13.1376 4.82382 13.8034 4.31331 13.8034C3.53374 13.8034 3.19623 12.7279 3.19353 12.7198C3.09999 12.4026 2.76327 12.219 2.43955 12.3116C2.11673 12.4036 1.93064 12.7354 2.02419 13.0528C2.23717 13.7759 2.95866 15 4.31301 15Z" />
<path d="M13.2917 13C13.6766 13 14 12.7554 14 12.3659C14 12.185 13.9191 12.0218 13.747 11.8406L12.3908 10.4458L13.7068 9.069C13.8282 8.93311 13.9191 8.7882 13.9191 8.59798C13.9191 8.25346 13.6052 8 13.2003 8C12.9271 8 12.7148 8.15393 12.5323 8.35355L11.5101 9.54875L10.5082 8.35336C10.3055 8.12716 10.0932 8 9.78963 8C9.40463 8 9.08108 8.24482 9.08108 8.63426C9.08108 8.81516 9.16215 8.97841 9.33385 9.15931L10.5992 10.4637L9.21234 11.931C9.08075 12.0669 9 12.2118 9 12.402C9 12.7464 9.31379 12.9998 9.71842 12.9998C9.99179 12.9998 10.2042 12.8459 10.3864 12.6464L11.4792 11.3605L12.5724 12.6464C12.7755 12.8732 12.9881 13 13.2917 13Z" />
</svg>
