<svg width="24" height="24" viewBox="0 0 24 24"  xmlns="http://www.w3.org/2000/svg">
<path fill-rule="evenodd" clip-rule="evenodd" d="M4.34863 7.16417C4.34863 5.60912 5.60925 4.34851 7.16429 4.34851C8.71934 4.34851 9.97995 5.60912 9.97995 7.16417C9.97995 8.71922 8.71934 9.97983 7.16429 9.97983C5.60925 9.97983 4.34863 8.71922 4.34863 7.16417ZM7.16429 5.84851C6.43767 5.84851 5.84863 6.43755 5.84863 7.16417C5.84863 7.89079 6.43767 8.47983 7.16429 8.47983C7.89091 8.47983 8.47995 7.89079 8.47995 7.16417C8.47995 6.43755 7.89091 5.84851 7.16429 5.84851Z" />
<path fill-rule="evenodd" clip-rule="evenodd" d="M7.78385 1.25C5.64422 1.25 3.95136 1.67333 2.81235 2.81235C1.67333 3.95136 1.25 5.64422 1.25 7.78385V12.7414C1.25 14.8811 1.67333 16.5739 2.81235 17.7129C3.4429 18.3435 4.24317 18.7547 5.19502 18.9962C5.43359 19.5415 5.75061 20.0214 6.15969 20.4304C7.30558 21.5763 9.00653 22 11.1486 22H16.1062C18.2482 22 19.9492 21.5763 21.0951 20.4304C22.241 19.2845 22.6646 17.5836 22.6646 15.4415V10.4839C22.6646 8.34187 22.241 6.64092 21.0951 5.49502C20.4499 4.84986 19.6288 4.43364 18.6521 4.19307C18.417 3.66917 18.108 3.20744 17.7129 2.81235C16.5739 1.67333 14.8811 1.25 12.7414 1.25H7.78385ZM19.1564 6.00364C19.2382 6.55603 19.2753 7.15035 19.2753 7.78385V11.6715C19.2753 11.6747 19.2753 11.6778 19.2753 11.681V12.7414C19.2753 14.8811 18.8519 16.5739 17.7129 17.7129C16.5739 18.8519 14.8811 19.2753 12.7414 19.2753H7.78385C7.58061 19.2753 7.38141 19.2715 7.18633 19.2636C7.20895 19.2879 7.23189 19.3117 7.25517 19.3349C7.96837 20.0481 9.15934 20.4507 11.1486 20.4507H16.1062C18.0954 20.4507 19.2864 20.0481 19.9996 19.3349C20.7128 18.6217 21.1154 17.4308 21.1154 15.4415V10.4839C21.1154 8.49467 20.7128 7.30371 19.9996 6.5905C19.7711 6.36199 19.4935 6.16536 19.1564 6.00364ZM17.7753 10.1202V7.78385C17.7753 5.79216 17.3723 4.59309 16.6523 3.87301C15.9322 3.15293 14.7331 2.75 12.7414 2.75H7.78385C5.79216 2.75 4.59309 3.15293 3.87301 3.87301C3.15293 4.59309 2.75 5.79216 2.75 7.78385V12.7414C2.75 13.4688 2.80374 14.0905 2.90705 14.6217L6.58784 12.3314C7.48088 11.7762 8.74128 11.8279 9.56713 12.4855L9.57361 12.4906L9.8343 12.703C10.1865 12.9809 10.8066 12.9801 11.1575 12.7008L14.4916 10.0491C15.3901 9.33404 16.7875 9.3339 17.686 10.0491L17.7753 10.1202ZM3.42272 16.0675C3.42483 16.0662 3.42694 16.0649 3.42905 16.0636L7.3803 13.605C7.75252 13.3737 8.31738 13.4102 8.63011 13.6568L8.89079 13.8692L8.89733 13.8744C9.79577 14.5896 11.1932 14.5895 12.0917 13.8744L15.4258 11.2227C15.7776 10.9426 16.4 10.9426 16.7518 11.2227L17.7753 12.0374V12.7414C17.7753 14.7331 17.3723 15.9322 16.6523 16.6523C15.9322 17.3723 14.7331 17.7753 12.7414 17.7753H7.78385C5.79216 17.7753 4.59309 17.3723 3.87301 16.6523C3.70536 16.4846 3.5549 16.291 3.42272 16.0675Z" />
</svg>
