<svg width="16" height="16" viewBox="0 0 16 16"  xmlns="http://www.w3.org/2000/svg">
<path fill-rule="evenodd" clip-rule="evenodd" d="M3.5 1C2.67157 1 2 1.67157 2 2.5V3.5C2 4.32843 2.67157 5 3.5 5H12.5C13.3284 5 14 4.32843 14 3.5V2.5C14 1.67157 13.3284 1 12.5 1H3.5ZM12.5 2H3.5C3.22386 2 3 2.22386 3 2.5V3.5C3 3.77614 3.22386 4 3.5 4H12.5C12.7761 4 13 3.77614 13 3.5V2.5C13 2.22386 12.7761 2 12.5 2Z" />
<path fill-rule="evenodd" clip-rule="evenodd" d="M3.5 6C2.67157 6 2 6.67157 2 7.5V8.5C2 9.32843 2.67157 10 3.5 10H12.5C13.3284 10 14 9.32843 14 8.5V7.5C14 6.67157 13.3284 6 12.5 6H3.5ZM12.5 7H3.5C3.22386 7 3 7.22386 3 7.5V8.5C3 8.77614 3.22386 9 3.5 9H12.5C12.7761 9 13 8.77614 13 8.5V7.5C13 7.22386 12.7761 7 12.5 7Z" />
<path fill-rule="evenodd" clip-rule="evenodd" d="M2 12.5C2 11.6716 2.67157 11 3.5 11H12.5C13.3284 11 14 11.6716 14 12.5V13.5C14 14.3284 13.3284 15 12.5 15H3.5C2.67157 15 2 14.3284 2 13.5V12.5ZM3.5 12H12.5C12.7761 12 13 12.2239 13 12.5V13.5C13 13.7761 12.7761 14 12.5 14H3.5C3.22386 14 3 13.7761 3 13.5V12.5C3 12.2239 3.22386 12 3.5 12Z" />
</svg>
