<svg width="16" height="16" viewBox="0 0 16 16"  xmlns="http://www.w3.org/2000/svg">
<path d="M11 2H7C5.89543 2 5 2.89543 5 4V5H4V4C4 2.34315 5.34315 1 7 1H11C12.6569 1 14 2.34315 14 4V12C14 13.6569 12.6569 15 11 15H7C5.34315 15 4 13.6569 4 12V11H5V12C5 13.1046 5.89543 14 7 14H11C12.1046 14 13 13.1046 13 12V4C13 2.89543 12.1046 2 11 2Z" />
<path d="M7.5 3C7.22386 3 7 3.22386 7 3.5C7 3.77614 7.22386 4 7.5 4H10.5C10.7761 4 11 3.77614 11 3.5C11 3.22386 10.7761 3 10.5 3H7.5Z" />
<path d="M1 11C1 9.067 2.567 7.5 4.5 7.5H7.79289L6.64645 6.35355C6.45118 6.15829 6.45118 5.84171 6.64645 5.64645C6.84171 5.45118 7.15829 5.45118 7.35355 5.64645L9.35355 7.64645C9.54882 7.84171 9.54882 8.15829 9.35355 8.35355L7.35355 10.3536C7.15829 10.5488 6.84171 10.5488 6.64645 10.3536C6.45118 10.1583 6.45118 9.84171 6.64645 9.64645L7.79289 8.5H4.5C3.11929 8.5 2 9.61929 2 11V13.5C2 13.7761 1.77614 14 1.5 14C1.22386 14 1 13.7761 1 13.5V11Z" />
</svg>
