<svg width="16" height="16" viewBox="0 0 16 16"  xmlns="http://www.w3.org/2000/svg">
<path d="M8 1.00586C7.22715 1.00586 6.60117 1.63183 6.60117 2.40469V7.30059C6.60117 8.07256 7.22715 8.69941 8 8.69941C8.77285 8.69941 9.39883 8.07256 9.39883 7.30059V4.04306C11.0285 4.62008 12.1965 6.17278 12.1965 8C12.1965 10.3168 10.3168 12.1965 8 12.1965C5.68319 12.1965 3.80352 10.3168 3.80352 8C3.80352 6.84072 4.273 5.7916 5.03274 5.03274C5.57915 4.48632 5.57915 3.60069 5.03274 3.05427C4.48632 2.50785 3.60069 2.50785 3.05427 3.05427C1.7892 4.31933 1.00586 6.06787 1.00586 8C1.00586 11.8625 4.13749 14.9941 8 14.9941C11.8625 14.9941 14.9941 11.8625 14.9941 8C14.9941 4.13749 11.8625 1.00586 8 1.00586Z" />
</svg>
