<svg width="16" height="16" viewBox="0 0 16 16"  xmlns="http://www.w3.org/2000/svg">
<path fill-rule="evenodd" clip-rule="evenodd" d="M6 3.5C6 3.22386 5.77614 3 5.5 3C5.22386 3 5 3.22386 5 3.5V6H2.5C2.22386 6 2 6.22386 2 6.5C2 6.77614 2.22386 7 2.5 7H5V10H2.5C2.22386 10 2 10.2239 2 10.5C2 10.7761 2.22386 11 2.5 11H5V13.5C5 13.7761 5.22386 14 5.5 14C5.77614 14 6 13.7761 6 13.5V11L9 11V13.5C9 13.7761 9.22386 14 9.5 14C9.77614 14 10 13.7761 10 13.5V11H12.5C12.7761 11 13 10.7761 13 10.5C13 10.2239 12.7761 10 12.5 10H10V7H12.5C12.7761 7 13 6.77614 13 6.5C13 6.22386 12.7761 6 12.5 6L10 6V3.5C10 3.22386 9.77614 3 9.5 3C9.22386 3 9 3.22386 9 3.5V6H6V3.5ZM9 10V7H6V10L9 10Z" />
</svg>
