<svg width="16" height="16" viewBox="0 0 16 16"  xmlns="http://www.w3.org/2000/svg">
<path d="M8 14C7.79814 14 7.60279 13.9751 7.44 13.9192C4.95256 13.1047 1 10.2135 1 5.94197C1 3.7658 2.84279 2 5.10884 2C6.2093 2 7.23814 2.41036 8 3.14404C8.76186 2.41036 9.7907 2 10.8912 2C13.1572 2 15 3.77202 15 5.94197C15 10.2197 11.0474 13.1047 8.56 13.9192C8.39721 13.9751 8.20186 14 8 14ZM5.10884 2.93264C3.38326 2.93264 1.97674 4.28187 1.97674 5.94197C1.97674 10.1886 6.25488 12.5513 7.75907 13.0425C7.87628 13.0798 8.13023 13.0798 8.24744 13.0425C9.74512 12.5513 14.0298 10.1948 14.0298 5.94197C14.0298 4.28187 12.6233 2.93264 10.8977 2.93264C9.90791 2.93264 8.98977 3.37409 8.39721 4.13886C8.21488 4.37513 7.79814 4.37513 7.61581 4.13886C7.01023 3.36788 6.0986 2.93264 5.10884 2.93264Z" />
</svg>
