<svg width="17" height="16" viewBox="0 0 17 16"  xmlns="http://www.w3.org/2000/svg">
<path fill-rule="evenodd" clip-rule="evenodd" d="M3.77729 0.833313H5.46618C6.18216 0.833313 6.81341 0.97344 7.25306 1.41308C7.69271 1.85272 7.83285 2.48398 7.83285 3.19996V4.8C7.83285 5.51598 7.69271 6.14724 7.25306 6.58688C6.81341 7.02652 6.18216 7.16665 5.46618 7.16665H3.86618C3.1502 7.16665 2.51894 7.02652 2.0793 6.58688C1.63965 6.14724 1.49951 5.51598 1.49951 4.8V3.10213C1.51159 2.42813 1.65771 1.83245 2.07818 1.41198C2.49865 0.991515 3.09433 0.845472 3.76833 0.833393L3.77729 0.833313ZM3.7819 1.83331C3.21881 1.84401 2.93776 1.96661 2.78529 2.11909C2.63281 2.27156 2.51021 2.55261 2.49951 3.1157V4.8C2.49951 5.41735 2.62604 5.71942 2.7864 5.87977C2.94675 6.04012 3.24882 6.16665 3.86618 6.16665H5.46618C6.08353 6.16665 6.38561 6.04012 6.54596 5.87977C6.70631 5.71942 6.83285 5.41735 6.83285 4.8V3.19996C6.83285 2.58261 6.70631 2.28054 6.54596 2.12019C6.38561 1.95984 6.08353 1.83331 5.46618 1.83331H3.7819ZM9.9577 3.77142C9.9577 2.14671 11.2711 0.833313 12.8958 0.833313C14.5205 0.833313 15.8339 2.14671 15.8339 3.77142C15.8339 5.39613 14.5205 6.70952 12.8958 6.70952C12.2588 6.70952 11.6697 6.50764 11.1888 6.16426C11.1684 6.19774 11.1438 6.22935 11.1148 6.2583L10.3529 7.0202C10.1577 7.21546 9.84107 7.21546 9.64581 7.0202C9.45055 6.82494 9.45055 6.50835 9.64581 6.31309L10.4077 5.55119C10.4367 5.52217 10.4684 5.49747 10.502 5.47708C10.1592 4.99644 9.9577 4.40781 9.9577 3.77142ZM12.8958 1.83331C11.8234 1.83331 10.9577 2.69899 10.9577 3.77142C10.9577 4.84385 11.8234 5.70952 12.8958 5.70952C13.9682 5.70952 14.8339 4.84385 14.8339 3.77142C14.8339 2.69899 13.9682 1.83331 12.8958 1.83331ZM5.61476 2.92037C5.84282 3.07606 5.90149 3.38716 5.74579 3.61523L4.83553 4.94856C4.74059 5.08764 4.58201 5.16958 4.41363 5.16657C4.24526 5.16355 4.08972 5.07598 3.99981 4.93359L3.57673 4.26354C3.42931 4.03004 3.49907 3.72124 3.73257 3.57382C3.96606 3.42639 4.27486 3.49615 4.42229 3.72965L4.4389 3.75596L4.9199 3.0514C5.0756 2.82333 5.3867 2.76467 5.61476 2.92037ZM4.66618 8.83331C4.84946 8.83331 5.01805 8.93359 5.10554 9.09465L5.97357 10.6926L7.57151 11.5606C7.73257 11.6481 7.83285 11.8167 7.83285 12C7.83285 12.1833 7.73257 12.3519 7.57151 12.4393L5.97357 13.3074L5.10554 14.9053C5.01805 15.0664 4.84946 15.1666 4.66618 15.1666C4.4829 15.1666 4.3143 15.0664 4.22682 14.9053L3.35879 13.3074L1.76084 12.4393C1.59979 12.3519 1.49951 12.1833 1.49951 12C1.49951 11.8167 1.59979 11.6481 1.76084 11.5606L3.35879 10.6926L4.22682 9.09465C4.3143 8.93359 4.4829 8.83331 4.66618 8.83331ZM4.66618 10.3808L4.16687 11.3C4.12076 11.3849 4.05105 11.4546 3.96617 11.5007L3.04699 12L3.96617 12.4993C4.05105 12.5454 4.12076 12.6151 4.16687 12.7L4.66618 13.6192L5.16549 12.7C5.2116 12.6151 5.2813 12.5454 5.36618 12.4993L6.28536 12L5.36618 11.5007C5.2813 11.4546 5.2116 11.3849 5.16549 11.3L4.66618 10.3808ZM14.0312 10.5462C13.6699 10.4284 13.2644 10.5358 13.0748 10.8138C12.9837 10.9474 12.8336 11.0287 12.672 11.032C12.5103 11.0354 12.357 10.9603 12.2605 10.8306C12.0471 10.5436 11.6399 10.4396 11.2865 10.548C10.6575 10.7486 10.3344 11.542 10.5783 12.294C10.7751 12.8963 11.2145 13.371 11.6822 13.7016C11.9138 13.8653 12.1425 13.9865 12.3328 14.0651C12.4279 14.1043 12.5092 14.1313 12.5728 14.1478C12.6411 14.1655 12.6708 14.1666 12.6708 14.1666C12.6666 14.1666 12.6949 14.166 12.763 14.1479C12.8259 14.1311 12.9069 14.1037 13.0019 14.0637C13.1922 13.9838 13.4214 13.8609 13.6537 13.6958C14.1235 13.3617 14.562 12.8866 14.7541 12.2943C14.9979 11.5429 14.6755 10.7485 14.0364 10.5478L14.0312 10.5462ZM14.3385 9.59453C13.8204 9.42657 13.1573 9.47186 12.6517 9.83589C12.1509 9.48974 11.5116 9.43189 10.9897 9.59304L10.9862 9.59414C9.6564 10.0155 9.27257 11.5102 9.62719 12.6029L9.62748 12.6038C9.91164 13.474 10.5248 14.1081 11.105 14.5182C11.3974 14.7249 11.6916 14.8822 11.951 14.9893C12.1947 15.09 12.456 15.1666 12.6708 15.1666C12.8861 15.1666 13.1481 15.0871 13.3894 14.9856C13.6478 14.877 13.9414 14.7182 14.2332 14.5107C14.8114 14.0996 15.4255 13.4657 15.7053 12.6029C16.0601 11.5096 15.6755 10.016 14.3385 9.59453Z" />
</svg>
