<svg width="24" height="24" viewBox="0 0 24 24"  xmlns="http://www.w3.org/2000/svg">
<path fill-rule="evenodd" clip-rule="evenodd" d="M4.66667 1.25H7.2C8.27397 1.25 9.22085 1.46019 9.88033 2.11965C10.5398 2.77911 10.75 3.726 10.75 4.79997V7.20003C10.75 8.274 10.5398 9.22089 9.88033 9.88035C9.22085 10.5398 8.27397 10.75 7.2 10.75H4.8C3.72604 10.75 2.77915 10.5398 2.11968 9.88035C1.4602 9.22089 1.25 8.274 1.25 7.20003V4.65323C1.26812 3.64222 1.4873 2.7487 2.118 2.118C2.7487 1.4873 3.64222 1.26824 4.65323 1.25012L4.66667 1.25ZM4.67358 2.75C3.82894 2.76604 3.40738 2.94995 3.17866 3.17866C2.94995 3.40738 2.76604 3.82894 2.75 4.67358V7.20003C2.75 8.12606 2.9398 8.57916 3.18033 8.81968C3.42086 9.06021 3.87397 9.25 4.8 9.25H7.2C8.12603 9.25 8.57915 9.06021 8.81967 8.81968C9.0602 8.57916 9.25 8.12606 9.25 7.20003V4.79997C9.25 3.87394 9.0602 3.42084 8.81967 3.18032C8.57915 2.93979 8.12603 2.75 7.2 2.75H4.67358ZM13.9373 5.65716C13.9373 3.22009 15.9074 1.25 18.3444 1.25C20.7815 1.25 22.7516 3.22009 22.7516 5.65716C22.7516 8.09422 20.7815 10.0643 18.3444 10.0643C17.3889 10.0643 16.5052 9.76149 15.7839 9.24641C15.7534 9.29664 15.7164 9.34406 15.673 9.38747L14.5301 10.5303C14.2372 10.8232 13.7623 10.8232 13.4694 10.5303C13.1766 10.2374 13.1766 9.76256 13.4694 9.46967L14.6123 8.32681C14.6558 8.28329 14.7034 8.24624 14.7537 8.21565C14.2395 7.49469 13.9373 6.61175 13.9373 5.65716ZM18.3444 2.75C16.7358 2.75 15.4373 4.04851 15.4373 5.65716C15.4373 7.2658 16.7358 8.56431 18.3444 8.56431C19.9531 8.56431 21.2516 7.26581 21.2516 5.65716C21.2516 4.04851 19.9531 2.75 18.3444 2.75ZM7.42287 4.38058C7.76497 4.61413 7.85296 5.08078 7.61942 5.42287L6.25403 7.42287C6.11161 7.63149 5.87374 7.7544 5.62118 7.74988C5.36863 7.74536 5.13531 7.614 5.00045 7.40042L4.36583 6.39534C4.14469 6.0451 4.24934 5.5819 4.59958 5.36075C4.94982 5.13961 5.41302 5.24426 5.63417 5.5945L5.65909 5.63397L6.38058 4.57713C6.61413 4.23503 7.08078 4.14704 7.42287 4.38058ZM6 13.25C6.27492 13.25 6.52781 13.4004 6.65904 13.642L7.96108 16.0389L10.358 17.341C10.5996 17.4722 10.75 17.7251 10.75 18C10.75 18.2749 10.5996 18.5278 10.358 18.659L7.96108 19.9611L6.65904 22.358C6.52781 22.5996 6.27492 22.75 6 22.75C5.72508 22.75 5.47219 22.5996 5.34096 22.358L4.03892 19.9611L1.642 18.659C1.40042 18.5278 1.25 18.2749 1.25 18C1.25 17.7251 1.40042 17.4722 1.642 17.341L4.03892 16.0389L5.34096 13.642C5.47219 13.4004 5.72508 13.25 6 13.25ZM6 15.5712L5.25103 16.95C5.18187 17.0773 5.07731 17.1819 4.94999 17.251L3.57122 18L4.94999 18.749C5.07731 18.8181 5.18187 18.9227 5.25103 19.05L6 20.4288L6.74897 19.05C6.81813 18.9227 6.92269 18.8181 7.05001 18.749L8.42878 18L7.05001 17.251C6.92269 17.1819 6.81813 17.0773 6.74897 16.95L6 15.5712ZM20.0476 15.8193C19.5056 15.6427 18.8973 15.8038 18.6129 16.2208C18.4763 16.4212 18.2512 16.5431 18.0087 16.5481C17.7662 16.5531 17.5363 16.4405 17.3915 16.2459C17.0714 15.8155 16.4606 15.6595 15.9305 15.822C14.987 16.1229 14.5023 17.3131 14.8681 18.441C15.1634 19.3444 15.8224 20.0565 16.524 20.5525C16.8715 20.7981 17.2145 20.9797 17.4999 21.0976C17.6425 21.1565 17.7645 21.1969 17.86 21.2217C17.9624 21.2482 18.0069 21.25 18.0069 21.25C18.0007 21.25 18.0431 21.249 18.1452 21.2218C18.2396 21.1967 18.361 21.1556 18.5036 21.0956C18.789 20.9757 19.1329 20.7914 19.4812 20.5437C20.186 20.0425 20.8438 19.3299 21.1318 18.4415C21.4976 17.3144 21.014 16.1228 20.0553 15.8218L20.0476 15.8193ZM20.5084 14.3918C19.7313 14.1399 18.7367 14.2078 17.9782 14.7539C17.2271 14.2346 16.2682 14.1479 15.4853 14.3896L15.48 14.3912C13.4853 15.0233 12.9096 17.2653 13.4415 18.9044L13.4419 18.9057C13.8682 20.211 14.7879 21.1622 15.6582 21.7773C16.0968 22.0874 16.5381 22.3233 16.9273 22.484C17.2928 22.635 17.6847 22.75 18.0069 22.75C18.3299 22.75 18.7228 22.6306 19.0848 22.4785C19.4724 22.3156 19.9128 22.0774 20.3505 21.7661C21.2178 21.1494 22.1389 20.1985 22.5586 18.9044C23.0909 17.2644 22.5139 15.0241 20.5084 14.3918Z" />
</svg>
