<svg width="16" height="16" viewBox="0 0 16 16"  xmlns="http://www.w3.org/2000/svg">
<path fill-rule="evenodd" clip-rule="evenodd" d="M5 3C5 1.89543 5.89543 1 7 1H9C10.1046 1 11 1.89543 11 3C11 4.10457 10.1046 5 9 5H8.5V7H10.5C11.8807 7 13 8.11929 13 9.5V10.05C14.1411 10.2816 15 11.2905 15 12.5C15 13.8807 13.8807 15 12.5 15C11.1193 15 10 13.8807 10 12.5C10 11.2905 10.8589 10.2816 12 10.05V9.5C12 8.67157 11.3284 8 10.5 8H5.5C4.67157 8 4 8.67157 4 9.5V10.05C5.14112 10.2816 6 11.2905 6 12.5C6 13.8807 4.88071 15 3.5 15C2.11929 15 1 13.8807 1 12.5C1 11.2905 1.85888 10.2816 3 10.05V9.5C3 8.11929 4.11929 7 5.5 7H7.5V5H7C5.89543 5 5 4.10457 5 3ZM7 2H9C9.55228 2 10 2.44772 10 3C10 3.55228 9.55228 4 9 4H7C6.44772 4 6 3.55228 6 3C6 2.44772 6.44772 2 7 2ZM3.5 14C4.32843 14 5 13.3284 5 12.5C5 11.6716 4.32843 11 3.5 11C2.67157 11 2 11.6716 2 12.5C2 13.3284 2.67157 14 3.5 14ZM12.5 14C13.3284 14 14 13.3284 14 12.5C14 11.6716 13.3284 11 12.5 11C11.6716 11 11 11.6716 11 12.5C11 13.3284 11.6716 14 12.5 14Z" />
</svg>
