<svg width="16" height="16" viewBox="0 0 16 16"  xmlns="http://www.w3.org/2000/svg">
<path fill-rule="evenodd" clip-rule="evenodd" d="M8 6C8 7.10457 7.10457 8 6 8C4.89543 8 4 7.10457 4 6C4 4.89543 4.89543 4 6 4C7.10457 4 8 4.89543 8 6ZM6 7C6.55228 7 7 6.55228 7 6C7 5.44772 6.55228 5 6 5C5.44772 5 5 5.44772 5 6C5 6.55228 5.44772 7 6 7Z" />
<path fill-rule="evenodd" clip-rule="evenodd" d="M1.67412 2.77772C1 3.78661 1 5.19108 1 8C1 10.8089 1 12.2134 1.67412 13.2223C1.96596 13.659 2.34096 14.034 2.77772 14.3259C3.78661 15 5.19108 15 8 15C10.8089 15 12.2134 15 13.2223 14.3259C13.659 14.034 14.034 13.659 14.3259 13.2223C15 12.2134 15 10.8089 15 8C15 5.19108 15 3.78661 14.3259 2.77772C14.034 2.34096 13.659 1.96596 13.2223 1.67412C12.2134 1 10.8089 1 8 1C5.19108 1 3.78661 1 2.77772 1.67412C2.34096 1.96596 1.96596 2.34096 1.67412 2.77772ZM4.81505 13.9209C5.58104 13.9988 6.57473 14 8 14C9.42527 14 10.419 13.9988 11.1849 13.9209C11.9342 13.8446 12.354 13.7034 12.6667 13.4944C12.9943 13.2755 13.2755 12.9943 13.4944 12.6667C13.7034 12.354 13.8446 11.9342 13.9209 11.1849C13.9543 10.8567 13.9736 10.4865 13.9847 10.0586L12.6352 8.71578C12.346 8.42804 11.8791 8.42804 11.5899 8.71578L9.0074 11.2832C8.3281 11.959 7.23061 11.9591 6.55139 11.2832L6.54735 11.2792L6.34474 11.0729C6.08217 10.8133 5.65819 10.7881 5.36713 11.0143C5.35268 11.0256 5.33764 11.036 5.32205 11.0456L2.55861 12.7435C2.76918 13.0383 3.03159 13.2928 3.33329 13.4944C3.64604 13.7034 4.06578 13.8446 4.81505 13.9209ZM2.17177 11.8075C2.13425 11.6286 2.10339 11.4234 2.07913 11.1849C2.00121 10.419 2 9.42527 2 8C2 6.57473 2.00121 5.58104 2.07913 4.81505C2.15535 4.06578 2.29662 3.64604 2.50559 3.33329C2.72447 3.00572 3.00572 2.72447 3.33329 2.50559C3.64604 2.29662 4.06578 2.15535 4.81505 2.07913C5.58104 2.00121 6.57473 2 8 2C9.42527 2 10.419 2.00121 11.1849 2.07913C11.9342 2.15535 12.354 2.29662 12.6667 2.50559C12.9943 2.72447 13.2755 3.00572 13.4944 3.33329C13.7034 3.64604 13.8446 4.06578 13.9209 4.81505C13.9988 5.58104 14 6.57473 14 8C14 8.23203 14 8.45262 13.9996 8.66266L13.3405 8.00692C12.6613 7.33105 11.5638 7.33116 10.8845 8.00694L8.30203 10.5744C8.01346 10.8615 7.54781 10.8621 7.25851 10.5761L7.05593 10.3698L7.05192 10.3658C6.43987 9.75667 5.46513 9.6906 4.77714 10.2067L2.17177 11.8075Z" />
</svg>
