<svg width="16" height="16" viewBox="0 0 16 16"  xmlns="http://www.w3.org/2000/svg">
<path fill-rule="evenodd" clip-rule="evenodd" d="M7.5 3C10.5376 3 13 5.46243 13 8.5C13 11.5376 10.5376 14 7.5 14C4.46243 14 2 11.5376 2 8.5C2 5.46243 4.46243 3 7.5 3ZM7.5 2C11.0899 2 14 4.91015 14 8.5C14 12.0899 11.0899 15 7.5 15C3.91015 15 1 12.0899 1 8.5C1 4.91015 3.91015 2 7.5 2Z" />
<path fill-rule="evenodd" clip-rule="evenodd" d="M7.5 12C7.77614 12 8 11.7761 8 11.5V7.5C8 7.22386 7.77614 7 7.5 7C7.22386 7 7 7.22386 7 7.5V11.5C7 11.7761 7.22386 12 7.5 12Z" />
<path d="M8 5.5C8 5.22386 7.77614 5 7.5 5C7.22386 5 7 5.22386 7 5.5C7 5.77614 7.22386 6 7.5 6C7.77614 6 8 5.77614 8 5.5Z" />
</svg>
