<svg width="16" height="16" viewBox="0 0 16 16"  xmlns="http://www.w3.org/2000/svg">
<path fill-rule="evenodd" clip-rule="evenodd" d="M7.5 14C10.5376 14 13 11.5376 13 8.5C13 5.46243 10.5376 3 7.5 3C4.46243 3 2 5.46243 2 8.5C2 11.5376 4.46243 14 7.5 14ZM7.5 15C11.0899 15 14 12.0899 14 8.5C14 4.91015 11.0899 2 7.5 2C3.91015 2 1 4.91015 1 8.5C1 12.0899 3.91015 15 7.5 15Z" />
<path fill-rule="evenodd" clip-rule="evenodd" d="M7.5 5C7.77614 5 8 5.22386 8 5.5V9.5C8 9.77614 7.77614 10 7.5 10C7.22386 10 7 9.77614 7 9.5V5.5C7 5.22386 7.22386 5 7.5 5Z" />
<path d="M8 11.5C8 11.7761 7.77614 12 7.5 12C7.22386 12 7 11.7761 7 11.5C7 11.2239 7.22386 11 7.5 11C7.77614 11 8 11.2239 8 11.5Z" />
</svg>
