<svg width="16" height="16" viewBox="0 0 16 16"  xmlns="http://www.w3.org/2000/svg">
<path fill-rule="evenodd" clip-rule="evenodd" d="M9.6665 4.83331C8.83808 4.83331 8.1665 5.50489 8.1665 6.33331C8.1665 7.16174 8.83808 7.83331 9.6665 7.83331C10.4949 7.83331 11.1665 7.16174 11.1665 6.33331C11.1665 5.50489 10.4949 4.83331 9.6665 4.83331ZM9.1665 6.33331C9.1665 6.05717 9.39036 5.83331 9.6665 5.83331C9.94265 5.83331 10.1665 6.05717 10.1665 6.33331C10.1665 6.60946 9.94265 6.83331 9.6665 6.83331C9.39036 6.83331 9.1665 6.60946 9.1665 6.33331Z" />
<path fill-rule="evenodd" clip-rule="evenodd" d="M5.70006 2.45943C7.86235 0.297506 11.3716 0.298477 13.5396 2.45917C15.7089 4.62113 15.7089 8.14484 13.5468 10.3069L13.546 10.3077C12.1148 11.7319 10.0967 12.2206 8.27272 11.7605L5.34215 14.6849C5.15662 14.8745 4.91046 15.0023 4.67909 15.0773C4.4462 15.1528 4.17644 15.1915 3.92325 15.1551L2.47178 14.9553C2.10352 14.9042 1.77536 14.7111 1.53308 14.4677C1.29067 14.2242 1.101 13.8976 1.04568 13.5355L1.04456 13.5282L0.844849 12.0765C0.8076 11.8178 0.852674 11.5457 0.928934 11.3169C1.00553 11.0871 1.13177 10.8465 1.30782 10.6651L1.31302 10.6597L4.24023 7.73259C3.78611 5.90551 4.26649 3.88642 5.70006 2.45943ZM12.8337 3.16747C11.0551 1.39494 8.1779 1.3958 6.40683 3.16687L6.40597 3.16773C5.17078 4.39693 4.79632 6.16803 5.27783 7.73294C5.3323 7.90996 5.28446 8.10258 5.1535 8.23354L2.02349 11.3635C1.97971 11.4096 1.92039 11.5048 1.87762 11.6331C1.8341 11.7637 1.82588 11.874 1.83471 11.9345L1.83529 11.9385L2.03467 13.3875C2.0534 13.5047 2.12355 13.6434 2.24181 13.7622C2.36107 13.8821 2.49671 13.9491 2.60839 13.9647L4.06144 14.1647L4.06543 14.1652C4.13162 14.1749 4.24434 14.167 4.3708 14.126C4.49814 14.0847 4.58719 14.0269 4.62797 13.9849L4.63339 13.9793L5.4203 13.1941L4.23971 12.0135C4.04445 11.8183 4.04445 11.5017 4.23971 11.3064C4.43497 11.1112 4.75155 11.1112 4.94682 11.3064L6.12817 12.4878L7.77343 10.8461C7.90498 10.7148 8.09848 10.6673 8.27585 10.7228C9.83064 11.209 11.6024 10.8308 12.8402 9.5993C14.611 7.82796 14.6109 4.93868 12.8337 3.16747Z" />
</svg>
