<svg width="16" height="16" viewBox="0 0 16 16"  xmlns="http://www.w3.org/2000/svg">
<path fill-rule="evenodd" clip-rule="evenodd" d="M8.87721 1.49C8.57136 1.35323 8.20205 1.29669 7.86034 1.29669C7.51863 1.29669 7.14932 1.35323 6.84346 1.49L2.91185 3.2359C2.29521 3.50809 1.76367 3.96546 1.76367 4.60669C1.76367 5.24792 2.29461 5.70503 2.91126 5.97722L6.84267 7.72303C7.14854 7.85983 7.51859 7.91669 7.86034 7.91669C8.20209 7.91669 8.57144 7.86014 8.87731 7.72335L12.8088 5.97748C13.4255 5.70529 13.957 5.24793 13.957 4.60669C13.957 3.96546 13.4261 3.50834 12.8094 3.23615L8.87721 1.49ZM7.86034 2.29669C7.61235 2.29669 7.392 2.34005 7.25134 2.40303L7.24993 2.40366L3.3166 4.15033L3.31549 4.15082C2.79905 4.37866 2.76367 4.58479 2.76367 4.60669C2.76367 4.62859 2.79905 4.83473 3.31549 5.06257L3.3166 5.06305L7.25134 6.81035C7.392 6.87333 7.61235 6.91669 7.86034 6.91669C8.10833 6.91669 8.32868 6.87333 8.46934 6.81035L8.47075 6.80972L12.4041 5.06306L12.4052 5.06257C12.9216 4.83473 12.957 4.62859 12.957 4.60669C12.957 4.58479 12.9216 4.37866 12.4052 4.15082L12.4041 4.15033L8.47075 2.40366L8.46934 2.40303C8.32868 2.34005 8.10833 2.29669 7.86034 2.29669Z" />
<path d="M2 6.83331C2.27614 6.83331 2.5 7.05717 2.5 7.33331C2.5 7.49557 2.56419 7.70391 2.69327 7.9023C2.82234 8.10067 2.98671 8.24364 3.1353 8.30925L3.13653 8.30979L7.66225 10.3227C7.88127 10.4194 8.12653 10.418 8.33445 10.3242L8.3368 10.3231L12.8635 8.3098L12.8647 8.30925C13.0133 8.24364 13.1777 8.10067 13.3067 7.9023C13.4358 7.70391 13.5 7.49557 13.5 7.33331C13.5 7.05717 13.7239 6.83331 14 6.83331C14.2761 6.83331 14.5 7.05717 14.5 7.33331C14.5 7.73105 14.3542 8.12605 14.1449 8.44766C13.9358 8.76912 13.6337 9.06268 13.2692 9.22379L8.74555 11.2358L8.74428 11.2363C8.27264 11.4486 7.73153 11.4468 7.25775 11.2372L2.73137 9.22404C2.3669 9.06292 2.06421 8.7691 1.85507 8.44766C1.64581 8.12605 1.5 7.73105 1.5 7.33331C1.5 7.05717 1.72386 6.83331 2 6.83331Z" />
<path d="M2.5 10.6667C2.5 10.3905 2.27614 10.1667 2 10.1667C1.72386 10.1667 1.5 10.3905 1.5 10.6667C1.5 11.486 1.98541 12.2239 2.73014 12.5569L7.25775 14.5706C7.73153 14.7802 8.27263 14.782 8.74428 14.5697L8.74555 14.5691L13.2707 12.5565C14.0155 12.2235 14.5 11.486 14.5 10.6667C14.5 10.3905 14.2761 10.1667 14 10.1667C13.7239 10.1667 13.5 10.3905 13.5 10.6667C13.5 11.0872 13.2509 11.4697 12.8626 11.6436L8.3368 13.6565L8.33445 13.6576C8.12655 13.7513 7.88125 13.7528 7.66225 13.6561L3.13701 11.6434C2.74863 11.4696 2.5 11.0872 2.5 10.6667Z" />
</svg>
