<svg width="16" height="16" viewBox="0 0 16 16"  xmlns="http://www.w3.org/2000/svg">
<path fill-rule="evenodd" clip-rule="evenodd" d="M5 8.5C5 8.22386 5.22386 8 5.5 8H10.5C10.7761 8 11 8.22386 11 8.5C11 8.77614 10.7761 9 10.5 9H5.5C5.22386 9 5 8.77614 5 8.5Z" />
<path fill-rule="evenodd" clip-rule="evenodd" d="M9.00003 4.5C9.00003 4.22386 9.22389 4 9.50003 4H10.5C12.9853 4 15 6.01472 15 8.5C15 10.9853 12.9853 13 10.5 13H9.5C9.22386 13 9 12.7761 9 12.5C9 12.2239 9.22386 12 9.5 12H10.5C12.433 12 14 10.433 14 8.5C14 6.567 12.433 5 10.5 5H9.50003C9.22389 5 9.00003 4.77614 9.00003 4.5Z" />
<path fill-rule="evenodd" clip-rule="evenodd" d="M7 12.5C7 12.7761 6.77614 13 6.5 13H5.5C3.01472 13 1 10.9853 1 8.5C1 6.01472 3.01472 4 5.5 4H6.5C6.77614 4 7 4.22386 7 4.5C7 4.77614 6.77614 5 6.5 5H5.5C3.567 5 2 6.567 2 8.5C2 10.433 3.567 12 5.5 12H6.5C6.77614 12 7 12.2239 7 12.5Z" />
</svg>
