<svg width="16" height="16" viewBox="0 0 16 16" xmlns="http://www.w3.org/2000/svg">
<path d="M9.5 1C7.567 1 6 2.567 6 4.5V5.5C6 5.77614 6.22386 6 6.5 6C6.77614 6 7 5.77614 7 5.5V4.5C7 3.11929 8.11929 2 9.5 2H11.5C12.8807 2 14 3.11929 14 4.5V11.5C14 12.8807 12.8807 14 11.5 14H9.5C8.11929 14 7 12.8807 7 11.5V9.5C7 9.22386 6.77614 9 6.5 9C6.22386 9 6 9.22386 6 9.5V11.5C6 13.433 7.567 15 9.5 15H11.5C13.433 15 15 13.433 15 11.5V4.5C15 2.567 13.433 1 11.5 1H9.5Z" />
<path d="M9.14544 5.14647C8.9502 5.34175 8.95022 5.65833 9.1455 5.85358L10.2917 6.99963H1.5C1.22386 6.99963 1 7.22349 1 7.49963C1 7.77578 1.22386 7.99963 1.5 7.99963H10.2921L9.14544 9.14647C8.9502 9.34175 8.95022 9.65833 9.1455 9.85358C9.34077 10.0488 9.65736 10.0488 9.8526 9.85353L11.8526 7.85322C11.9464 7.75944 11.999 7.63226 11.999 7.49965C11.999 7.36705 11.9463 7.23987 11.8525 7.14611L9.85255 5.14642C9.65727 4.95117 9.34069 4.9512 9.14544 5.14647Z" />
</svg>
