<svg width="24" height="24" viewBox="0 0 24 24"  xmlns="http://www.w3.org/2000/svg">
<path d="M11.075 4.25738C10.2846 4.89874 9.79254 5.9363 9.64718 7.62434C9.61164 8.03702 9.24829 8.34276 8.8356 8.30722C8.42291 8.27169 8.11717 7.90833 8.15271 7.49564C8.31735 5.58368 8.9053 4.08624 10.1299 3.0926C11.3338 2.11574 13.0163 1.73999 15.1099 1.73999H15.2399C17.5491 1.73999 19.3609 2.19778 20.5765 3.41341C21.7922 4.62904 22.2499 6.44081 22.2499 8.74999V15.27C22.2499 17.5792 21.7922 19.3909 20.5765 20.6066C19.3609 21.8222 17.5491 22.28 15.2399 22.28H15.1099C13.0315 22.28 11.3591 21.9093 10.1577 20.9481C8.93457 19.9697 8.33885 18.4941 8.16318 16.6096C8.12474 16.1972 8.42791 15.8317 8.84033 15.7932C9.25276 15.7548 9.61826 16.058 9.65671 16.4704C9.81104 18.1259 10.3053 19.1453 11.0947 19.7768C11.9058 20.4257 13.1684 20.78 15.1099 20.78H15.2399C17.4008 20.78 18.719 20.3428 19.5159 19.5459C20.3127 18.749 20.7499 17.4308 20.7499 15.27V8.74999C20.7499 6.58917 20.3127 5.27094 19.5159 4.47407C18.719 3.6772 17.4008 3.23999 15.2399 3.23999H15.1099C13.1536 3.23999 11.8861 3.59924 11.075 4.25738Z" />
<path d="M4.31068 11.25L6.38033 9.18035C6.67322 8.88746 6.67322 8.41259 6.38033 8.11969C6.08744 7.8268 5.61256 7.8268 5.31967 8.11969L1.96967 11.4697C1.67678 11.7626 1.67678 12.2375 1.96967 12.5304L5.31967 15.8804C5.61256 16.1732 6.08744 16.1732 6.38033 15.8804C6.67322 15.5875 6.67322 15.1126 6.38033 14.8197L4.31064 12.75H15.0001C15.4143 12.75 15.7501 12.4142 15.7501 12C15.7501 11.5858 15.4143 11.25 15.0001 11.25H4.31068Z" />
</svg>
