<svg width="16" height="16" viewBox="0 0 16 16"  xmlns="http://www.w3.org/2000/svg">
<path d="M9.5 1C7.567 1 6 2.567 6 4.5V5.5C6 5.77614 6.22386 6 6.5 6C6.77614 6 7 5.77614 7 5.5V4.5C7 3.11929 8.11929 2 9.5 2H11.5C12.8807 2 14 3.11929 14 4.5V11.5C14 12.8807 12.8807 14 11.5 14H9.5C8.11929 14 7 12.8807 7 11.5V9.5C7 9.22386 6.77614 9 6.5 9C6.22386 9 6 9.22386 6 9.5V11.5C6 13.433 7.567 15 9.5 15H11.5C13.433 15 15 13.433 15 11.5V4.5C15 2.567 13.433 1 11.5 1H9.5Z" />
<path d="M3.85407 5.14684C4.04932 5.34212 4.04929 5.6587 3.85401 5.85395L2.70778 7H10.4995C10.7757 7 10.9995 7.22386 10.9995 7.5C10.9995 7.77614 10.7757 8 10.4995 8H2.70741L3.85407 9.14684C4.04932 9.34212 4.04929 9.6587 3.85401 9.85395C3.65874 10.0492 3.34215 10.0492 3.14691 9.85389L1.14691 7.85358C1.05315 7.75981 1.00048 7.63263 1.00049 7.50002C1.0005 7.36741 1.05319 7.24024 1.14696 7.14648L3.14696 5.14679C3.34224 4.95154 3.65882 4.95156 3.85407 5.14684Z" />
</svg>
