<svg width="16" height="16" viewBox="0 0 16 16"  xmlns="http://www.w3.org/2000/svg">
<path fill-rule="evenodd" clip-rule="evenodd" d="M12.9797 12.9798C13.175 12.7845 13.4915 12.7845 13.6868 12.9798L15.0201 14.3131C15.2154 14.5084 15.2154 14.8249 15.0201 15.0202C14.8249 15.2155 14.5083 15.2155 14.313 15.0202L12.9797 13.6869C12.7844 13.4916 12.7844 13.175 12.9797 12.9798Z" />
<path fill-rule="evenodd" clip-rule="evenodd" d="M6 5.5C6 5.22386 6.22386 5 6.5 5H7.5C8.88071 5 10 6.11929 10 7.5C10 8.88071 8.88071 10 7.5 10H6.5C6.22386 10 6 9.77615 6 9.5C6 9.22386 6.22386 9 6.5 9H7.5C8.32843 9 9 8.32843 9 7.5C9 6.67158 8.32843 6 7.5 6H6.5C6.22386 6 6 5.77615 6 5.5Z" />
<path fill-rule="evenodd" clip-rule="evenodd" d="M3 7.5C3 7.22386 3.22386 7 3.5 7H7.5C7.77614 7 8 7.22386 8 7.5C8 7.77615 7.77614 8 7.5 8H3.5C3.22386 8 3 7.77615 3 7.5Z" />
<path fill-rule="evenodd" clip-rule="evenodd" d="M3.5 6C2.67157 6 2 6.67158 2 7.5C2 8.32843 2.67157 9 3.5 9H4.5C4.77614 9 5 9.22386 5 9.5C5 9.77615 4.77614 10 4.5 10H3.5C2.11929 10 1 8.88071 1 7.5C1 6.11929 2.11929 5 3.5 5H4.5C4.77614 5 5 5.22386 5 5.5C5 5.77615 4.77614 6 4.5 6H3.5Z" />
<path fill-rule="evenodd" clip-rule="evenodd" d="M10.6048 2.41867C9.59976 2.00238 8.4939 1.89347 7.427 2.10568C6.36011 2.3179 5.3801 2.84173 4.61091 3.61092C4.41565 3.80618 4.09907 3.80618 3.90381 3.61092C3.70854 3.41565 3.70854 3.09907 3.90381 2.90381C4.81285 1.99477 5.97104 1.3757 7.23191 1.1249C8.49279 0.874095 9.79972 1.00282 10.9874 1.49479C12.1752 1.98676 13.1903 2.81988 13.9046 3.8888C14.6188 4.95771 15 6.21442 15 7.5C15 8.78558 14.6188 10.0423 13.9046 11.1112C13.1903 12.1801 12.1752 13.0132 10.9874 13.5052C9.79972 13.9972 8.49279 14.1259 7.23191 13.8751C5.97104 13.6243 4.81285 13.0052 3.90381 12.0962C3.70855 11.9009 3.70855 11.5844 3.90381 11.3891C4.09907 11.1938 4.41565 11.1938 4.61091 11.3891C5.3801 12.1583 6.36011 12.6821 7.427 12.8943C8.4939 13.1065 9.59977 12.9976 10.6048 12.5813C11.6098 12.1651 12.4687 11.4601 13.0731 10.5556C13.6774 9.65117 14 8.5878 14 7.5C14 6.4122 13.6774 5.34884 13.0731 4.44437C12.4687 3.5399 11.6098 2.83495 10.6048 2.41867Z" />
</svg>
