<svg width="16" height="16" viewBox="0 0 16 16"  xmlns="http://www.w3.org/2000/svg">
<path fill-rule="evenodd" clip-rule="evenodd" d="M7.66634 1.83331C4.44248 1.83331 1.83301 4.44279 1.83301 7.66665C1.83301 10.8905 4.44248 13.5 7.66634 13.5C10.8902 13.5 13.4997 10.8905 13.4997 7.66665C13.4997 7.3905 13.7235 7.16665 13.9997 7.16665C14.2758 7.16665 14.4997 7.3905 14.4997 7.66665C14.4997 11.4428 11.4425 14.5 7.66634 14.5C3.8902 14.5 0.833008 11.4428 0.833008 7.66665C0.833008 3.8905 3.8902 0.833313 7.66634 0.833313C7.94248 0.833313 8.16634 1.05717 8.16634 1.33331C8.16634 1.60946 7.94248 1.83331 7.66634 1.83331Z" />
<path fill-rule="evenodd" clip-rule="evenodd" d="M12.9795 12.9798C13.1747 12.7845 13.4913 12.7845 13.6866 12.9798L15.0199 14.3131C15.2152 14.5084 15.2152 14.8249 15.0199 15.0202C14.8246 15.2155 14.5081 15.2155 14.3128 15.0202L12.9795 13.6869C12.7842 13.4916 12.7842 13.175 12.9795 12.9798Z" />
<path fill-rule="evenodd" clip-rule="evenodd" d="M10.5 3C9.67157 3 9 3.67157 9 4.5C9 5.32843 9.67157 6 10.5 6H11V7H10.5C9.11929 7 8 5.88071 8 4.5C8 3.11929 9.11929 2 10.5 2H11V3H10.5ZM12.5 3H12V2H12.5C13.8807 2 15 3.11929 15 4.5C15 5.88071 13.8807 7 12.5 7H12V6H12.5C13.3284 6 14 5.32843 14 4.5C14 3.67157 13.3284 3 12.5 3Z" />
<path fill-rule="evenodd" clip-rule="evenodd" d="M10 4.5C10 4.22386 10.2239 4 10.5 4H12.5C12.7761 4 13 4.22386 13 4.5C13 4.77614 12.7761 5 12.5 5H10.5C10.2239 5 10 4.77614 10 4.5Z" />
</svg>
