<svg width="16" height="16" viewBox="0 0 16 16"  xmlns="http://www.w3.org/2000/svg">
<path d="M3.81015 12.653C4.95215 12.653 5.54815 12.04 5.75315 11.613H5.80315V12.5H6.81015V8.18699C6.81015 6.10799 5.22515 5.86899 4.39015 5.86899C3.40115 5.86899 2.27615 6.20999 1.76515 7.40299L2.72015 7.74399C2.94115 7.26699 3.46515 6.75599 4.42415 6.75599C5.34915 6.75599 5.80415 7.24599 5.80415 8.08599V8.11899C5.80415 8.60499 5.31015 8.56299 4.11715 8.71599C2.90315 8.87399 1.57715 9.14199 1.57715 10.642C1.57715 11.921 2.56715 12.653 3.81015 12.653V12.653ZM3.96315 11.75C3.16215 11.75 2.58315 11.392 2.58315 10.693C2.58315 9.92599 3.28115 9.68799 4.06515 9.58499C4.49115 9.53499 5.63315 9.41499 5.80415 9.20999V10.13C5.80415 10.949 5.15615 11.75 3.96315 11.75ZM11.2871 15.09C12.8551 15.09 14.1171 14.375 14.1171 12.688V5.95499H13.1451V6.99499H13.0431C12.8211 6.65299 12.4131 5.86899 11.1331 5.86899C9.48015 5.86899 8.33815 7.18199 8.33815 9.19299C8.33815 11.239 9.53115 12.398 11.1171 12.398C12.3951 12.398 12.8041 11.648 13.0261 11.29H13.1111V12.62C13.1111 13.71 12.3441 14.205 11.2871 14.205C10.0981 14.205 9.68115 13.578 9.41215 13.215L8.61115 13.778C9.02115 14.464 9.82515 15.091 11.2871 15.091V15.09ZM11.2531 11.494C9.99215 11.494 9.34315 10.54 9.34315 9.17599C9.34315 7.84599 9.97515 6.77299 11.2531 6.77299C12.4801 6.77299 13.1281 7.76099 13.1281 9.17599C13.1281 10.625 12.4631 11.494 11.2531 11.494Z" />
</svg>
