<svg width="16" height="16" viewBox="0 0 16 16"  xmlns="http://www.w3.org/2000/svg">
<path d="M12.8535 3.85355C13.0488 3.65829 13.0488 3.34171 12.8535 3.14645C12.6583 2.95118 12.3417 2.95118 12.1464 3.14645L3.14645 12.1464C2.95118 12.3417 2.95118 12.6583 3.14645 12.8535C3.34171 13.0488 3.65829 13.0488 3.85355 12.8535L12.8535 3.85355Z" />
<path fill-rule="evenodd" clip-rule="evenodd" d="M7.00007 5C7.00007 6.10457 6.10464 7 5.00007 7C3.8955 7 3.00007 6.10457 3.00007 5C3.00007 3.89543 3.8955 3 5.00007 3C6.10464 3 7.00007 3.89543 7.00007 5ZM6.00007 5C6.00007 5.55228 5.55236 6 5.00007 6C4.44779 6 4.00007 5.55228 4.00007 5C4.00007 4.44772 4.44779 4 5.00007 4C5.55236 4 6.00007 4.44772 6.00007 5Z" />
<path fill-rule="evenodd" clip-rule="evenodd" d="M11 12C11.5523 12 12 11.5523 12 11C12 10.4477 11.5523 10 11 10C10.4477 10 10 10.4477 10 11C10 11.5523 10.4477 12 11 12ZM11 13C12.1046 13 13 12.1046 13 11C13 9.89543 12.1046 9 11 9C9.89543 9 9 9.89543 9 11C9 12.1046 9.89543 13 11 13Z" />
</svg>
