<svg width="16" height="16" viewBox="0 0 16 16"  xmlns="http://www.w3.org/2000/svg">
<path fill-rule="evenodd" clip-rule="evenodd" d="M3 5.5C3 4.67157 3.67157 4 4.5 4H7.5C8.32843 4 9 4.67157 9 5.5V6.5C9 7.32843 8.32843 8 7.5 8H4.5C3.67157 8 3 7.32843 3 6.5V5.5ZM4.5 5H7.5C7.77614 5 8 5.22386 8 5.5V6.5C8 6.77614 7.77614 7 7.5 7H4.5C4.22386 7 4 6.77614 4 6.5V5.5C4 5.22386 4.22386 5 4.5 5Z" />
<path fill-rule="evenodd" clip-rule="evenodd" d="M4 13H7V14H4.5C4.22386 14 4 14.2239 4 14.5C4 14.7761 4.22386 15 4.5 15H10.5C10.7761 15 11 14.7761 11 14.5C11 14.2239 10.7761 14 10.5 14H8V13H11C12.6569 13 14 11.6569 14 10V5C14 3.34315 12.6569 2 11 2H4C2.34315 2 1 3.34315 1 5V10C1 11.6569 2.34315 13 4 13ZM11 3H4C2.89543 3 2 3.89543 2 5V10H13V5C13 3.89543 12.1046 3 11 3ZM4 12C3.25972 12 2.61337 11.5978 2.26756 11H12.7324C12.3866 11.5978 11.7403 12 11 12H4Z" />
</svg>
