<svg width="16" height="16" viewBox="0 0 16 16"  xmlns="http://www.w3.org/2000/svg">
<path fill-rule="evenodd" clip-rule="evenodd" d="M3 5.78956C3 4.61608 4.28674 3.89706 5.28615 4.51208L8.8781 6.72251C9.82991 7.30824 9.82991 8.69176 8.8781 9.27749L5.28615 11.4879C4.28674 12.1029 3 11.3839 3 10.2104V5.78956ZM4.76205 5.36373C4.42891 5.15873 4 5.3984 4 5.78956V10.2104C4 10.6016 4.42891 10.8413 4.76205 10.6363L8.35401 8.42583C8.67128 8.23059 8.67128 7.76941 8.35401 7.57417L4.76205 5.36373Z" />
<path fill-rule="evenodd" clip-rule="evenodd" d="M11.5 4C11.7761 4 12 4.22386 12 4.5V11.5C12 11.7761 11.7761 12 11.5 12C11.2239 12 11 11.7761 11 11.5L11 4.5C11 4.22386 11.2239 4 11.5 4Z" />
</svg>
