<svg width="16" height="16" viewBox="0 0 16 16"  xmlns="http://www.w3.org/2000/svg">
<path d="M1.72714 12.5L2.60514 10.028H6.13414L7.01014 12.5H8.12014L4.91514 3.77299H3.82414L0.619141 12.5H1.72714ZM2.93714 9.08999L4.33514 5.15299H4.40314L5.80114 9.09099H2.93714V9.08999ZM9.32514 12.5H14.8311V11.562H10.7741V11.494L12.7341 9.39799C14.2341 7.79099 14.6781 7.04099 14.6781 6.07399C14.6781 4.72699 13.5871 3.65399 12.0531 3.65399C10.5231 3.65399 9.35914 4.69399 9.35914 6.22699H10.3651C10.3651 5.23399 11.0081 4.57399 12.0181 4.57399C12.9641 4.57399 13.6881 5.15399 13.6881 6.07399C13.6881 6.87899 13.2161 7.47599 12.2061 8.57999L9.32614 11.733V12.5H9.32514Z" />
</svg>
