<svg width="24" height="24" viewBox="0 0 24 24"  xmlns="http://www.w3.org/2000/svg">
<path fill-rule="evenodd" clip-rule="evenodd" d="M6.77021 8.90997C6.77021 6.56653 8.31199 4.57776 10.4349 3.90434C11.1757 3.69726 11.9736 3.6388 12.8169 3.74421L12.8197 3.74455C13.0673 3.77456 13.312 3.82466 13.5546 3.89044C15.6989 4.55134 17.2702 6.55733 17.2702 8.90997V11.8C17.2702 12.1951 17.3516 12.6506 17.4644 13.0621C17.5775 13.4744 17.7384 13.9019 17.9305 14.2348L19.0874 16.1564C19.5012 16.8467 19.1656 17.7397 18.4148 17.9879L18.4125 17.9886C14.2573 19.3769 9.77466 19.3771 5.61932 17.9891C5.16255 17.8341 4.89971 17.5489 4.78979 17.252C4.6801 16.9558 4.69399 16.5703 4.94284 16.1566L6.09274 14.2468L6.09442 14.244C6.29471 13.908 6.45941 13.4776 6.57413 13.0643C6.68878 12.6513 6.77021 12.1953 6.77021 11.8V8.90997ZM18.7702 8.90997C18.7702 6.03814 16.9553 3.57191 14.4152 2.60094C13.9482 1.75774 13.0496 1.19 12.0199 1.19C10.9916 1.19 10.094 1.75629 9.62649 2.59773C7.08166 3.56497 5.27021 6.02841 5.27021 8.90997V11.8C5.27021 12.0146 5.22163 12.3286 5.12878 12.6631C5.03621 12.9966 4.91626 13.2905 4.80676 13.4746L4.806 13.4759L3.65757 15.3833C3.19653 16.1495 3.10033 17.0092 3.38312 17.7729C3.66559 18.5358 4.29735 19.1253 5.13976 19.4104L5.14254 19.4113C6.23107 19.775 7.34056 20.05 8.46079 20.2363C8.64774 20.7986 8.96351 21.3042 9.36969 21.7103C10.0442 22.3848 10.9925 22.81 12.02 22.81C13.6744 22.81 15.0857 21.7271 15.5809 20.2345C16.6969 20.0482 17.8022 19.774 18.8867 19.4117C20.555 18.8594 21.2789 16.8934 20.3733 15.3841L19.2267 13.4797C19.1196 13.2924 19.002 12.9973 18.911 12.6654C18.8188 12.3293 18.7702 12.0148 18.7702 11.8V8.90997ZM13.7786 20.4581C12.6077 20.5537 11.4312 20.5539 10.2603 20.4588C10.3134 20.5258 10.3702 20.5895 10.4303 20.6497C10.8359 21.0552 11.4075 21.31 12.02 21.31C12.7291 21.31 13.3652 20.9761 13.7786 20.4581Z" />
</svg>
