<svg width="16" height="16" viewBox="0 0 16 16"  xmlns="http://www.w3.org/2000/svg">
<path d="M6 2.5C6 2.22386 6.22386 2 6.5 2H8.5C8.77614 2 9 2.22386 9 2.5C9 2.77614 8.77614 3 8.5 3H8V14H8.5C8.77614 14 9 14.2239 9 14.5C9 14.7761 8.77614 15 8.5 15H6.5C6.22386 15 6 14.7761 6 14.5C6 14.2239 6.22386 14 6.5 14H7V3H6.5C6.22386 3 6 2.77614 6 2.5Z" />
<path d="M3 7.5C3 7.22386 3.22386 7 3.5 7H4.5C4.77614 7 5 7.22386 5 7.5V9H5.5C5.77614 9 6 9.22386 6 9.5C6 9.77614 5.77614 10 5.5 10H3.5C3.22386 10 3 9.77614 3 9.5C3 9.22386 3.22386 9 3.5 9H4V8H3.5C3.22386 8 3 7.77614 3 7.5Z" />
<path d="M2 8C2 6.89543 2.89543 6 4 6H5.5C5.77614 6 6 5.77614 6 5.5C6 5.22386 5.77614 5 5.5 5H4C2.34315 5 1 6.34315 1 8V9C1 10.6569 2.34315 12 4 12H5.5C5.77614 12 6 11.7761 6 11.5C6 11.2239 5.77614 11 5.5 11H4C2.89543 11 2 10.1046 2 9V8Z" />
<path d="M14 9C14 10.1046 13.1046 11 12 11H9.5C9.22386 11 9 11.2239 9 11.5C9 11.7761 9.22386 12 9.5 12H12C13.6569 12 15 10.6569 15 9V8C15 6.34315 13.6569 5 12 5H9.5C9.22386 5 9 5.22386 9 5.5C9 5.77614 9.22386 6 9.5 6H12C13.1046 6 14 6.89543 14 8V9Z" />
</svg>
