<svg width="16" height="16" viewBox="0 0 16 16"  xmlns="http://www.w3.org/2000/svg">
<path d="M7.6095 2.48804L4.64981 6.18765C4.38791 6.51503 4.62099 6.99999 5.04025 6.99999H10.9596C11.3789 6.99999 11.612 6.51503 11.3501 6.18765L8.39037 2.48804C8.1902 2.23783 7.80966 2.23783 7.6095 2.48804Z" />
<path fill-rule="evenodd" clip-rule="evenodd" d="M9.91931 9.99999L6.08056 9.99999L7.99993 12.3992L9.91931 9.99999ZM5.43068 9.18765C5.43058 9.18752 5.43078 9.18778 5.43068 9.18765ZM11.3501 9.81234L8.39037 13.512C8.1902 13.7622 7.80966 13.7622 7.6095 13.512L4.64981 9.81234C4.38791 9.48496 4.62099 8.99999 5.04025 8.99999L10.9596 8.99999C11.3789 8.99999 11.612 9.48496 11.3501 9.81234Z" />
</svg>
