<svg width="16" height="16" viewBox="0 0 16 16" xmlns="http://www.w3.org/2000/svg">
<path d="M2.837 2H2.085L1 2.697V3.421L2.02 2.769H2.046V6.364H2.836V2H2.837ZM6 2.364H14V3.364H6V2.364ZM6 12.364H14V13.364H6V12.364ZM14 7.364H6V8.364H14V7.364ZM4.053 13.364H1.062V12.793L2.577 11.308C3.007 10.871 3.229 10.611 3.229 10.247C3.229 9.835 2.919 9.582 2.504 9.582C2.07 9.582 1.788 9.861 1.788 10.306H1.036C1.036 9.477 1.65 8.941 2.515 8.941C3.393 8.941 3.987 9.475 3.987 10.206C3.987 10.698 3.753 11.095 2.905 11.909L2.153 12.673V12.703H4.053V13.364Z" />
</svg>
