<svg width="16" height="16" viewBox="0 0 16 16"  xmlns="http://www.w3.org/2000/svg">
<path d="M9 2.5C9 2.22386 9.22386 2 9.5 2H13.5C13.7761 2 14 2.22386 14 2.5V6.5C14 6.77614 13.7761 7 13.5 7C13.2239 7 13 6.77614 13 6.5V3.70711L5.85355 10.8536C5.65829 11.0488 5.34171 11.0488 5.14645 10.8536C4.95118 10.6583 4.95118 10.3417 5.14645 10.1464L12.2929 3H9.5C9.22386 3 9 2.77614 9 2.5Z" />
<path d="M5.5 3.00003C4.11929 3.00003 3 4.11932 3 5.50003V10.5C3 11.8807 4.11929 13 5.5 13H10.5C11.8807 13 13 11.8807 13 10.5V9.50003C13 9.22389 13.2239 9.00003 13.5 9.00003C13.7761 9.00003 14 9.22389 14 9.50003V10.5C14 12.433 12.433 14 10.5 14H5.5C3.567 14 2 12.433 2 10.5V5.50003C2 3.56703 3.567 2.00003 5.5 2.00003H6.5C6.77614 2.00003 7 2.22389 7 2.50003C7 2.77617 6.77614 3.00003 6.5 3.00003H5.5Z" />
</svg>
