<svg width="16" height="16" viewBox="0 0 16 16"  xmlns="http://www.w3.org/2000/svg">
<path d="M5.35355 3.14645C5.15829 2.95118 4.84171 2.95118 4.64645 3.14645L4 3.79289L3.85355 3.64645C3.65829 3.45118 3.34171 3.45118 3.14645 3.64645C2.95118 3.84171 2.95118 4.15829 3.14645 4.35355L3.64645 4.85355C3.84171 5.04882 4.15829 5.04882 4.35355 4.85355L5.35355 3.85355C5.54882 3.65829 5.54882 3.34171 5.35355 3.14645Z" />
<path d="M7 4.5C7 4.22386 7.22386 4 7.5 4H12.5C12.7761 4 13 4.22386 13 4.5C13 4.77614 12.7761 5 12.5 5H7.5C7.22386 5 7 4.77614 7 4.5Z" />
<path fill-rule="evenodd" clip-rule="evenodd" d="M2.87694 7H13.1231C14.1526 7 15 6.09137 15 4.98749V3.01252C15 1.90864 14.1596 1 13.1231 1H2.87694C1.84743 1 1 1.90113 1 3.01252V4.98749C1 6.09137 1.84043 7 2.87694 7ZM2.87694 6H13.1231C13.5358 6 14 5.60592 14 4.98749V3.01252C14 2.39158 13.5404 2 13.1231 2H2.87694C2.46192 2 2 2.38909 2 3.01252V4.98749C2 5.60842 2.45958 6 2.87694 6Z" />
<path d="M7.5 12C7.22386 12 7 12.2239 7 12.5C7 12.7761 7.22386 13 7.5 13H12.5C12.7761 13 13 12.7761 13 12.5C13 12.2239 12.7761 12 12.5 12H7.5Z" />
<path d="M2.99229 10.9806C3.18709 10.7849 3.50367 10.7842 3.6994 10.979L4.05681 11.3347L4.39411 10.999C4.58984 10.8042 4.90642 10.8049 5.10122 11.0006C5.29602 11.1964 5.29527 11.513 5.09954 11.7078L4.7656 12.0401L5.11273 12.3856C5.30845 12.5804 5.3092 12.897 5.1144 13.0927C4.9196 13.2884 4.60302 13.2892 4.4073 13.0944L4.05681 12.7456L3.68621 13.1144C3.49049 13.3092 3.17391 13.3085 2.97911 13.1127C2.78431 12.917 2.78506 12.6004 2.98078 12.4056L3.34803 12.0401L2.99396 11.6877C2.79824 11.4929 2.79749 11.1764 2.99229 10.9806Z" />
<path fill-rule="evenodd" clip-rule="evenodd" d="M2.87694 15H13.1231C14.1526 15 15 14.0914 15 12.9875V11.0125C15 9.90864 14.1596 9 13.1231 9H2.87694C1.84743 9 1 9.90113 1 11.0125V12.9875C1 14.0914 1.84043 15 2.87694 15ZM2.87694 14H13.1231C13.5358 14 14 13.6059 14 12.9875V11.0125C14 10.3916 13.5404 10 13.1231 10H2.87694C2.46192 10 2 10.3891 2 11.0125V12.9875C2 13.6084 2.45958 14 2.87694 14Z" />
</svg>
