<svg width="16" height="16" viewBox="0 0 16 16"  xmlns="http://www.w3.org/2000/svg">
<path fill-rule="evenodd" clip-rule="evenodd" d="M6.75659 1.20645C7.1474 1.05579 7.59665 1 7.99564 1C8.39585 1 8.84419 1.05614 9.23601 1.20363L9.24448 1.20681L12.1449 2.32872C12.7122 2.54786 13.1668 2.97294 13.4738 3.43099C13.782 3.89074 14 4.46977 14 5.07388V9.53244C14 10.0788 13.8317 10.6394 13.6031 11.1084C13.375 11.5766 13.0372 12.0551 12.605 12.3885L10.1072 14.313L10.1059 14.314C9.49178 14.79 8.72378 15 8 15C7.27622 15 6.50822 14.79 5.89412 14.314L5.89278 14.313L3.39547 12.3888C2.96324 12.0554 2.625 11.5766 2.39685 11.1084C2.16828 10.6394 2 10.0788 2 9.53244V5.07388C2 4.47132 2.21899 3.89349 2.52675 3.43536C2.83344 2.97883 3.2869 2.55439 3.85372 2.33525L3.85507 2.33472L6.75659 1.20645ZM4.21512 3.26766C3.54651 3.52569 3 4.34179 3 5.07388V9.53244C3 10.2405 3.45349 11.1706 4.00581 11.5967L6.50581 13.5229C7.32558 14.159 8.67442 14.159 9.49419 13.5229L11.9942 11.5967C12.5465 11.1706 13 10.2405 13 9.53244V5.07388C13 4.33579 12.4535 3.51969 11.7849 3.26166L8.88372 2.13952C8.38953 1.95349 7.59884 1.95349 7.11628 2.13952L4.21512 3.26766Z" />
<path fill-rule="evenodd" clip-rule="evenodd" d="M8.06599 7.99949C8.05536 7.99983 8.04472 8 8.03409 8H7.96022C7.94959 8 7.93895 7.99983 7.92832 7.99949C6.847 7.96498 6 7.07196 6 6C6 4.89658 6.89658 4 8 4C9.10342 4 10 4.89658 10 6V6.01042C9.98884 7.08182 9.14542 7.96504 8.06599 7.99949ZM9 6C9 5.44887 8.55113 5 8 5C7.44887 5 7 5.44887 7 6C7 6.53977 7.42614 6.98295 7.96022 7H8.03409C8.56818 6.98295 8.99432 6.54545 9 6Z" />
<path fill-rule="evenodd" clip-rule="evenodd" d="M9.10702 10.9165C8.79004 10.9692 8.40938 11 8 11C7.59062 11 7.20996 10.9692 6.89298 10.9165C6.35469 10.8269 6 10.6738 6 10.5C6 10.3262 6.35469 10.1731 6.89298 10.0835C7.20996 10.0308 7.59062 10 8 10C8.40938 10 8.79004 10.0308 9.10702 10.0835C9.64531 10.1731 10 10.3262 10 10.5C10 10.6738 9.64531 10.8269 9.10702 10.9165ZM9.65675 11.8237C9.19472 11.9392 8.60942 12 8 12C7.39058 12 6.80528 11.9392 6.34325 11.8237C6.11993 11.7679 5.86826 11.6855 5.64834 11.5555C5.49536 11.4651 5 11.1409 5 10.5C5 9.85914 5.49536 9.53493 5.64834 9.44451C5.86826 9.31452 6.11993 9.23213 6.34325 9.1763C6.80528 9.0608 7.39058 9 8 9C8.60942 9 9.19472 9.0608 9.65675 9.1763C9.88007 9.23213 10.1317 9.31452 10.3517 9.44451C10.5046 9.53493 11 9.85914 11 10.5C11 11.1409 10.5046 11.4651 10.3517 11.5555C10.1317 11.6855 9.88007 11.7679 9.65675 11.8237Z" />
</svg>
