<svg width="24" height="24" viewBox="0 0 24 24"  xmlns="http://www.w3.org/2000/svg">
<path fill-rule="evenodd" clip-rule="evenodd" d="M21.222 8.34553C21.89 6.32553 21.7616 4.4965 20.6319 3.36511C19.5012 2.23276 17.6734 2.10498 15.6528 2.77854L7.16201 5.60878C5.68661 6.10231 4.52142 6.69144 3.71029 7.36176C2.90176 8.02993 2.36743 8.84901 2.36743 9.7838C2.36743 10.7188 2.902 11.5374 3.71089 12.2045C4.5222 12.8735 5.68785 13.4608 7.16313 13.9517L9.327 14.673L10.0484 16.8372C10.5394 18.3127 11.1273 19.4781 11.7972 20.2895C12.4652 21.0984 13.2847 21.6325 14.2199 21.6325C15.1552 21.6325 15.9746 21.0984 16.6426 20.2895C17.3126 19.4781 17.9006 18.3123 18.3916 16.8368L21.2214 8.34722L21.222 8.34553ZM16.1271 4.20156C17.9165 3.60511 19.0286 3.88233 19.5705 4.42498C20.1132 4.96851 20.3895 6.08502 19.7979 7.87456L16.9683 16.3633C16.5093 17.7426 15.9947 18.7183 15.486 19.3344C14.9752 19.9529 14.5397 20.1325 14.2199 20.1325C13.9002 20.1325 13.4646 19.9529 12.9539 19.3344C12.4452 18.7183 11.9304 17.7422 11.4714 16.3629L10.718 14.1026L14.2212 10.5896C14.5137 10.2963 14.513 9.82147 14.2197 9.52899C13.9264 9.23651 13.4515 9.23717 13.159 9.53047L9.57904 13.1205C9.56535 13.1342 9.5523 13.1483 9.5399 13.1628L7.63673 12.5284C6.25719 12.0694 5.28135 11.5553 4.66522 11.0472C4.04662 10.5371 3.86743 10.1025 3.86743 9.7838C3.86743 9.46483 4.04685 9.02954 4.66583 8.51802C5.28213 8.00871 6.2585 7.49275 7.63785 7.03131L16.1271 4.20156Z" />
</svg>
