<svg width="16" height="16" viewBox="0 0 16 16"  xmlns="http://www.w3.org/2000/svg">
<path d="M6 2.5C6 2.22386 6.22386 2 6.5 2H8.5C8.77614 2 9 2.22386 9 2.5C9 2.77614 8.77614 3 8.5 3H8V14H8.5C8.77614 14 9 14.2239 9 14.5C9 14.7761 8.77614 15 8.5 15H6.5C6.22386 15 6 14.7761 6 14.5C6 14.2239 6.22386 14 6.5 14H7V3H6.5C6.22386 3 6 2.77614 6 2.5Z" />
<path d="M4 6C2.89543 6 2 6.89543 2 8V9C2 10.1046 2.89543 11 4 11H5.5C5.77614 11 6 11.2239 6 11.5C6 11.7761 5.77614 12 5.5 12H4C2.34315 12 1 10.6569 1 9V8C1 6.34315 2.34315 5 4 5H5.5C5.77614 5 6 5.22386 6 5.5C6 5.77614 5.77614 6 5.5 6H4Z" />
<path d="M12 11C13.1046 11 14 10.1046 14 9V8C14 6.89543 13.1046 6 12 6H9.5C9.22386 6 9 5.77614 9 5.5C9 5.22386 9.22386 5 9.5 5H12C13.6569 5 15 6.34315 15 8V9C15 10.6569 13.6569 12 12 12H9.5C9.22386 12 9 11.7761 9 11.5C9 11.2239 9.22386 11 9.5 11H12Z" />
<path d="M4.11096 7.27137C4.22838 6.88763 4.77162 6.88763 4.88904 7.27137C4.95154 7.47562 5.16136 7.59676 5.36951 7.54876C5.76054 7.45859 6.03216 7.92904 5.75855 8.2226C5.61291 8.37886 5.61291 8.62114 5.75855 8.7774C6.03216 9.07096 5.76054 9.54141 5.36951 9.45124C5.16136 9.40324 4.95154 9.52438 4.88904 9.72863C4.77162 10.1124 4.22838 10.1124 4.11096 9.72863C4.04846 9.52438 3.83864 9.40324 3.63049 9.45124C3.23946 9.54141 2.96784 9.07096 3.24145 8.7774C3.38709 8.62114 3.38709 8.37886 3.24145 8.2226C2.96784 7.92904 3.23946 7.45859 3.63049 7.54876C3.83864 7.59676 4.04846 7.47562 4.11096 7.27137Z" />
</svg>
