<svg width="16" height="16" viewBox="0 0 16 16"  xmlns="http://www.w3.org/2000/svg">
<path d="M11.5685 15C10.8313 15 10.055 14.8242 9.25256 14.4856C8.46971 14.1535 7.68034 13.6977 6.91053 13.1442C6.14725 12.5842 5.41007 11.9591 4.71202 11.2753C4.0205 10.5786 3.39422 9.84279 2.8397 9.08744C2.27866 8.30605 1.82852 7.52465 1.50885 6.7693C1.16962 5.96186 1 5.18047 1 4.44465C1 3.93674 1.09133 3.45488 1.26747 3.00558C1.45014 2.54326 1.74371 2.11349 2.14166 1.74233C2.64399 1.24744 3.21808 1 3.83131 1C4.08574 1 4.34669 1.0586 4.5685 1.16279C4.82293 1.28 5.03821 1.45581 5.19478 1.69023L6.70829 3.81953C6.84529 4.00837 6.94967 4.1907 7.02144 4.37302C7.10624 4.56837 7.15191 4.76372 7.15191 4.95256C7.15191 5.2 7.08015 5.44093 6.94315 5.66884C6.84529 5.84465 6.69525 6.03349 6.50606 6.22233L6.06244 6.68465C6.06897 6.70419 6.07549 6.71721 6.08201 6.73023C6.1603 6.86698 6.31687 7.1014 6.61696 7.45302C6.93663 7.81767 7.23672 8.14977 7.53681 8.45581C7.92172 8.83349 8.24138 9.13302 8.54147 9.38047C8.91333 9.69302 9.15471 9.8493 9.29823 9.92093L9.28518 9.95349L9.76142 9.48465C9.96365 9.28279 10.1594 9.13302 10.3486 9.03535C10.7074 8.81395 11.164 8.77488 11.6207 8.96372C11.7903 9.03535 11.973 9.13302 12.1687 9.26977L14.3346 10.8065C14.576 10.9693 14.7521 11.1777 14.8565 11.4251C14.9543 11.6726 15 11.9005 15 12.1284C15 12.4409 14.9282 12.7535 14.7912 13.0465C14.6542 13.3395 14.4846 13.5935 14.2693 13.8279C13.8975 14.2381 13.493 14.5312 13.0233 14.72C12.5732 14.9023 12.0839 15 11.5685 15ZM3.83131 1.97674C3.47251 1.97674 3.1398 2.13302 2.82013 2.44558C2.52004 2.72558 2.31128 3.03163 2.1808 3.36372C2.0438 3.70233 1.97856 4.06047 1.97856 4.44465C1.97856 5.05023 2.12209 5.70791 2.40913 6.38512C2.7027 7.07535 3.1137 7.79163 3.6356 8.50791C4.1575 9.22419 4.75117 9.92093 5.40354 10.5786C6.05592 11.2233 6.76048 11.8223 7.48462 12.3498C8.18919 12.8642 8.91333 13.2809 9.63094 13.5805C10.7465 14.0558 11.7903 14.1665 12.6514 13.8084C12.9842 13.6716 13.2777 13.4633 13.5452 13.1637C13.6952 13.0009 13.8127 12.8251 13.9105 12.6167C13.9888 12.454 14.028 12.2847 14.028 12.1153C14.028 12.0112 14.0084 11.907 13.9562 11.7898C13.9366 11.7507 13.8975 11.6791 13.7735 11.5944L11.6076 10.0577C11.4772 9.96651 11.3597 9.9014 11.2488 9.85581C11.1053 9.79721 11.0466 9.7386 10.8248 9.87535C10.6943 9.94047 10.5769 10.0381 10.4464 10.1684L9.95061 10.6567C9.69618 10.9042 9.30475 10.9628 9.00466 10.8521L8.82852 10.774C8.56104 10.6307 8.2479 10.4093 7.90214 10.1163C7.589 9.8493 7.24977 9.53674 6.83877 9.13302C6.51911 8.80744 6.19944 8.46233 5.86673 8.07814C5.56011 7.72 5.3383 7.41395 5.2013 7.16L5.12302 6.96465C5.08388 6.81488 5.07083 6.73023 5.07083 6.63907C5.07083 6.40465 5.15564 6.19628 5.31873 6.03349L5.80801 5.52558C5.93849 5.39535 6.03635 5.27163 6.10158 5.16093C6.15377 5.07628 6.17335 5.00465 6.17335 4.93954C6.17335 4.88744 6.15377 4.8093 6.12116 4.73116C6.07549 4.62698 6.00373 4.50977 5.9124 4.38605L4.39888 2.25023C4.33364 2.15907 4.25536 2.09395 4.1575 2.04837C4.05312 2.00279 3.94222 1.97674 3.83131 1.97674ZM9.28518 9.96L9.1808 10.4028L9.35694 9.94698C9.32432 9.94047 9.29823 9.94698 9.28518 9.96Z" />
</svg>
