<svg width="16" height="16" viewBox="0 0 16 16"  xmlns="http://www.w3.org/2000/svg">
<path d="M9.03603 1.77489C9.61176 1.23544 10.5002 1.23776 11.0728 1.76142L11.1562 1.84388L14.3329 5.23424C14.4129 5.31962 14.4826 5.41406 14.5407 5.51564C14.9338 6.20364 14.7223 7.07188 14.0737 7.50581L13.9826 7.56221L10.7182 9.42754C10.6397 9.47241 10.5752 9.53748 10.5311 9.61548L10.5019 9.67628L9.3005 12.6853C9.17623 12.9966 8.7927 13.0945 8.5357 12.8998L8.48263 12.8536L6.32414 10.6961L3.02342 14.0022L2.31348 14L2.31484 13.2966L5.61681 9.98881L3.48022 7.85361C3.24318 7.61668 3.30442 7.22561 3.58473 7.06614L3.64812 7.03568L6.64497 5.83794C6.73263 5.80292 6.8081 5.744 6.86323 5.66853L6.90056 5.60894L8.7381 2.1636C8.81543 2.01858 8.9161 1.88726 9.03603 1.77489ZM13.6032 5.91798L10.4265 2.52761C10.2377 2.3261 9.9213 2.31581 9.71976 2.50462C9.6931 2.52959 9.6693 2.55737 9.64876 2.58744L9.62043 2.63419L7.78296 6.07954C7.6349 6.35714 7.40383 6.58025 7.1235 6.71868L7.0161 6.76654L4.72377 7.68268L8.65303 11.6101L9.57323 9.30548C9.68323 9.02994 9.8721 8.79408 10.1148 8.62674L10.2221 8.55928L13.4864 6.69394C13.7262 6.55697 13.8094 6.25154 13.6724 6.01178L13.6406 5.96286L13.6032 5.91798Z" />
</svg>
