<svg width="16" height="16" viewBox="0 0 16 16"  xmlns="http://www.w3.org/2000/svg">
<path d="M4 4.5C4 4.22386 3.77614 4 3.5 4C3.22386 4 3 4.22386 3 4.5V11.5C3 11.7761 3.22386 12 3.5 12C3.77614 12 4 11.7761 4 11.5L4 4.5Z" />
<path fill-rule="evenodd" clip-rule="evenodd" d="M13.0002 5.78957C13.0002 4.61609 11.7134 3.89706 10.714 4.51208L7.12206 6.72252C6.17025 7.30824 6.17025 8.69177 7.12206 9.27749L10.714 11.4879C11.7134 12.1029 13.0002 11.3839 13.0002 10.2104V5.78957ZM11.2381 5.36374C11.5712 5.15873 12.0002 5.39841 12.0002 5.78957V10.2104C12.0002 10.6016 11.5712 10.8413 11.2381 10.6363L7.64615 8.42583C7.32889 8.23059 7.32889 7.76942 7.64615 7.57418L11.2381 5.36374Z" />
</svg>
