<svg width="16" height="16" viewBox="0 0 16 16"  xmlns="http://www.w3.org/2000/svg">
<path fill-rule="evenodd" clip-rule="evenodd" d="M6 7C7.10457 7 8 6.10457 8 5C8 3.89543 7.10457 3 6 3C4.89543 3 4 3.89543 4 5C4 6.10457 4.89543 7 6 7ZM6 8C7.65685 8 9 6.65685 9 5C9 3.34315 7.65685 2 6 2C4.34315 2 3 3.34315 3 5C3 6.65685 4.34315 8 6 8Z" />
<path fill-rule="evenodd" clip-rule="evenodd" d="M3 9.5C3 9.22386 3.22386 9 3.5 9H12.5C12.7761 9 13 9.22386 13 9.5C13 9.77614 12.7761 10 12.5 10H3.5C3.22386 10 3 9.77614 3 9.5Z" />
<path fill-rule="evenodd" clip-rule="evenodd" d="M3 13.5C3 13.2239 3.22386 13 3.5 13H10.5C10.7761 13 11 13.2239 11 13.5C11 13.7761 10.7761 14 10.5 14H3.5C3.22386 14 3 13.7761 3 13.5Z" />
<path fill-rule="evenodd" clip-rule="evenodd" d="M3 11.5C3 11.2239 3.22386 11 3.5 11H10.5C10.7761 11 11 11.2239 11 11.5C11 11.7761 10.7761 12 10.5 12H3.5C3.22386 12 3 11.7761 3 11.5Z" />
</svg>
