<svg width="16" height="16" viewBox="0 0 16 16"  xmlns="http://www.w3.org/2000/svg">
<path fill-rule="evenodd" clip-rule="evenodd" d="M8 7C9.10457 7 10 6.10457 10 5C10 3.89543 9.10457 3 8 3C6.89543 3 6 3.89543 6 5C6 6.10457 6.89543 7 8 7ZM8 8C9.65685 8 11 6.65685 11 5C11 3.34315 9.65685 2 8 2C6.34315 2 5 3.34315 5 5C5 6.65685 6.34315 8 8 8Z" />
<path fill-rule="evenodd" clip-rule="evenodd" d="M3 9.5C3 9.22386 3.22386 9 3.5 9H12.5C12.7761 9 13 9.22386 13 9.5C13 9.77614 12.7761 10 12.5 10H3.5C3.22386 10 3 9.77614 3 9.5Z" />
<path fill-rule="evenodd" clip-rule="evenodd" d="M4 13.5C4 13.2239 4.22386 13 4.5 13H11.5C11.7761 13 12 13.2239 12 13.5C12 13.7761 11.7761 14 11.5 14H4.5C4.22386 14 4 13.7761 4 13.5Z" />
<path fill-rule="evenodd" clip-rule="evenodd" d="M4 11.5C4 11.2239 4.22386 11 4.5 11H11.5C11.7761 11 12 11.2239 12 11.5C12 11.7761 11.7761 12 11.5 12H4.5C4.22386 12 4 11.7761 4 11.5Z" />
</svg>
