<svg width="16" height="16" viewBox="0 0 16 16"  xmlns="http://www.w3.org/2000/svg">
<path fill-rule="evenodd" clip-rule="evenodd" d="M4.5 10C5.32843 10 6 9.32843 6 8.5C6 7.67157 5.32843 7 4.5 7C3.67157 7 3 7.67157 3 8.5C3 9.32843 3.67157 10 4.5 10ZM4.5 11C5.88071 11 7 9.88071 7 8.5C7 7.11929 5.88071 6 4.5 6C3.11929 6 2 7.11929 2 8.5C2 9.88071 3.11929 11 4.5 11Z" />
<path fill-rule="evenodd" clip-rule="evenodd" d="M8 6.5C8 6.22386 8.22386 6 8.5 6H13.5C13.7761 6 14 6.22386 14 6.5C14 6.77614 13.7761 7 13.5 7H8.5C8.22386 7 8 6.77614 8 6.5Z" />
<path fill-rule="evenodd" clip-rule="evenodd" d="M8 8.5C8 8.22386 8.22386 8 8.5 8H12.5C12.7761 8 13 8.22386 13 8.5C13 8.77614 12.7761 9 12.5 9H8.5C8.22386 9 8 8.77614 8 8.5Z" />
<path fill-rule="evenodd" clip-rule="evenodd" d="M8 10.5C8 10.2239 8.22386 10 8.5 10H12.5C12.7761 10 13 10.2239 13 10.5C13 10.7761 12.7761 11 12.5 11H8.5C8.22386 11 8 10.7761 8 10.5Z" />
</svg>
