<svg width="16" height="16" viewBox="0 0 16 16"  xmlns="http://www.w3.org/2000/svg">
<path fill-rule="evenodd" clip-rule="evenodd" d="M12 6H4C2.89543 6 2 6.89543 2 8C2 9.10457 2.89543 10 4 10H12C13.1046 10 14 9.10457 14 8C14 6.89543 13.1046 6 12 6ZM4 5C2.34315 5 1 6.34315 1 8C1 9.65685 2.34315 11 4 11H12C13.6569 11 15 9.65685 15 8C15 6.34315 13.6569 5 12 5H4Z" />
<path fill-rule="evenodd" clip-rule="evenodd" d="M3 8C3 7.44772 3.44772 7 4 7H9C9.55228 7 10 7.44772 10 8C10 8.55228 9.55228 9 9 9H4C3.44772 9 3 8.55228 3 8Z" />
</svg>
