<svg width="16" height="16" viewBox="0 0 16 16"  xmlns="http://www.w3.org/2000/svg">
<path fill-rule="evenodd" clip-rule="evenodd" d="M8 14C11.3137 14 14 11.3137 14 8C14 4.68629 11.3137 2 8 2C4.68629 2 2 4.68629 2 8C2 11.3137 4.68629 14 8 14ZM8 15C11.866 15 15 11.866 15 8C15 4.13401 11.866 1 8 1C4.13401 1 1 4.13401 1 8C1 11.866 4.13401 15 8 15Z" />
<path fill-rule="evenodd" clip-rule="evenodd" d="M6.38715 6.01935C6.20072 6.12137 5.99778 6.38801 5.99778 6.94223V9.05787C5.99778 9.6121 6.20072 9.87874 6.38715 9.98075C6.57335 10.0826 6.91799 10.116 7.42424 9.83915C7.42432 9.83911 7.42416 9.8392 7.42424 9.83915L9.35302 8.78148C9.85928 8.5046 10.0022 8.20452 10.0022 8.00005C10.0022 7.79558 9.85977 7.49578 9.35352 7.2189L7.42447 6.16108C7.4244 6.16103 7.42455 6.16112 7.42447 6.16108C6.91822 5.88427 6.57335 5.91747 6.38715 6.01935ZM5.8878 5.20166C6.48981 4.87225 7.23268 4.96538 7.92364 5.34328L9.85269 6.4011C9.85274 6.40113 9.85263 6.40107 9.85269 6.4011C10.5437 6.77907 11 7.34195 11 8.00005C11 8.65805 10.544 9.22076 9.85318 9.59873L7.92414 10.6566C7.23318 11.0344 6.48981 11.1279 5.8878 10.7984C5.28598 10.4691 5 9.81334 5 9.05787V6.94223C5 6.18677 5.28598 5.53096 5.8878 5.20166Z" />
</svg>
