<svg width="16" height="16" viewBox="0 0 16 16" xmlns="http://www.w3.org/2000/svg">
<path fill-rule="evenodd" clip-rule="evenodd" d="M0.833008 8.23331C0.833008 7.95716 1.05687 7.73331 1.33301 7.73331H5.19967C6.50977 7.73331 7.41968 8.74468 7.41968 9.95332V12.1C7.41968 13.3087 6.50976 14.32 5.19967 14.32H3.05302C1.83023 14.32 0.833008 13.3228 0.833008 12.1V8.23331ZM1.83301 8.73331V12.1C1.83301 12.7705 2.38248 13.32 3.05302 13.32H5.19967C5.92957 13.32 6.41968 12.7847 6.41968 12.1V9.95332C6.41968 9.26862 5.92956 8.73331 5.19967 8.73331H1.83301Z" />
<path fill-rule="evenodd" clip-rule="evenodd" d="M4.78289 1.93131C4.92393 2.16871 4.84582 2.4755 4.60841 2.61655C3.46565 3.29548 2.82673 3.73968 2.42888 4.4475C2.02536 5.16541 1.83301 6.22571 1.83301 8.23332C1.83301 8.50947 1.60915 8.73332 1.33301 8.73332C1.05687 8.73332 0.833008 8.50947 0.833008 8.23332C0.833008 6.20761 1.01733 4.91793 1.55715 3.95752C2.10265 2.98702 2.97373 2.42457 4.09764 1.75683C4.33505 1.61579 4.64184 1.6939 4.78289 1.93131Z" />
<path fill-rule="evenodd" clip-rule="evenodd" d="M8.58691 8.23331C8.58691 7.95716 8.81077 7.73331 9.08691 7.73331H12.9536C14.2637 7.73331 15.1736 8.74468 15.1736 9.95332V12.1C15.1736 13.3087 14.2637 14.32 12.9536 14.32H10.8069C9.58413 14.32 8.58691 13.3228 8.58691 12.1V8.23331ZM9.58691 8.73331V12.1C9.58691 12.7705 10.1364 13.32 10.8069 13.32H12.9536C13.6835 13.32 14.1736 12.7847 14.1736 12.1V9.95332C14.1736 9.26862 13.6835 8.73331 12.9536 8.73331H9.58691Z" />
<path fill-rule="evenodd" clip-rule="evenodd" d="M12.5368 1.93131C12.6778 2.16871 12.5997 2.4755 12.3623 2.61655C11.2195 3.29548 10.5806 3.73968 10.1828 4.44749C9.77926 5.1654 9.58691 6.2257 9.58691 8.23332C9.58691 8.50947 9.36306 8.73332 9.08691 8.73332C8.81077 8.73332 8.58691 8.50947 8.58691 8.23332C8.58691 6.20761 8.77122 4.91793 9.31103 3.95752C9.85652 2.98702 10.7276 2.42457 11.8515 1.75683C12.0889 1.61579 12.3957 1.6939 12.5368 1.93131Z" />
</svg>
