<svg width="16" height="16" viewBox="0 0 16 16"  xmlns="http://www.w3.org/2000/svg">
<path d="M4 8.5C4 8.22386 4.22386 8 4.5 8H7.5C7.77614 8 8 8.22386 8 8.5C8 8.77614 7.77614 9 7.5 9H4.5C4.22386 9 4 8.77614 4 8.5Z" />
<path d="M3.5 6C3.22386 6 3 6.22386 3 6.5C3 6.77614 3.22386 7 3.5 7H8.5C8.77614 7 9 6.77614 9 6.5C9 6.22386 8.77614 6 8.5 6H3.5Z" />
<path fill-rule="evenodd" clip-rule="evenodd" d="M3.98571 1C2.94635 1 2.17049 1.33904 1.66463 1.97208C1.16992 2.59115 1 3.40946 1 4.22654V14.4156C1 15.3961 2.03253 15.9605 2.76054 15.3661L2.7618 15.3651L3.83486 14.4971C3.89625 14.4473 3.98599 14.4506 4.04837 14.5177L5.09078 15.651L5.09178 15.6521C5.52103 16.116 6.22183 16.116 6.65108 15.6521L7.70707 14.5109C7.76256 14.451 7.8492 14.4483 7.9034 14.4934L8.98323 15.3669L8.98471 15.3681C9.70791 15.9483 10.7429 15.3949 10.7429 14.4156V8H12.78C13.4137 8 13.9798 7.79731 14.3885 7.38856C14.7973 6.9798 15 6.41371 15 5.78V4.16667C15 3.29417 14.6427 2.50346 14.076 1.92889L14.0736 1.92645C13.5022 1.35509 12.7108 1.00791 11.8513 1.00002L11.8467 1C11.7742 1 11.7027 1.0042 11.6323 1.01237C11.5989 1.00427 11.5642 1 11.5286 1H3.98571ZM3.98571 2.01891H9.98966C9.86847 2.27392 9.8 2.56262 9.8 2.868V14.4156C9.8 14.55 9.65375 14.6352 9.54727 14.5504L8.47546 13.6834C8.03954 13.3235 7.42406 13.3758 7.04037 13.7904L5.98438 14.9316C5.92343 14.9975 5.81956 14.9973 5.75848 14.9316L4.71607 13.7983L4.71507 13.7972C4.32488 13.3756 3.7105 13.3243 3.26914 13.682L2.19463 14.5512L2.19245 14.5529C2.09081 14.6361 1.94286 14.5621 1.94286 14.4156V4.22654C1.94286 3.54242 2.08722 3.00219 2.37823 2.63802C2.65808 2.28782 3.13937 2.01891 3.98571 2.01891ZM11 2.84C11 2.38008 11.3784 2.00116 11.8445 2C12.4368 2.00608 12.9772 2.24495 13.3653 2.63235C13.7578 3.031 14 3.57311 14 4.16667V5.78C14 6.19962 13.8694 6.49353 13.6814 6.68145C13.4935 6.86936 13.1996 7 12.78 7H11V2.84Z" />
</svg>
