<svg width="16" height="16" viewBox="0 0 16 16"  xmlns="http://www.w3.org/2000/svg">
<path d="M2 8C2 4.68629 4.68629 2 8 2C10.3141 2 12.3231 3.30994 13.3244 5.23109C13.3277 5.2375 13.3312 5.2438 13.3348 5.25H11.5C11.2239 5.25 11 5.47386 11 5.75C11 6.02614 11.2239 6.25 11.5 6.25H14.5C14.7761 6.25 15 6.02614 15 5.75V2.75C15 2.47386 14.7761 2.25 14.5 2.25C14.2239 2.25 14 2.47386 14 2.75V4.39257C12.7757 2.36054 10.5471 1 8 1C4.13401 1 1 4.13401 1 8C1 8.27614 1.22386 8.5 1.5 8.5C1.77614 8.5 2 8.27614 2 8Z" />
<path d="M15.0003 8C15.0003 7.72386 14.7765 7.5 14.5003 7.5C14.2242 7.5 14.0003 7.72386 14.0003 8C14.0003 11.3137 11.314 14 8.00031 14C5.78022 14 3.84096 12.7943 2.80291 11H4.5C4.77614 11 5 10.7761 5 10.5C5 10.2239 4.77614 10 4.5 10H1.5C1.22386 10 1 10.2239 1 10.5V13.5C1 13.7761 1.22386 14 1.5 14C1.77614 14 2 13.7761 2 13.5L2 11.6069C3.22421 13.6392 5.45298 15 8.00031 15C11.8663 15 15.0003 11.866 15.0003 8Z" />
</svg>
