<svg width="16" height="16" viewBox="0 0 16 16"  xmlns="http://www.w3.org/2000/svg">
<path fill-rule="evenodd" clip-rule="evenodd" d="M4.05651 5.93783C5.16936 5.68486 6 4.68943 6 3.5C6 2.11929 4.88071 1 3.5 1C2.11929 1 1 2.11929 1 3.5C1 4.70948 1.85888 5.71836 3 5.94999V10.05C1.85888 10.2816 1 11.2905 1 12.5C1 13.8807 2.11929 15 3.5 15C4.88071 15 6 13.8807 6 12.5C6 11.2905 5.14112 10.2816 4 10.05V7.75863C4.34272 8.07568 4.79294 8.33862 5.37873 8.48507C5.93596 8.62438 6.61415 8.65629 7.26269 8.68681L7.28585 8.6879C7.95124 8.71921 8.61012 8.7502 9.21894 8.86617C9.83213 8.98297 10.3462 9.17804 10.7303 9.50551C10.9594 9.70083 11.1584 9.95686 11.3031 10.3046C10.5267 10.7288 10 11.5529 10 12.5C10 13.8807 11.1193 15 12.5 15C13.8807 15 15 13.8807 15 12.5C15 11.1193 13.8807 10 12.5 10C12.4199 10 12.3407 10.0038 12.2625 10.0111C12.061 9.48629 11.76 9.06921 11.3791 8.74449C10.8101 8.25946 10.1054 8.01703 9.40606 7.88383C8.72682 7.75445 8.00711 7.72066 7.36421 7.69048L7.31257 7.68805C6.63385 7.65611 6.06322 7.62542 5.62127 7.51493C4.61916 7.2644 4.19566 6.51412 4.05651 5.93783ZM3.5 5C4.32843 5 5 4.32843 5 3.5C5 2.67157 4.32843 2 3.5 2C2.67157 2 2 2.67157 2 3.5C2 4.32843 2.67157 5 3.5 5ZM3.5 11C2.67157 11 2 11.6716 2 12.5C2 13.3284 2.67157 14 3.5 14C4.32843 14 5 13.3284 5 12.5C5 11.6716 4.32843 11 3.5 11ZM12.5 14C13.3284 14 14 13.3284 14 12.5C14 11.6716 13.3284 11 12.5 11C11.6716 11 11 11.6716 11 12.5C11 13.3284 11.6716 14 12.5 14Z" />
</svg>
