<svg width="16" height="16" viewBox="0 0 16 16"  xmlns="http://www.w3.org/2000/svg">
<path d="M2 7.5C2 5.29086 3.79086 3.5 6 3.5H14C14.2761 3.5 14.5 3.27614 14.5 3C14.5 2.72386 14.2761 2.5 14 2.5H6C3.23858 2.5 1 4.73858 1 7.5C1 10.2614 3.23858 12.5 6 12.5H13.2929L12.1464 13.6465C11.9512 13.8417 11.9512 14.1583 12.1464 14.3536C12.3417 14.5488 12.6583 14.5488 12.8536 14.3536L14.8536 12.3536C15.0488 12.1583 15.0488 11.8417 14.8536 11.6465L12.8536 9.64646C12.6583 9.4512 12.3417 9.4512 12.1464 9.64646C11.9512 9.84172 11.9512 10.1583 12.1464 10.3536L13.2929 11.5H6C3.79086 11.5 2 9.70914 2 7.5Z" />
</svg>
