<svg width="16" height="16" viewBox="0 0 16 16"  xmlns="http://www.w3.org/2000/svg">
<path d="M4.62745 3.03754C5.83586 2.21629 7.30241 1.86418 8.75196 2.04729C10.2015 2.2304 11.5344 2.93614 12.5007 4.0321C13.4669 5.12806 14 6.53892 14 7.99999H15C15 6.29541 14.378 4.6494 13.2508 3.37078C12.1235 2.09216 10.5684 1.2688 8.87729 1.05518C7.18615 0.84155 5.47517 1.25234 4.06536 2.21047C2.65554 3.1686 1.64379 4.60823 1.2199 6.25926C0.796014 7.9103 0.989134 9.65927 1.76303 11.178C2.53692 12.6968 3.8384 13.881 5.42329 14.5085C7.00818 15.1359 8.76757 15.1635 10.3714 14.5861C11.9751 14.0086 13.3131 12.8658 14.1343 11.3721L13.2579 10.8903C12.5541 12.1707 11.4073 13.1503 10.0326 13.6452C8.65792 14.1402 7.14987 14.1165 5.79139 13.5787C4.43291 13.0409 3.31736 12.0258 2.65402 10.724C1.99069 9.42223 1.82516 7.92311 2.18849 6.50794C2.55182 5.09277 3.41904 3.8588 4.62745 3.03754Z" />
<path d="M13.9148 9.00729C13.8567 9.34836 13.7692 9.68375 13.6533 10.0097L14.5956 10.3447C14.7308 9.96438 14.8328 9.57308 14.9006 9.17517L13.9148 9.00729Z" />
<path d="M7.84294 10.9959C8.47561 11.029 9.10253 10.8611 9.63386 10.516C10.1652 10.171 10.5736 9.66656 10.8007 9.07511C11.0277 8.48365 11.0617 7.8355 10.8977 7.22355C10.7338 6.6116 10.3803 6.06726 9.88791 5.66856C9.39556 5.26987 8.78962 5.03727 8.15695 5.00412C7.52428 4.97096 6.89736 5.13894 6.36603 5.48399L5.82139 4.64532C6.52983 4.18526 7.36573 3.96128 8.20929 4.00549C9.05285 4.04969 9.86076 4.35982 10.5172 4.89142C11.1737 5.42302 11.645 6.14879 11.8636 6.96473C12.0823 7.78066 12.037 8.64486 11.7343 9.43347C11.4315 10.2221 10.8869 10.8946 10.1785 11.3547C9.47006 11.8148 8.63416 12.0387 7.7906 11.9945C6.94704 11.9503 6.13913 11.6402 5.48267 11.1086C4.8262 10.577 4.35487 9.85121 4.13624 9.03528L5.10217 8.77646C5.26614 9.38841 5.61963 9.93274 6.11198 10.3314C6.60434 10.7301 7.21027 10.9627 7.84294 10.9959Z" />
<path d="M5.00182 7.8953C5.02393 7.26215 5.24592 6.65225 5.63596 6.15302L4.84795 5.53735C4.32789 6.203 4.03191 7.0162 4.00243 7.8604L5.00182 7.8953Z" />
</svg>
