<svg width="16" height="16" viewBox="0 0 16 16"  xmlns="http://www.w3.org/2000/svg">
<path fill-rule="evenodd" clip-rule="evenodd" d="M7 12C9.76142 12 12 9.76142 12 7C12 4.23858 9.76142 2 7 2C4.23858 2 2 4.23858 2 7C2 9.76142 4.23858 12 7 12ZM7 13C10.3137 13 13 10.3137 13 7C13 3.68629 10.3137 1 7 1C3.68629 1 1 3.68629 1 7C1 10.3137 3.68629 13 7 13Z" />
<path fill-rule="evenodd" clip-rule="evenodd" d="M14.8535 14.8536C14.6582 15.0488 14.3416 15.0488 14.1464 14.8536L11.6464 12.3536C11.4511 12.1583 11.4511 11.8417 11.6464 11.6464C11.8416 11.4512 12.1582 11.4512 12.3535 11.6464L14.8535 14.1464C15.0487 14.3417 15.0487 14.6583 14.8535 14.8536Z" />
</svg>
