<svg width="16" height="16" viewBox="0 0 16 16"  xmlns="http://www.w3.org/2000/svg">
<path d="M3.5 7H4.5C4.77614 7 5 6.77614 5 6.5C5 6.22386 4.77614 6 4.5 6H1.5C1.22386 6 1 6.22386 1 6.5C1 6.77614 1.22386 7 1.5 7H2.5V14.5C2.5 14.7761 2.72386 15 3 15C3.27614 15 3.5 14.7761 3.5 14.5V7Z" />
<path d="M3 1C3.27614 1 3.5 1.22386 3.5 1.5V4.5C3.5 4.77614 3.27614 5 3 5C2.72386 5 2.5 4.77614 2.5 4.5V1.5C2.5 1.22386 2.72386 1 3 1Z" />
<path d="M13 1C13.2761 1 13.5 1.22386 13.5 1.5V5.5C13.5 5.77614 13.2761 6 13 6C12.7239 6 12.5 5.77614 12.5 5.5V1.5C12.5 1.22386 12.7239 1 13 1Z" />
<path d="M12.5 14.5V8H11.5C11.2239 8 11 7.77614 11 7.5C11 7.22386 11.2239 7 11.5 7H14.5C14.7761 7 15 7.22386 15 7.5C15 7.77614 14.7761 8 14.5 8H13.5V14.5C13.5 14.7761 13.2761 15 13 15C12.7239 15 12.5 14.7761 12.5 14.5Z" />
<path d="M8.5 14.5C8.5 14.7761 8.27614 15 8 15C7.72386 15 7.5 14.7761 7.5 14.5V11.5C7.5 11.2239 7.72386 11 8 11C8.27614 11 8.5 11.2239 8.5 11.5V14.5Z" />
<path d="M8.5 9H9.5C9.77614 9 10 9.22386 10 9.5C10 9.77614 9.77614 10 9.5 10H6.5C6.22386 10 6 9.77614 6 9.5C6 9.22386 6.22386 9 6.5 9H7.5V1.50003C7.5 1.22389 7.72386 1.00003 8 1.00003C8.27614 1.00003 8.5 1.22389 8.5 1.50003V9Z" />
</svg>
