<svg width="16" height="16" viewBox="0 0 16 16"  xmlns="http://www.w3.org/2000/svg">
<path fill-rule="evenodd" clip-rule="evenodd" d="M12 4C12.5523 4 13 3.55228 13 3C13 2.44772 12.5523 2 12 2C11.4477 2 11 2.44772 11 3C11 3.55228 11.4477 4 12 4ZM12 5C13.1046 5 14 4.10457 14 3C14 1.89543 13.1046 1 12 1C10.8954 1 10 1.89543 10 3C10 4.10457 10.8954 5 12 5Z" />
<path fill-rule="evenodd" clip-rule="evenodd" d="M4 9C4.55228 9 5 8.55228 5 8C5 7.44772 4.55228 7 4 7C3.44772 7 3 7.44772 3 8C3 8.55228 3.44772 9 4 9ZM4 10C5.10457 10 6 9.10457 6 8C6 6.89543 5.10457 6 4 6C2.89543 6 2 6.89543 2 8C2 9.10457 2.89543 10 4 10Z" />
<path fill-rule="evenodd" clip-rule="evenodd" d="M11.2519 3.93189L5.25194 7.43189L4.74806 6.56811L10.7481 3.06811L11.2519 3.93189Z" />
<path fill-rule="evenodd" clip-rule="evenodd" d="M10.7481 12.9319L4.74806 9.43189L5.25194 8.56811L11.2519 12.0681L10.7481 12.9319Z" />
<path fill-rule="evenodd" clip-rule="evenodd" d="M12 14C12.5523 14 13 13.5523 13 13C13 12.4477 12.5523 12 12 12C11.4477 12 11 12.4477 11 13C11 13.5523 11.4477 14 12 14ZM12 15C13.1046 15 14 14.1046 14 13C14 11.8954 13.1046 11 12 11C10.8954 11 10 11.8954 10 13C10 14.1046 10.8954 15 12 15Z" />
</svg>
