<svg width="16" height="16" viewBox="0 0 16 16"  xmlns="http://www.w3.org/2000/svg">
<path fill-rule="evenodd" clip-rule="evenodd" d="M6.75659 1.20645C7.1474 1.05579 7.59665 1 7.99564 1C8.39585 1 8.84419 1.05614 9.23601 1.20363L9.24448 1.20681L12.1449 2.32872C12.7122 2.54786 13.1668 2.97294 13.4738 3.43099C13.782 3.89074 14 4.46977 14 5.07388V9.53244C14 10.0788 13.8317 10.6394 13.6031 11.1084C13.375 11.5766 13.0372 12.0551 12.605 12.3885L10.1072 14.313L10.1059 14.314C9.49178 14.79 8.72378 15 8 15C7.27622 15 6.50822 14.79 5.89412 14.314L5.89278 14.313L3.39547 12.3888C2.96324 12.0554 2.625 11.5766 2.39685 11.1084C2.16828 10.6394 2 10.0788 2 9.53244V5.07388C2 4.47132 2.21899 3.89349 2.52675 3.43536C2.83344 2.97883 3.2869 2.55439 3.85372 2.33525L3.85507 2.33472L6.75659 1.20645ZM4.21512 3.26766C3.54651 3.52569 3 4.34179 3 5.07388V9.53244C3 10.2405 3.45349 11.1706 4.00581 11.5967L6.50581 13.5229C7.32558 14.159 8.67442 14.159 9.49419 13.5229L11.9942 11.5967C12.5465 11.1706 13 10.2405 13 9.53244V5.07388C13 4.33579 12.4535 3.51969 11.7849 3.26166L8.88372 2.13952C8.38953 1.95349 7.59884 1.95349 7.11628 2.13952L4.21512 3.26766Z" />
<path fill-rule="evenodd" clip-rule="evenodd" d="M8.5 8.93699C9.36261 8.71497 10 7.93192 10 7C10 5.89543 9.10457 5 8 5C6.89543 5 6 5.89543 6 7C6 7.93192 6.63739 8.71497 7.5 8.93699V10.5C7.5 10.7761 7.72386 11 8 11C8.27614 11 8.5 10.7761 8.5 10.5V8.93699ZM9 7C9 7.55228 8.55228 8 8 8C7.44772 8 7 7.55228 7 7C7 6.44772 7.44772 6 8 6C8.55228 6 9 6.44772 9 7Z" />
</svg>
