<svg width="24" height="24" viewBox="0 0 24 24"  xmlns="http://www.w3.org/2000/svg">
<path fill-rule="evenodd" clip-rule="evenodd" d="M1 14C1 12.3431 2.34315 11 4 11H12C13.6569 11 15 12.3431 15 14V18C15 19.6569 13.6569 21 12 21H4C2.34315 21 1 19.6569 1 18V14ZM4 13C3.44772 13 3 13.4477 3 14V18C3 18.5523 3.44772 19 4 19H12C12.5523 19 13 18.5523 13 18V14C13 13.4477 12.5523 13 12 13H4Z" />
<path d="M19 4C19 4.55228 18.5523 5 18 5C17.4477 5 17 4.55228 17 4C17 3.44772 17.4477 3 18 3C18.5523 3 19 3.44772 19 4Z" />
<path d="M23 4C23 4.55228 22.5523 5 22 5C21.4477 5 21 4.55228 21 4C21 3.44772 21.4477 3 22 3C22.5523 3 23 3.44772 23 4Z" />
<path d="M23 16C23 16.5523 22.5523 17 22 17C21.4477 17 21 16.5523 21 16C21 15.4477 21.4477 15 22 15C22.5523 15 23 15.4477 23 16Z" />
<path d="M15 4C15 4.55228 14.5523 5 14 5C13.4477 5 13 4.55228 13 4C13 3.44772 13.4477 3 14 3C14.5523 3 15 3.44772 15 4Z" />
<path d="M23 8C23 8.55228 22.5523 9 22 9C21.4477 9 21 8.55228 21 8C21 7.44772 21.4477 7 22 7C22.5523 7 23 7.44772 23 8Z" />
<path d="M23 12C23 12.5523 22.5523 13 22 13C21.4477 13 21 12.5523 21 12C21 11.4477 21.4477 11 22 11C22.5523 11 23 11.4477 23 12Z" />
<path d="M3 8C3 8.55228 2.55228 9 2 9C1.44772 9 1 8.55228 1 8C1 7.44772 1.44772 7 2 7C2.55228 7 3 7.44772 3 8Z" />
<path d="M3 4C3 4.55228 2.55228 5 2 5C1.44772 5 1 4.55228 1 4C1 3.44772 1.44772 3 2 3C2.55228 3 3 3.44772 3 4Z" />
<path d="M7 4C7 4.55228 6.55228 5 6 5C5.44772 5 5 4.55228 5 4C5 3.44772 5.44772 3 6 3C6.55228 3 7 3.44772 7 4Z" />
<path d="M11 4C11 4.55228 10.5523 5 10 5C9.44772 5 9 4.55228 9 4C9 3.44772 9.44772 3 10 3C10.5523 3 11 3.44772 11 4Z" />
<path d="M19 20C19 20.5523 18.5523 21 18 21C17.4477 21 17 20.5523 17 20C17 19.4477 17.4477 19 18 19C18.5523 19 19 19.4477 19 20Z" />
<path d="M23 20C23 20.5523 22.5523 21 22 21C21.4477 21 21 20.5523 21 20C21 19.4477 21.4477 19 22 19C22.5523 19 23 19.4477 23 20Z" />
</svg>
