<svg width="16" height="16" viewBox="0 0 16 16"  xmlns="http://www.w3.org/2000/svg">
<path fill-rule="evenodd" clip-rule="evenodd" d="M11 6.5C11 6.22386 10.7761 6 10.5 6C10.2239 6 10 6.22386 10 6.5V7H3.5C2.67157 7 2 7.67157 2 8.5C2 9.32843 2.67157 10 3.5 10H10V10.5C10 10.7761 10.2239 11 10.5 11C10.7761 11 11 10.7761 11 10.5V10H12.5C13.3284 10 14 9.32843 14 8.5C14 7.67157 13.3284 7 12.5 7H11V6.5ZM10 8H3.5C3.22386 8 3 8.22386 3 8.5C3 8.77614 3.22386 9 3.5 9H10V8ZM11 9V8H12.5C12.7761 8 13 8.22386 13 8.5C13 8.77614 12.7761 9 12.5 9H11Z" />
</svg>
