<svg width="16" height="16" viewBox="0 0 16 16"  xmlns="http://www.w3.org/2000/svg">
<path d="M1.85995 12.5L2.73795 10.028H6.26595L7.14395 12.5H8.25195L5.04795 3.77301H3.95695L0.751953 12.5H1.85995ZM3.06995 9.09001L4.46795 5.15301H4.53595L5.93395 9.09101H3.06995V9.09001ZM13.726 7.52501H14.851C14.606 6.10801 13.395 5.12801 11.826 5.12801C9.94395 5.12801 8.56995 6.54501 8.56995 8.86801C8.56995 11.168 9.90495 12.599 11.876 12.599C13.64 12.599 14.901 11.442 14.901 9.60601V8.77801H12.043V9.68401H13.839C13.815 10.856 13.04 11.598 11.876 11.598C10.594 11.598 9.65995 10.628 9.65995 8.86001C9.65995 7.09901 10.6 6.13001 11.833 6.13001C12.799 6.13001 13.453 6.66201 13.726 7.52501Z" />
</svg>
