<svg width="16" height="16" viewBox="0 0 16 16"  xmlns="http://www.w3.org/2000/svg">
<path fill-rule="evenodd" clip-rule="evenodd" d="M11.5 3H4.5C3.11929 3 2 4.11929 2 5.5V10.5C2 11.8807 3.11929 13 4.5 13H11.5C12.8807 13 14 11.8807 14 10.5V5.5C14 4.11929 12.8807 3 11.5 3ZM4.5 2C2.567 2 1 3.567 1 5.5V10.5C1 12.433 2.567 14 4.5 14H11.5C13.433 14 15 12.433 15 10.5V5.5C15 3.567 13.433 2 11.5 2H4.5Z" />
<path fill-rule="evenodd" clip-rule="evenodd" d="M11.9034 5.20454C12.0666 5.4273 12.0183 5.74018 11.7955 5.90338L9.60452 7.50851C9.14269 7.84575 8.55724 8.00003 7.99653 8.00003C7.43582 8.00003 6.851 7.84621 6.38917 7.50897L6.38792 7.50806L4.20393 5.90292C3.98142 5.73939 3.93361 5.42644 4.09714 5.20393C4.26068 4.98142 4.57363 4.93361 4.79614 5.09714L6.97889 6.70137C6.97907 6.7015 6.97871 6.70124 6.97889 6.70137C7.23803 6.89037 7.60551 7.00003 7.99653 7.00003C8.3877 7.00003 8.75477 6.89068 9.01392 6.70155C9.014 6.70149 9.01384 6.70161 9.01392 6.70155L11.2045 5.09669C11.4273 4.9335 11.7402 4.98178 11.9034 5.20454Z" />
</svg>
