<svg width="16" height="16" viewBox="0 0 16 16"  xmlns="http://www.w3.org/2000/svg">
<path fill-rule="evenodd" clip-rule="evenodd" d="M12 2H4C2.89543 2 2 2.89543 2 4V12C2 13.1046 2.89543 14 4 14H12C13.1046 14 14 13.1046 14 12V4C14 2.89543 13.1046 2 12 2ZM4 1C2.34315 1 1 2.34315 1 4V12C1 13.6569 2.34315 15 4 15H12C13.6569 15 15 13.6569 15 12V4C15 2.34315 13.6569 1 12 1H4Z" />
<path fill-rule="evenodd" clip-rule="evenodd" d="M11 9H5C4.44772 9 4 9.44772 4 10V11C4 11.5523 4.44772 12 5 12H11C11.5523 12 12 11.5523 12 11V10C12 9.44772 11.5523 9 11 9ZM5 8C3.89543 8 3 8.89543 3 10V11C3 12.1046 3.89543 13 5 13H11C12.1046 13 13 12.1046 13 11V10C13 8.89543 12.1046 8 11 8H5Z" />
<path fill-rule="evenodd" clip-rule="evenodd" d="M11 10.5C11 10.7761 10.7761 11 10.5 11H9.5C9.22386 11 9 10.7761 9 10.5C9 10.2239 9.22386 10 9.5 10H10.5C10.7761 10 11 10.2239 11 10.5Z" />
</svg>
