<svg width="16" height="16" viewBox="0 0 16 16"  xmlns="http://www.w3.org/2000/svg">
<path d="M8 1.5C8 1.22386 7.77614 1 7.5 1C7.22386 1 7 1.22386 7 1.5V14.5C7 14.7761 7.22386 15 7.5 15C7.77614 15 8 14.7761 8 14.5V1.5Z" />
<path d="M4.5 3C4.77614 3 5 3.22386 5 3.5V12.5C5 12.7761 4.77614 13 4.5 13C4.22386 13 4 12.7761 4 12.5V3.5C4 3.22386 4.22386 3 4.5 3Z" />
<path d="M1.5 5C1.77614 5 2 5.22386 2 5.5V10.5C2 10.7761 1.77614 11 1.5 11C1.22386 11 1 10.7761 1 10.5V5.5C1 5.22386 1.22386 5 1.5 5Z" />
<path d="M14 5.5C14 5.22386 13.7761 5 13.5 5C13.2239 5 13 5.22386 13 5.5V10.5C13 10.7761 13.2239 11 13.5 11C13.7761 11 14 10.7761 14 10.5V5.5Z" />
<path d="M10.5 3C10.7761 3 11 3.22386 11 3.5V12.5C11 12.7761 10.7761 13 10.5 13C10.2239 13 10 12.7761 10 12.5V3.5C10 3.22386 10.2239 3 10.5 3Z" />
</svg>
