<svg width="16" height="16" viewBox="0 0 16 16"  xmlns="http://www.w3.org/2000/svg">
<path d="M11.6888 15C11.3435 15 10.9006 14.8885 10.347 14.5607L8.39942 13.4C8.19751 13.282 7.8067 13.282 7.61129 13.4L5.65724 14.5607C4.50435 15.2492 3.82694 14.9738 3.52081 14.7508C3.22119 14.5279 2.75222 13.9574 3.05835 12.6459L3.52081 10.6328C3.57292 10.4229 3.4687 10.0623 3.31237 9.90492L1.69702 8.27869C0.889349 7.46558 0.954482 6.77049 1.06521 6.42951C1.17594 6.08852 1.52767 5.48525 2.648 5.29508L4.72581 4.94754C4.92122 4.91475 5.20129 4.70492 5.28597 4.52787L6.43886 2.21312C6.95994 1.15738 7.64386 1 8.0021 1C8.36034 1 9.04427 1.15738 9.56535 2.21312L10.7117 4.52131C10.8029 4.69836 11.083 4.9082 11.2784 4.94098L13.3562 5.28852C14.483 5.47869 14.8348 6.08197 14.939 6.42295C15.0432 6.76393 15.1083 7.45902 14.3072 8.27213L12.6918 9.90492C12.5355 10.0623 12.4378 10.4164 12.4834 10.6328L12.9459 12.6459C13.2455 13.9574 12.783 14.5279 12.4834 14.7508C12.3206 14.8689 12.06 15 11.6888 15Z" />
</svg>
