<svg width="16" height="16" viewBox="0 0 16 16"  xmlns="http://www.w3.org/2000/svg">
<path d="M11.6887 15C11.3435 15 10.9006 14.8885 10.347 14.5607L8.39942 13.4C8.19751 13.282 7.8067 13.282 7.61129 13.4L5.65724 14.5607C4.50435 15.2492 3.82694 14.9738 3.52081 14.7508C3.22118 14.5279 2.75221 13.9574 3.05835 12.6459L3.52081 10.6328C3.57291 10.423 3.4687 10.0623 3.31237 9.90492L1.69702 8.27869C0.889347 7.46557 0.954482 6.77049 1.06521 6.42951C1.17594 6.08852 1.52767 5.48525 2.64799 5.29508L4.7258 4.94754C4.92121 4.91475 5.20129 4.70492 5.28597 4.52787L6.43886 2.21311C6.95994 1.15738 7.64386 1 8.0021 1C8.36034 1 9.04426 1.15738 9.56534 2.21311L10.7117 4.52131C10.8029 4.69836 11.083 4.9082 11.2784 4.94098L13.3562 5.28852C14.483 5.47869 14.8348 6.08197 14.939 6.42295C15.0432 6.76393 15.1083 7.45902 14.3072 8.27213L12.6918 9.90492C12.5355 10.0623 12.4378 10.4164 12.4834 10.6328L12.9459 12.6459C13.2455 13.9574 12.783 14.5279 12.4834 14.7508C12.3206 14.8689 12.06 15 11.6887 15ZM8.0021 12.3246C8.32126 12.3246 8.64042 12.4033 8.89445 12.5541L10.842 13.7148C11.4087 14.0557 11.7669 14.0557 11.9037 13.9574C12.0405 13.859 12.1382 13.5115 11.9949 12.8689L11.5324 10.8557C11.4087 10.3115 11.6106 9.60984 12.0014 9.20984L13.6167 7.58361C13.9359 7.26229 14.0792 6.94754 14.0141 6.73115C13.9424 6.51475 13.6428 6.33771 13.1999 6.26557L11.1221 5.91803C10.6205 5.83279 10.0734 5.42623 9.84542 4.96721L8.69905 2.65902C8.49061 2.23934 8.23007 1.99016 8.0021 1.99016C7.77413 1.99016 7.51359 2.23934 7.31167 2.65902L6.15878 4.96721C5.9308 5.42623 5.38367 5.83279 4.88213 5.91803L2.81083 6.26557C2.36791 6.33771 2.06829 6.51475 1.99664 6.73115C1.925 6.94754 2.07481 7.26885 2.39397 7.58361L4.00932 9.20984C4.40013 9.60328 4.60205 10.3115 4.47829 10.8557L4.01583 12.8689C3.86602 13.518 3.97024 13.859 4.10702 13.9574C4.2438 14.0557 4.59553 14.0492 5.16872 13.7148L7.11626 12.5541C7.36378 12.4033 7.68294 12.3246 8.0021 12.3246Z" />
</svg>
