<svg width="16" height="16" viewBox="0 0 16 16" fill="none" xmlns="http://www.w3.org/2000/svg">
<path fill-rule="evenodd" clip-rule="evenodd" d="M9.4325 4.41189L8.45901 2.36105C8.27125 1.9655 7.72875 1.9655 7.54099 2.36105L6.5675 4.41189C6.1947 5.19725 5.47408 5.7416 4.64047 5.86754L2.46368 6.19641C2.04383 6.25984 1.87619 6.79628 2.17999 7.10417L3.75514 8.70052C4.35834 9.31184 4.63359 10.1926 4.49119 11.0558L4.11935 13.3099C4.04763 13.7447 4.48653 14.0762 4.86205 13.8709L6.80904 12.8067C7.55463 12.3992 8.44537 12.3992 9.19096 12.8067L11.138 13.8709C11.5135 14.0762 11.9524 13.7447 11.8806 13.3099L11.5088 11.0558C11.3664 10.1926 11.6417 9.31184 12.2449 8.70052L13.82 7.10417C14.1238 6.79627 13.9562 6.25984 13.5363 6.19641L11.3595 5.86754C10.5259 5.7416 9.8053 5.19725 9.4325 4.41189ZM9.37703 1.88999C8.81375 0.703338 7.18625 0.703337 6.62297 1.88999L5.64948 3.94083C5.4258 4.41205 4.99342 4.73866 4.49326 4.81422L2.31646 5.14309C1.05693 5.33337 0.554005 6.94268 1.46541 7.86636L3.04056 9.46271C3.40248 9.82951 3.56763 10.358 3.48219 10.8759L3.11035 13.13C2.8952 14.4342 4.21187 15.4288 5.33843 14.8131L7.28542 13.7488C7.73278 13.5043 8.26722 13.5043 8.71458 13.7488L10.6616 14.8131C11.7881 15.4288 13.1048 14.4342 12.8896 13.13L12.5178 10.8759C12.4324 10.358 12.5975 9.82951 12.9594 9.46271L14.5346 7.86636C15.446 6.94268 14.9431 5.33338 13.6835 5.14309L11.5067 4.81422C11.0066 4.73866 10.5742 4.41205 10.3505 3.94083L9.37703 1.88999Z" fill="black"/>
</svg>
