<svg width="16" height="16" viewBox="0 0 16 16"  xmlns="http://www.w3.org/2000/svg">
<path d="M4.5 4C4.77614 4 5 4.22386 5 4.5V5.5C5 5.77614 4.77614 6 4.5 6C4.22386 6 4 5.77614 4 5.5V4.5C4 4.22386 4.22386 4 4.5 4Z" />
<path d="M7 4.5C7 4.22386 6.77614 4 6.5 4C6.22386 4 6 4.22386 6 4.5V5.5C6 5.77614 6.22386 6 6.5 6C6.77614 6 7 5.77614 7 5.5V4.5Z" />
<path d="M9 4.5C9 4.22386 9.22386 4 9.5 4H11.5C11.7761 4 12 4.22386 12 4.5C12 4.77614 11.7761 5 11.5 5H9.5C9.22386 5 9 4.77614 9 4.5Z" />
<path d="M5 10.5C5 10.2239 4.77614 10 4.5 10C4.22386 10 4 10.2239 4 10.5V11.5C4 11.7761 4.22386 12 4.5 12C4.77614 12 5 11.7761 5 11.5V10.5Z" />
<path d="M6.5 10C6.77614 10 7 10.2239 7 10.5V11.5C7 11.7761 6.77614 12 6.5 12C6.22386 12 6 11.7761 6 11.5V10.5C6 10.2239 6.22386 10 6.5 10Z" />
<path d="M9.5 10C9.22386 10 9 10.2239 9 10.5C9 10.7761 9.22386 11 9.5 11H11.5C11.7761 11 12 10.7761 12 10.5C12 10.2239 11.7761 10 11.5 10H9.5Z" />
<path fill-rule="evenodd" clip-rule="evenodd" d="M1 5C1 2.79086 2.79086 1 5 1H11C13.2091 1 15 2.79086 15 5V11C15 13.2091 13.2091 15 11 15H5C2.79086 15 1 13.2091 1 11V5ZM5 2H11C12.6569 2 14 3.34315 14 5V8H2V5C2 3.34315 3.34315 2 5 2ZM2 9V11C2 12.6569 3.34315 14 5 14H11C12.6569 14 14 12.6569 14 11V9H2Z" />
</svg>
