<svg width="16" height="16" viewBox="0 0 16 16" xmlns="http://www.w3.org/2000/svg">
<path fill-rule="evenodd" clip-rule="evenodd" d="M5.904 2.797C6.556 2.27 7.428 2 8.349 2C9.256 2 10.105 2.228 10.756 2.742C11.417 3.265 11.825 4.043 11.905 5.037L10.908 5.117C10.848 4.367 10.555 3.857 10.136 3.527C9.707 3.19 9.097 3 8.349 3C7.614 3 6.976 3.215 6.533 3.574C6.099 3.926 5.83 4.429 5.83 5.077C5.83 5.692 6.115 6.09 6.469 6.369C6.529 6.417 6.591 6.46 6.653 6.5H5.243C4.997 6.127 4.83 5.658 4.83 5.077C4.83 4.117 5.242 3.332 5.904 2.797V2.797ZM10.824 9.5H11.893C11.962 9.74 12 10.007 12 10.301C12 11.273 11.627 12.094 10.935 12.662C10.255 13.222 9.313 13.5 8.228 13.5C7.128 13.5 6.242 13.19 5.6 12.621C4.96 12.054 4.61 11.274 4.504 10.421L5.496 10.297C5.579 10.957 5.839 11.497 6.263 11.872C6.685 12.246 7.318 12.5 8.228 12.5C9.153 12.5 9.847 12.263 10.3 11.89C10.742 11.527 11 10.999 11 10.301C11 9.977 10.934 9.715 10.823 9.5H10.824ZM2 8.5H14V7.5H2V8.5Z" />
</svg>
