<svg width="16" height="16" viewBox="0 0 16 16" xmlns="http://www.w3.org/2000/svg">
<path d="M2.58459 12.5L3.46259 10.028H6.98959L7.86759 12.5H8.97559L5.77159 3.77301H4.68159L1.47559 12.5H2.58359H2.58459ZM3.79459 9.09001L5.19259 5.15301H5.26059L6.65859 9.09101H3.79459V9.09001ZM9.87459 14H13.8126V13.25H11.2046V13.216L12.3126 12.244C13.2506 11.426 13.6596 10.949 13.6596 10.25C13.6596 9.36401 12.8926 8.69901 11.7676 8.69901C10.6426 8.69901 9.84159 9.34701 9.84159 10.319H10.7276C10.7276 9.78901 11.1376 9.43201 11.7506 9.43201C12.3306 9.43201 12.7736 9.75601 12.7736 10.267C12.7736 10.71 12.4666 11.034 11.8696 11.563L9.87559 13.335V14H9.87459Z" />
</svg>
