<svg width="16" height="16" viewBox="0 0 16 16" xmlns="http://www.w3.org/2000/svg">
<path d="M2.93517 12.5L3.81317 10.028H7.34017L8.21817 12.5H9.32617L6.12217 3.773H5.03217L1.82617 12.5H2.93417H2.93517ZM4.14517 9.09L5.54317 5.153H5.61117L7.00917 9.091H4.14517V9.09ZM9.62517 8.136H13.5632V7.386H10.9552V7.352L12.0632 6.381C13.0012 5.562 13.4102 5.085 13.4102 4.386C13.4102 3.5 12.6432 2.836 11.5182 2.836C10.3932 2.836 9.59217 3.483 9.59217 4.455H10.4782C10.4782 3.926 10.8882 3.568 11.5012 3.568C12.0812 3.568 12.5242 3.892 12.5242 4.403C12.5242 4.847 12.2172 5.17 11.6202 5.699L9.62617 7.472V8.136H9.62517Z" />
</svg>
