<svg width="16" height="16" viewBox="0 0 16 16"  xmlns="http://www.w3.org/2000/svg">
<path fill-rule="evenodd" clip-rule="evenodd" d="M10.7324 2C10.3866 1.4022 9.74028 1 9 1H3C1.89543 1 1 1.89543 1 3C1 4.10457 1.89543 5 3 5H9C10.1046 5 11 4.10457 11 3H13.5C13.7761 3 14 3.22386 14 3.5V7H10.7324C10.3866 6.4022 9.74028 6 9 6H3C1.89543 6 1 6.89543 1 8C1 9.10457 1.89543 10 3 10H9C10.1046 10 11 9.10457 11 8H14V11.5C14 11.7761 13.7761 12 13.5 12H10.7324C10.3866 11.4022 9.74028 11 9 11H3C1.89543 11 1 11.8954 1 13C1 14.1046 1.89543 15 3 15H9C10.1046 15 11 14.1046 11 13H13.5C14.3284 13 15 12.3284 15 11.5V3.5C15 2.67157 14.3284 2 13.5 2H10.7324ZM9 2H3C2.44772 2 2 2.44772 2 3C2 3.55228 2.44772 4 3 4H9C9.55228 4 10 3.55228 10 3C10 2.44772 9.55229 2 9 2ZM10 13C10 12.4477 9.55229 12 9 12H3C2.44772 12 2 12.4477 2 13C2 13.5523 2.44772 14 3 14H9C9.55228 14 10 13.5523 10 13ZM9 9C9.55228 9 10 8.55228 10 8C10 7.44772 9.55229 7 9 7H3C2.44772 7 2 7.44772 2 8C2 8.55228 2.44772 9 3 9H9Z" />
</svg>
