<svg width="16" height="16" viewBox="0 0 16 16"  xmlns="http://www.w3.org/2000/svg">
<path fill-rule="evenodd" clip-rule="evenodd" d="M9 14.9986C11.1577 14.9892 12.3409 14.9148 13.2223 14.3259C13.659 14.034 14.034 13.659 14.3259 13.2223C15 12.2134 15 10.8089 15 8C15 5.19108 15 3.78661 14.3259 2.77772C14.034 2.34096 13.659 1.96596 13.2223 1.67412C12.2134 1 10.8089 1 8 1C5.19108 1 3.78661 1 2.77772 1.67412C2.34096 1.96596 1.96596 2.34096 1.67412 2.77772C1 3.78661 1 5.19108 1 8C1 10.8089 1 12.2134 1.67412 13.2223C1.96596 13.659 2.34096 14.034 2.77772 14.3259C3.78661 15 5.19108 15 8 15H9V14.9986ZM8 14C6.57473 14 5.58104 13.9988 4.81505 13.9209C4.06578 13.8446 3.64604 13.7034 3.33329 13.4944C3.00572 13.2755 2.72447 12.9943 2.50559 12.6667C2.29662 12.354 2.15535 11.9342 2.07913 11.1849C2.07301 11.1247 2.06735 11.0631 2.06214 11H8V14ZM9 13.9986V11H13.9379C13.9326 11.0631 13.927 11.1247 13.9209 11.1849C13.8446 11.9342 13.7034 12.354 13.4944 12.6667C13.2755 12.9943 12.9943 13.2755 12.6667 13.4944C12.354 13.7034 11.9342 13.8446 11.1849 13.9209C10.6123 13.9791 9.91238 13.9945 9 13.9986ZM9 10H13.9862C13.9996 9.44197 14 8.78674 14 8C14 7.64027 13.9999 7.30802 13.9986 7H9V10ZM8 7H2.00145C2.00008 7.30802 2 7.64027 2 8C2 8.78674 2.00037 9.44197 2.0138 10H8V7ZM13.9862 6C13.9753 5.54709 13.9558 5.15822 13.9209 4.81505C13.8446 4.06578 13.7034 3.64604 13.4944 3.33329C13.2755 3.00572 12.9943 2.72447 12.6667 2.50559C12.354 2.29662 11.9342 2.15535 11.1849 2.07913C10.419 2.00121 9.42527 2 8 2C6.57473 2 5.58104 2.00121 4.81505 2.07913C4.06578 2.15535 3.64604 2.29662 3.33329 2.50559C3.00572 2.72447 2.72447 3.00572 2.50559 3.33329C2.29662 3.64604 2.15535 4.06578 2.07913 4.81505C2.04422 5.15822 2.02471 5.54709 2.0138 6H13.9862Z" />
</svg>
