<svg width="24" height="24" viewBox="0 0 24 24" xmlns="http://www.w3.org/2000/svg">
<path fill-rule="evenodd" clip-rule="evenodd" d="M9 1.25C6.42603 1.25 4.42914 1.7602 3.09467 3.09467C1.7602 4.42914 1.25 6.42603 1.25 9V15C1.25 17.574 1.7602 19.5709 3.09467 20.9053C4.42914 22.2398 6.42603 22.75 9 22.75H15C17.574 22.75 19.5709 22.2398 20.9053 20.9053C22.2398 19.5709 22.75 17.574 22.75 15V9C22.75 6.42603 22.2398 4.42914 20.9053 3.09467C19.5709 1.7602 17.574 1.25 15 1.25H9ZM12.75 21.25H15C17.426 21.25 18.9291 20.7602 19.8447 19.8447C20.5161 19.1732 20.9586 18.1858 21.1468 16.75H12.75V21.25ZM11.25 16.75V21.25H9C6.57397 21.25 5.07086 20.7602 4.15533 19.8447C3.48389 19.1732 3.04144 18.1858 2.85324 16.75H11.25ZM12.75 15.25H21.2482C21.2494 15.1678 21.25 15.0844 21.25 15V10.75H12.75V15.25ZM11.25 10.75V15.25H2.75178C2.75059 15.1678 2.75 15.0844 2.75 15V10.75H11.25ZM21.25 9.25V9C21.25 6.57397 20.7602 5.07086 19.8447 4.15533C18.9291 3.2398 17.426 2.75 15 2.75H9C6.57397 2.75 5.07086 3.2398 4.15533 4.15533C3.2398 5.07086 2.75 6.57397 2.75 9V9.25H21.25Z" />
</svg>
