<svg width="24" height="24" viewBox="0 0 24 24"  xmlns="http://www.w3.org/2000/svg">
<path fill-rule="evenodd" clip-rule="evenodd" d="M9 1.25C6.42603 1.25 4.42914 1.7602 3.09467 3.09467C1.7602 4.42914 1.25 6.42603 1.25 9V15C1.25 15.2119 1.25346 15.4199 1.26055 15.6239C1.25361 15.6649 1.25 15.707 1.25 15.75C1.25 15.8163 1.2586 15.8805 1.27473 15.9417C1.39106 18.0648 1.92769 19.7384 3.09467 20.9053C4.42914 22.2398 6.42603 22.75 9 22.75H15C17.574 22.75 19.5709 22.2398 20.9053 20.9053C22.2398 19.5709 22.75 17.574 22.75 15V9C22.75 8.78809 22.7465 8.5801 22.7395 8.37606C22.7464 8.33508 22.75 8.29296 22.75 8.25C22.75 8.18373 22.7414 8.11947 22.7253 8.05827C22.6089 5.9352 22.0723 4.26165 20.9053 3.09467C19.5709 1.7602 17.574 1.25 15 1.25H9ZM19.8447 4.15533C20.5544 4.86505 21.0083 5.92787 21.1765 7.5L12.75 7.5L12.75 2.75L15 2.75C17.426 2.75 18.9291 3.2398 19.8447 4.15533ZM21.25 9L12.75 9V15L21.25 15V9ZM21.1765 16.5L12.75 16.5V21.25H15C17.426 21.25 18.9291 20.7602 19.8447 19.8447C20.5544 19.135 21.0083 18.0721 21.1765 16.5ZM2.82353 16.5C2.99173 18.0721 3.44561 19.1349 4.15533 19.8447C5.07086 20.7602 6.57397 21.25 9 21.25H11.25V16.5L2.82353 16.5ZM11.25 15H2.75L2.75 9L11.25 9V15ZM11.25 2.75L9 2.75C6.57397 2.75 5.07086 3.2398 4.15533 4.15533C3.44561 4.86505 2.99173 5.92787 2.82353 7.5L11.25 7.5V2.75Z" />
</svg>
