<svg width="16" height="16" viewBox="0 0 16 16"  xmlns="http://www.w3.org/2000/svg">
<path fill-rule="evenodd" clip-rule="evenodd" d="M11.94 1.83331C11.2628 1.83331 10.72 2.37612 10.72 3.05331C10.72 3.70526 11.2214 4.23069 11.8561 4.27186C11.9094 4.26713 11.9639 4.26713 12.0171 4.27186C12.6508 4.23073 13.1544 3.70599 13.16 3.05155C13.159 2.38056 12.6153 1.83331 11.94 1.83331ZM9.71996 3.05331C9.71996 1.82384 10.7105 0.833313 11.94 0.833313C13.1707 0.833313 14.16 1.83177 14.16 3.05331V3.05689C14.1514 4.25617 13.2074 5.2299 12.0181 5.27299C11.9909 5.27397 11.9636 5.27273 11.9366 5.26929C11.9096 5.27273 11.8824 5.27397 11.8552 5.27299C10.6665 5.22992 9.71996 4.256 9.71996 3.05331Z" />
<path fill-rule="evenodd" clip-rule="evenodd" d="M11.207 5.90081C12.2206 5.72326 13.3762 5.89254 14.2164 6.45003L14.2173 6.45063C14.7916 6.83347 15.145 7.3882 15.145 8.00665C15.145 8.62493 14.7918 9.17953 14.2178 9.56236C13.3838 10.1208 12.2417 10.2895 11.2305 10.1198C10.9582 10.074 10.7745 9.8162 10.8202 9.54387C10.8659 9.27154 11.1237 9.08783 11.3961 9.13355C12.2114 9.27043 13.0824 9.11926 13.6617 8.73123L13.6626 8.73063C14.0284 8.4868 14.145 8.21487 14.145 8.00665C14.145 7.79851 14.0284 7.52671 13.663 7.28295C13.0765 6.89402 12.1925 6.74341 11.3796 6.88581C11.1076 6.93346 10.8484 6.75159 10.8008 6.47959C10.7531 6.20759 10.935 5.94846 11.207 5.90081Z" />
<path fill-rule="evenodd" clip-rule="evenodd" d="M1.81996 3.05331C1.81996 1.83177 2.80922 0.833313 4.03996 0.833313C5.26944 0.833313 6.25996 1.82384 6.25996 3.05331C6.25996 4.256 5.31339 5.22992 4.12473 5.27299C4.09752 5.27397 4.07028 5.27273 4.04329 5.26929C4.0163 5.27273 3.98907 5.27397 3.96186 5.27299C2.77257 5.2299 1.82854 4.25617 1.81997 3.05689L1.81996 3.05331ZM2.81996 3.05153C2.82554 3.70598 3.32914 4.23073 3.96279 4.27186C4.01603 4.26713 4.07056 4.26713 4.1238 4.27186C4.75854 4.23069 5.25996 3.70526 5.25996 3.05331C5.25996 2.37612 4.71715 1.83331 4.03996 1.83331C3.36463 1.83331 2.82092 2.38056 2.81996 3.05153Z" />
<path fill-rule="evenodd" clip-rule="evenodd" d="M2.31686 7.28298C2.90337 6.89402 3.78743 6.74341 4.60035 6.88581C4.87235 6.93346 5.13148 6.75159 5.17913 6.47959C5.22678 6.20759 5.0449 5.94846 4.7729 5.90081C3.75936 5.72326 2.60367 5.89254 1.76351 6.45003L1.76261 6.45063C1.18835 6.83347 0.834961 7.3882 0.834961 8.00665C0.834961 8.62493 1.18817 9.17954 1.76215 9.56237C2.59613 10.1208 3.73823 10.2895 4.74941 10.1198C5.02174 10.074 5.20545 9.8162 5.15973 9.54387C5.11401 9.27154 4.85617 9.08783 4.58384 9.13355C3.76853 9.27043 2.89753 9.11926 2.31822 8.73123L2.31731 8.73063C1.95157 8.4868 1.83496 8.21487 1.83496 8.00665C1.83496 7.79852 1.95147 7.52673 2.31686 7.28298Z" />
<path fill-rule="evenodd" clip-rule="evenodd" d="M7.93996 6.81331C7.26277 6.81331 6.71996 7.35612 6.71996 8.03332C6.71996 8.68526 7.22138 9.21069 7.85612 9.25186C7.91011 9.24707 7.96542 9.24714 8.01938 9.25206C8.64787 9.21603 9.15434 8.68952 9.15996 8.03155C9.159 7.36057 8.6153 6.81331 7.93996 6.81331ZM5.71996 8.03332C5.71996 6.80384 6.71048 5.81331 7.93996 5.81331C9.1707 5.81331 10.16 6.81177 10.16 8.03332V8.03689C10.1514 9.23295 9.20978 10.2185 8.01445 10.2531C7.98844 10.2539 7.96242 10.2526 7.93663 10.2493C7.90964 10.2527 7.8824 10.254 7.85519 10.253C6.66652 10.2099 5.71996 9.236 5.71996 8.03332Z" />
<path fill-rule="evenodd" clip-rule="evenodd" d="M8.00246 10.8233C8.78146 10.8233 9.58734 11.0173 10.2173 11.4373C10.7916 11.8201 11.145 12.3749 11.145 12.9933C11.145 13.6116 10.7917 14.1662 10.2177 14.5491C9.58503 14.9721 8.77936 15.1683 7.99996 15.1683C7.22059 15.1683 6.41496 14.9721 5.7823 14.5491C5.20823 14.1663 4.85496 13.6116 4.85496 12.9933C4.85496 12.3749 5.20835 11.8201 5.78261 11.4373L5.78381 11.4365C6.41647 11.0174 7.22332 10.8233 8.00246 10.8233ZM6.3367 12.2697C5.97144 12.5135 5.85496 12.7852 5.85496 12.9933C5.85496 13.2015 5.97157 13.4735 6.33731 13.7173C6.77128 14.0075 7.37278 14.1683 7.99996 14.1683C8.62714 14.1683 9.22804 14.0079 9.66201 13.7177C10.0278 13.4739 10.145 13.2015 10.145 12.9933C10.145 12.7851 10.0284 12.5132 9.66261 12.2693C9.23258 11.9827 8.63179 11.8233 8.00246 11.8233C7.37356 11.8233 6.77067 11.9825 6.3367 12.2697Z" />
</svg>
