<svg width="16" height="16" viewBox="0 0 16 16"  xmlns="http://www.w3.org/2000/svg">
<path d="M1.95421 12.5L2.83221 10.028H6.36022L7.23821 12.5H8.34621L5.14021 3.77301H4.05022L0.845215 12.5H1.95321H1.95421ZM3.16421 9.09001L4.56221 5.15301H4.63021L6.02821 9.09101H3.16421V9.09001ZM12.2112 15.09C13.7792 15.09 15.0412 14.375 15.0412 12.688V5.95501H14.0692V6.99501H13.9672C13.7452 6.65301 13.3362 5.86901 12.0572 5.86901C10.4042 5.86901 9.26221 7.18201 9.26221 9.19301C9.26221 11.239 10.4552 12.398 12.0402 12.398C13.3192 12.398 13.7282 11.648 13.9502 11.29H14.0352V12.62C14.0352 13.71 13.2682 14.205 12.2112 14.205C11.0222 14.205 10.6042 13.578 10.3362 13.215L9.53521 13.778C9.94421 14.464 10.7492 15.091 12.2112 15.091V15.09ZM12.1772 11.494C10.9162 11.494 10.2672 10.54 10.2672 9.17601C10.2672 7.84601 10.8982 6.77301 12.1772 6.77301C13.4042 6.77301 14.0522 7.76101 14.0522 9.17601C14.0522 10.625 13.3872 11.494 12.1772 11.494Z" />
</svg>
