<svg width="16" height="16" viewBox="0 0 16 16"  xmlns="http://www.w3.org/2000/svg">
<path fill-rule="evenodd" clip-rule="evenodd" d="M8 8C8 9.10457 7.10457 10 6 10C4.89543 10 4 9.10457 4 8C4 6.89543 4.89543 6 6 6C7.10457 6 8 6.89543 8 8ZM7 8C7 8.55228 6.55228 9 6 9C5.44772 9 5 8.55228 5 8C5 7.44772 5.44772 7 6 7C6.55228 7 7 7.44772 7 8Z" />
<path fill-rule="evenodd" clip-rule="evenodd" d="M2 8C2 5.79086 3.79086 4 6 4H10C12.2091 4 14 5.79086 14 8C14 10.2091 12.2091 12 10 12H6C3.79086 12 2 10.2091 2 8ZM6 5H10C11.6569 5 13 6.34315 13 8C13 9.65685 11.6569 11 10 11H6C4.34315 11 3 9.65685 3 8C3 6.34315 4.34315 5 6 5Z" />
</svg>
