<svg width="16" height="16" viewBox="0 0 16 16"  xmlns="http://www.w3.org/2000/svg">
<path fill-rule="evenodd" clip-rule="evenodd" d="M5 4V2.5C5 1.67157 5.67157 1 6.5 1H9.5C10.3284 1 11 1.67157 11 2.5V4H13.5C13.7761 4 14 4.22386 14 4.5C14 4.77614 13.7761 5 13.5 5H2.5C2.22386 5 2 4.77614 2 4.5C2 4.22386 2.22386 4 2.5 4H5ZM6.5 2H9.5C9.77614 2 10 2.22386 10 2.5V4H6V2.5C6 2.22386 6.22386 2 6.5 2Z" />
<path d="M6 9.5C6 9.22386 6.22386 9 6.5 9H9.5C9.77614 9 10 9.22386 10 9.5C10 9.77614 9.77614 10 9.5 10H6.5C6.22386 10 6 9.77614 6 9.5Z" />
<path d="M7.5 11C7.22386 11 7 11.2239 7 11.5C7 11.7761 7.22386 12 7.5 12H8.5C8.77614 12 9 11.7761 9 11.5C9 11.2239 8.77614 11 8.5 11H7.5Z" />
<path fill-rule="evenodd" clip-rule="evenodd" d="M6 6C4.89543 6 4 6.89543 4 8V13C4 14.1046 4.89543 15 6 15H10C11.1046 15 12 14.1046 12 13V8C12 6.89543 11.1046 6 10 6H6ZM10 7H6C5.44772 7 5 7.44772 5 8V13C5 13.5523 5.44772 14 6 14H10C10.5523 14 11 13.5523 11 13V8C11 7.44772 10.5523 7 10 7Z" />
</svg>
