<svg width="16" height="16" viewBox="0 0 16 16"  xmlns="http://www.w3.org/2000/svg">
<path fill-rule="evenodd" clip-rule="evenodd" d="M8 14C11.3137 14 14 11.3137 14 8C14 4.68629 11.3137 2 8 2C4.68629 2 2 4.68629 2 8C2 11.3137 4.68629 14 8 14ZM8 15C11.866 15 15 11.866 15 8C15 4.13401 11.866 1 8 1C4.13401 1 1 4.13401 1 8C1 11.866 4.13401 15 8 15Z" />
<path fill-rule="evenodd" clip-rule="evenodd" d="M9 6H7C6.44772 6 6 6.44772 6 7V9C6 9.55228 6.44772 10 7 10H9C9.55228 10 10 9.55228 10 9V7C10 6.44772 9.55228 6 9 6ZM7 5C5.89543 5 5 5.89543 5 7V9C5 10.1046 5.89543 11 7 11H9C10.1046 11 11 10.1046 11 9V7C11 5.89543 10.1046 5 9 5H7Z" />
</svg>
