<svg width="16" height="16" viewBox="0 0 16 16"  xmlns="http://www.w3.org/2000/svg">
<path d="M7 5.5C7 5.22386 7.22386 5 7.5 5H10.5C10.7761 5 11 5.22386 11 5.5V8.5C11 8.77614 10.7761 9 10.5 9C10.2239 9 10 8.77614 10 8.5V6.70711L5.85355 10.8536C5.65829 11.0488 5.34171 11.0488 5.14645 10.8536C4.95118 10.6583 4.95118 10.3417 5.14645 10.1464L9.29289 6H7.5C7.22386 6 7 5.77614 7 5.5Z" />
<path fill-rule="evenodd" clip-rule="evenodd" d="M1.42161 3.59822C1 4.50237 1 5.66825 1 8C1 10.3318 1 11.4976 1.42161 12.4018C1.86873 13.3606 2.63938 14.1313 3.59822 14.5784C4.50237 15 5.66825 15 8 15C10.3318 15 11.4976 15 12.4018 14.5784C13.3606 14.1313 14.1313 13.3606 14.5784 12.4018C15 11.4976 15 10.3318 15 8C15 5.66825 15 4.50237 14.5784 3.59822C14.1313 2.63938 13.3606 1.86873 12.4018 1.42161C11.4976 1 10.3318 1 8 1C5.66825 1 4.50237 1 3.59822 1.42161C2.63938 1.86873 1.86873 2.63938 1.42161 3.59822ZM5.33927 13.9502C5.98871 13.9993 6.81888 14 8 14C9.18112 14 10.0113 13.9993 10.6607 13.9502C11.2997 13.9018 11.682 13.8106 11.9792 13.6721C12.7249 13.3243 13.3243 12.7249 13.6721 11.9792C13.8106 11.682 13.9018 11.2997 13.9502 10.6607C13.9993 10.0113 14 9.18112 14 8C14 6.81888 13.9993 5.98871 13.9502 5.33927C13.9018 4.70025 13.8106 4.31799 13.6721 4.02084C13.3243 3.27507 12.7249 2.67568 11.9792 2.32792C11.682 2.18936 11.2997 2.09824 10.6607 2.04985C10.0113 2.00067 9.18112 2 8 2C6.81888 2 5.98871 2.00067 5.33927 2.04985C4.70025 2.09824 4.31799 2.18936 4.02084 2.32792C3.27507 2.67568 2.67568 3.27507 2.32792 4.02084C2.18936 4.31799 2.09824 4.70025 2.04985 5.33927C2.00067 5.98871 2 6.81888 2 8C2 9.18112 2.00067 10.0113 2.04985 10.6607C2.09824 11.2997 2.18936 11.682 2.32792 11.9792C2.67568 12.7249 3.27507 13.3243 4.02084 13.6721C4.31799 13.8106 4.70025 13.9018 5.33927 13.9502Z" />
</svg>
