<svg width="16" height="16" viewBox="0 0 16 16"  xmlns="http://www.w3.org/2000/svg">
<path d="M5.14647 3.85382C5.34175 4.04907 5.65833 4.04905 5.85358 3.85377L7 2.70717L7 10.4993C7 10.7754 7.22386 10.9993 7.5 10.9993C7.77614 10.9993 8 10.7754 8 10.4993L8 2.70753L9.14647 3.85382C9.34175 4.04907 9.65833 4.04905 9.85358 3.85377C10.0488 3.65849 10.0488 3.34191 9.85353 3.14666L7.85322 1.14666C7.75944 1.0529 7.63226 1.00023 7.49965 1.00024C7.36705 1.00025 7.23987 1.05294 7.14611 1.14672L5.14642 3.14672C4.95117 3.342 4.9512 3.65858 5.14647 3.85382Z" />
<path d="M1 9.99976C1 7.79062 2.79086 5.99976 5 5.99976H5.5C5.77614 5.99976 6 6.22361 6 6.49976C6 6.7759 5.77614 6.99976 5.5 6.99976H5C3.34315 6.99976 2 8.3429 2 9.99976V10.9998C2 12.6566 3.34315 13.9998 5 13.9998H11C12.6569 13.9998 14 12.6566 14 10.9998V9.99975C14 8.3429 12.6569 6.99976 11 6.99976H9.5C9.22386 6.99976 9 6.7759 9 6.49976C9 6.22361 9.22386 5.99976 9.5 5.99976H11C13.2091 5.99976 15 7.79062 15 9.99975V10.9998C15 13.2089 13.2091 14.9998 11 14.9998H5C2.79086 14.9998 1 13.2089 1 10.9998V9.99976Z" />
</svg>
