<svg width="16" height="16" viewBox="0 0 16 16"  xmlns="http://www.w3.org/2000/svg">
<path d="M1.35605 12.5L2.23405 10.028H5.76205L6.64005 12.5H7.74805L4.54405 3.77302H3.45305L0.248047 12.5H1.35605ZM2.56605 9.09002L3.96405 5.15301H4.03205L5.43005 9.09101H2.56605V9.09002ZM14.663 6.50002H15.754C15.43 4.81202 14.016 3.65302 12.174 3.65302C9.93805 3.65302 8.35705 5.37502 8.35705 8.13601C8.35705 10.898 9.92505 12.619 12.243 12.619C14.323 12.619 15.805 11.234 15.805 9.07402V8.13601H12.482V9.07402H14.782C14.752 10.642 13.722 11.631 12.242 11.631C10.624 11.631 9.37905 10.403 9.37905 8.13601C9.37905 5.86901 10.624 4.64202 12.175 4.64202C13.436 4.64202 14.293 5.35401 14.663 6.50002V6.50002Z" />
</svg>
