<svg width="16" height="16" viewBox="0 0 16 16"  xmlns="http://www.w3.org/2000/svg">
<path fill-rule="evenodd" clip-rule="evenodd" d="M3.81606 4.53972C4.10105 4.19773 4.52322 4 4.96839 4H6.50001C6.77615 4 7.00001 4.22386 7.00001 4.5C7.00001 4.77614 6.77615 5 6.50001 5H4.96839C4.82 5 4.67927 5.06591 4.58428 5.17991L3.06753 7H5.5C6.32843 7 7 7.67157 7 8.5V9H9V8.5C9 7.67157 9.67157 7 10.5 7H12.9325L11.4157 5.17991C11.3207 5.06591 11.18 5 11.0316 5H9.49999C9.22384 5 8.99999 4.77614 8.99999 4.5C8.99999 4.22386 9.22384 4 9.49999 4H11.0316C11.4768 4 11.899 4.19773 12.1839 4.53972L14.3722 7.1656C14.7474 7.38132 15 7.78616 15 8.25V10.5C15 11.8807 13.8807 13 12.5 13H11.5C10.1193 13 9 11.8807 9 10.5V10H7V10.5C7 11.8807 5.88071 13 4.5 13H3.5C2.11929 13 1 11.8807 1 10.5V8.25C1 7.78616 1.25264 7.38132 1.62783 7.1656L3.81606 4.53972ZM2.25 8C2.11193 8 2 8.11193 2 8.25V10.5C2 11.3284 2.67157 12 3.5 12H4.5C5.32843 12 6 11.3284 6 10.5V8.5C6 8.22386 5.77614 8 5.5 8H2.25ZM10.5 8C10.2239 8 10 8.22386 10 8.5V10.5C10 11.3284 10.6716 12 11.5 12H12.5C13.3284 12 14 11.3284 14 10.5V8.25C14 8.11193 13.8881 8 13.75 8H10.5Z" />
</svg>
