<svg width="16" height="16" viewBox="0 0 16 16"  xmlns="http://www.w3.org/2000/svg">
<path d="M4.5 7C4.22386 7 4 7.22386 4 7.5C4 7.77614 4.22386 8 4.5 8H8.5C8.77614 8 9 7.77614 9 7.5C9 7.22386 8.77614 7 8.5 7H4.5Z" />
<path fill-rule="evenodd" clip-rule="evenodd" d="M11 4H10.8293C10.4175 2.83481 9.30622 2 8 2H4C2.34315 2 1 3.34315 1 5V12C1 13.6569 2.34315 15 4 15H11C12.6569 15 14 13.6569 14 12H14.3333C14.7015 12 15 11.7015 15 11.3333V8.66667C15 8.29848 14.7015 8 14.3333 8H14V7C14 5.34315 12.6569 4 11 4ZM4 3H8C8.74028 3 9.38663 3.4022 9.73244 4H4C3.23908 4 2.54433 4.28329 2.01545 4.75016C2.13841 3.7635 2.98004 3 4 3ZM11 5H4C2.89543 5 2 5.89543 2 7V12C2 13.1046 2.89543 14 4 14H11C12.1046 14 13 13.1046 13 12C11.8954 12 11 11.1046 11 10C11 8.89543 11.8954 8 13 8V7C13 5.89543 12.1046 5 11 5ZM13 9H14V11H13C12.4477 11 12 10.5523 12 10C12 9.44772 12.4477 9 13 9Z" />
</svg>
