<svg width="24" height="24" viewBox="0 0 24 24"  xmlns="http://www.w3.org/2000/svg">
<path d="M12.0011 8.30424C12.425 8.30424 12.7686 8.63462 12.7686 9.04216V13.9616C12.7686 14.3691 12.425 14.6995 12.0011 14.6995C11.5772 14.6995 11.2336 14.3691 11.2336 13.9616V9.04216C11.2336 8.63462 11.5772 8.30424 12.0011 8.30424Z" />
<path d="M11.9956 15.9294C11.4304 15.9294 10.9722 16.3699 10.9722 16.9133C10.9722 17.4567 11.4304 17.8972 11.9956 17.8972H12.0048C12.57 17.8972 13.0281 17.4567 13.0281 16.9133C13.0281 16.3699 12.57 15.9294 12.0048 15.9294H11.9956Z" />
<path fill-rule="evenodd" clip-rule="evenodd" d="M11.8753 21.9902H5.79939C3.85525 21.9902 2.28647 21.3159 1.50328 20.0331C0.720525 18.751 0.871487 17.1049 1.81247 15.4732L8.01402 4.74878C9.00009 3.03948 10.4148 2 12.0009 2C13.5871 2 15.0014 3.03884 15.9875 4.74816L22.1892 15.4827C23.1307 17.1154 23.2785 18.762 22.4944 20.0436C21.7101 21.3253 20.1423 22 18.2025 22H12.0009C11.9581 22 11.9162 21.9966 11.8753 21.9902ZM12.0009 3.47583C11.1824 3.47583 10.192 4.01588 9.35647 5.46448L3.15496 16.1888C2.3767 17.5383 2.40998 18.6028 2.8271 19.286C3.2438 19.9685 4.19247 20.5143 5.79939 20.5143H12.0009C12.0437 20.5143 12.0857 20.5177 12.1266 20.5242H18.2025C19.8035 20.5242 20.753 19.9788 21.1713 19.2953C21.5896 18.6115 21.6246 17.5472 20.8469 16.1987L14.6457 5.4651C13.8102 4.0165 12.8194 3.47583 12.0009 3.47583Z" />
</svg>
