<svg width="48" height="48" viewBox="0 0 48 48" fill="none" xmlns="http://www.w3.org/2000/svg">
<path d="M43.125 9H4.875C3.287 9 2 10.287 2 11.875V36.125C2 37.713 3.287 39 4.875 39H43.125C44.713 39 46 37.713 46 36.125V11.875C46 10.287 44.713 9 43.125 9Z" fill="url(#paint0_linear_3376_392922)"/>
<path opacity="0.05" d="M23.7778 27.981C22.9508 27.981 22.2778 27.308 22.2778 26.481V26.44L21.9688 27.109C21.7248 27.638 21.1898 27.981 20.6068 27.981H19.6898C19.0968 27.981 18.5588 27.631 18.3188 27.089L18.0648 26.517C18.0458 27.328 17.3808 27.981 16.5648 27.981H13.9268C13.3308 27.981 12.7918 27.628 12.5528 27.083L12.2638 26.423H10.1438L9.86381 27.074C9.62581 27.625 9.08481 27.981 8.48581 27.981H7.38281C6.69381 27.981 6.13281 27.42 6.13281 26.731V26.676L6.14481 26.556L6.17881 26.4L9.01881 19.897C9.26081 19.352 9.79981 19 10.3938 19H12.0168C12.6068 19 13.1438 19.348 13.3858 19.887L14.3438 22.033V20.5C14.3438 19.673 15.0168 19 15.8438 19H17.7158C18.3048 19 18.8418 19.347 19.0838 19.885L20.1448 22.247L21.2118 19.884C21.4528 19.347 21.9898 19 22.5778 19H24.4998C25.3268 19 25.9998 19.673 25.9998 20.5V26.481C25.9998 27.308 25.3268 27.981 24.4998 27.981H23.7778Z" fill="black"/>
<path opacity="0.07" d="M23.7778 27.481C23.2268 27.481 22.7778 27.032 22.7778 26.481V24.163L21.5148 26.9C21.3518 27.253 20.9958 27.481 20.6068 27.481H19.6898C19.2948 27.481 18.9358 27.248 18.7758 26.886L17.5658 24.157V26.481C17.5658 27.032 17.1168 27.481 16.5658 27.481H13.9278C13.5308 27.481 13.1708 27.246 13.0118 26.882L12.5918 25.923H9.81481L9.40481 26.877C9.24581 27.244 8.88581 27.481 8.48581 27.481H7.38281C6.96881 27.481 6.63281 27.145 6.63281 26.731V26.664L6.66781 26.508L9.47781 20.097C9.63881 19.734 9.99781 19.499 10.3938 19.499H12.0168C12.4108 19.499 12.7678 19.731 12.9298 20.09L14.8448 24.378V20.5C14.8448 19.949 15.2938 19.5 15.8448 19.5H17.7168C18.1098 19.5 18.4678 19.731 18.6288 20.09L20.1448 23.465L21.6678 20.089C21.8298 19.731 22.1878 19.5 22.5798 19.5H24.4998C25.0508 19.5 25.4998 19.949 25.4998 20.5V26.481C25.4998 27.032 25.0508 27.481 24.4998 27.481H23.7778ZM11.4628 23.415L11.1698 22.744L10.8878 23.415H11.4628Z" fill="black"/>
<path d="M24.4998 20H22.5778C22.3808 20 22.2028 20.115 22.1218 20.294L20.1418 24.683L18.1718 20.295C18.0908 20.116 17.9118 20 17.7148 20H15.8438C15.5678 20 15.3438 20.224 15.3438 20.5V26.726L12.4728 20.296C12.3928 20.116 12.2138 20 12.0168 20H10.3938C10.1958 20 10.0158 20.117 9.93581 20.299L7.14981 26.64C7.14981 26.64 7.13281 26.703 7.13281 26.731C7.13281 26.869 7.24481 26.981 7.38281 26.981H8.48581C8.68581 26.981 8.86581 26.862 8.94481 26.679L9.48581 25.423H12.9178L13.4688 26.681C13.5488 26.863 13.7278 26.98 13.9268 26.98H16.5648C16.8408 26.98 17.0648 26.756 17.0648 26.48V21.795L19.2318 26.683C19.3118 26.864 19.4908 26.98 19.6888 26.98H20.6068C20.8018 26.98 20.9788 26.867 21.0608 26.69L23.2778 21.885V26.48C23.2778 26.756 23.5018 26.98 23.7778 26.98H24.4998C24.7758 26.98 24.9998 26.756 24.9998 26.48V20.5C24.9998 20.224 24.7758 20 24.4998 20ZM10.1348 23.915L11.1608 21.475L12.2268 23.915H10.1348Z" fill="white"/>
<path opacity="0.05" d="M38.994 28C38.561 28 38.15 27.813 37.865 27.488L36.715 26.175L35.526 27.488C35.243 27.801 34.838 27.982 34.414 27.982H28.5C27.673 27.982 27 27.309 27 26.482V20.5C27 19.673 27.673 19 28.5 19H35.311L36.805 20.69L38.115 19.268L38.214 19.226C38.359 19.107 38.619 19.019 38.893 19.019H40.434C41.123 19.019 41.684 19.58 41.684 20.269C41.684 20.473 41.632 20.778 41.382 21.073L39.222 23.433L41.783 26.403L41.68 26.643C41.683 26.679 41.685 26.715 41.685 26.75C41.685 27.439 41.124 28 40.435 28H38.994V28Z" fill="black"/>
<path opacity="0.07" d="M38.994 27.5C38.705 27.5 38.431 27.375 38.242 27.159L36.721 25.423L35.155 27.153C34.967 27.362 34.696 27.482 34.414 27.482H28.5C27.949 27.482 27.5 27.033 27.5 26.482V20.5C27.5 19.949 27.949 19.5 28.5 19.5H35.085L36.796 21.436L38.408 19.686L38.441 19.672C38.571 19.573 38.727 19.519 38.891 19.519H40.432C40.846 19.519 41.182 19.855 41.182 20.269C41.182 20.39 41.15 20.571 40.998 20.75L38.551 23.423L41.198 26.492L41.161 26.577C41.175 26.633 41.182 26.691 41.182 26.749C41.182 27.163 40.846 27.499 40.432 27.499H38.994V27.5ZM33.507 25.016L33.854 24.635H30.216V25.016H33.507ZM34.055 24.415L34.971 23.41L34.055 22.384V24.415ZM33.991 22.312L33.726 22.016L30.216 22.006V22.313H33.991V22.312Z" fill="black"/>
<path d="M40.615 26.586L40.616 26.583L37.882 23.414L40.616 20.428C40.653 20.384 40.682 20.331 40.682 20.269C40.682 20.131 40.57 20.019 40.432 20.019C40.425 20.019 38.894 20.019 38.891 20.019C38.819 20.019 38.756 20.052 38.711 20.101L38.704 20.104L36.788 22.183L34.86 20H28.5C28.224 20 28 20.224 28 20.5V26.482C28 26.758 28.224 26.982 28.5 26.982H34.413C34.554 26.982 34.689 26.922 34.784 26.818L36.727 24.671L38.618 26.829C38.713 26.938 38.85 27 38.994 27H40.434C40.572 27 40.684 26.888 40.684 26.75C40.683 26.686 40.655 26.63 40.615 26.586ZM33.728 25.516H29.717V24.135H33.555V22.812H29.717V21.504L33.951 21.516L35.644 23.413L33.728 25.516Z" fill="white"/>
<defs>
<linearGradient id="paint0_linear_3376_392922" x1="20.375" y1="11.061" x2="28.748" y2="40.946" gradientUnits="userSpaceOnUse">
<stop stop-color="#00B3EE"/>
<stop offset="1" stop-color="#0082D8"/>
</linearGradient>
</defs>
</svg>
