<svg width="48" height="48" viewBox="0 0 48 48" fill="none" xmlns="http://www.w3.org/2000/svg">
<path d="M45 35C45 37.2 43.2 39 41 39H7C4.8 39 3 37.2 3 35V13C3 10.8 4.8 9 7 9H41C43.2 9 45 10.8 45 13V35Z" fill="#E1E7EA"/>
<path d="M45 35C45 37.2 43.2 39 41 39H16C16 39 39.6 35.2 45 24V35ZM22 24C22 25.7 23.3 27 25 27C26.7 27 28 25.7 28 24C28 22.3 26.7 21 25 21C23.3 21 22 22.3 22 24Z" fill="#FF6D00"/>
<path d="M11.2 20.9999H12.3V26.9999H11.2V20.9999ZM17.2 23.9999C17.2 25.6999 18.5 26.9999 20.2 26.9999C20.7 26.9999 21.1 26.8999 21.6 26.6999V25.3999C21.2 25.7999 20.8 25.9999 20.2 25.9999C19.1 25.9999 18.3 25.1999 18.3 23.9999C18.3 22.8999 19.1 21.9999 20.2 21.9999C20.7 21.9999 21.1 22.1999 21.6 22.5999V21.2999C21.1 21.0999 20.7 20.8999 20.2 20.8999C18.5 20.9999 17.2 22.3999 17.2 23.9999ZM30.6 24.8999L29 20.9999H27.8L30.3 26.9999H30.9L33.4 20.9999H32.2L30.6 24.8999ZM33.9 26.9999H37.1V25.9999H35V24.3999H37V23.3999H35V21.9999H37.1V20.9999H33.9V26.9999ZM41.5 22.7999C41.5 21.6999 40.8 20.9999 39.5 20.9999H37.8V26.9999H38.9V24.5999H39L40.6 26.9999H42L40.2 24.4999C41 24.2999 41.5 23.6999 41.5 22.7999ZM39.2 23.7999H38.9V21.9999H39.2C39.9 21.9999 40.3 22.2999 40.3 22.8999C40.3 23.3999 40 23.7999 39.2 23.7999ZM7.7 20.9999H6V26.9999H7.6C10.1 26.9999 10.7 24.8999 10.7 23.9999C10.8 22.1999 9.5 20.9999 7.7 20.9999ZM7.4 25.9999H7.1V21.9999H7.5C9 21.9999 9.6 22.9999 9.6 23.9999C9.6 24.3999 9.5 25.9999 7.4 25.9999ZM15.3 23.2999C14.6 22.9999 14.4 22.8999 14.4 22.5999C14.4 22.1999 14.8 21.9999 15.2 21.9999C15.5 21.9999 15.8 22.0999 16.1 22.4999L16.7 21.6999C16.2 21.1999 15.7 20.9999 15 20.9999C14 20.9999 13.2 21.6999 13.2 22.6999C13.2 23.4999 13.6 23.8999 14.6 24.2999C15.2 24.4999 15.7 24.6999 15.7 25.1999C15.7 25.6999 15.3 25.9999 14.8 25.9999C14.3 25.9999 13.8 25.6999 13.6 25.1999L12.9 25.8999C13.4 26.6999 14 26.9999 14.9 26.9999C16.1 26.9999 16.9 26.1999 16.9 25.0999C16.9 24.1999 16.5 23.7999 15.3 23.2999Z" fill="black"/>
</svg>
