<svg width="21" height="21" viewBox="0 0 21 21" fill="none" xmlns="http://www.w3.org/2000/svg">
<path d="M18.6706 8.86775H17.9993V8.83317H10.4993V12.1665H15.2089C14.5218 14.1069 12.6756 15.4998 10.4993 15.4998C7.7381 15.4998 5.49935 13.2611 5.49935 10.4998C5.49935 7.73859 7.7381 5.49984 10.4993 5.49984C11.7739 5.49984 12.9335 5.98067 13.8164 6.76609L16.1735 4.409C14.6852 3.02192 12.6943 2.1665 10.4993 2.1665C5.89727 2.1665 2.16602 5.89775 2.16602 10.4998C2.16602 15.1019 5.89727 18.8332 10.4993 18.8332C15.1014 18.8332 18.8327 15.1019 18.8327 10.4998C18.8327 9.94109 18.7752 9.39567 18.6706 8.86775Z" fill="#FFC107"/>
<path d="M3.12695 6.62109L5.86487 8.629C6.6057 6.79484 8.39987 5.49984 10.4995 5.49984C11.774 5.49984 12.9336 5.98067 13.8165 6.76609L16.1736 4.409C14.6853 3.02192 12.6945 2.1665 10.4995 2.1665C7.29862 2.1665 4.52279 3.97359 3.12695 6.62109Z" fill="#FF3D00"/>
<path d="M10.5008 18.8331C12.6533 18.8331 14.6091 18.0094 16.0879 16.6698L13.5087 14.4873C12.672 15.121 11.632 15.4998 10.5008 15.4998C8.33328 15.4998 6.49286 14.1177 5.79953 12.189L3.08203 14.2827C4.4612 16.9815 7.26203 18.8331 10.5008 18.8331Z" fill="#4CAF50"/>
<path d="M18.6712 8.86808H18V8.8335H10.5V12.1668H15.2096C14.8796 13.0989 14.28 13.9027 13.5067 14.4881C13.5071 14.4877 13.5075 14.4877 13.5079 14.4872L16.0871 16.6697C15.9046 16.8356 18.8333 14.6668 18.8333 10.5002C18.8333 9.94141 18.7758 9.396 18.6712 8.86808Z" fill="#1976D2"/>
</svg>
