<svg width="48" height="48" viewBox="0 0 48 48" fill="none" xmlns="http://www.w3.org/2000/svg">
<path d="M45 35C45 37.209 43.209 39 41 39H7C4.791 39 3 37.209 3 35V13C3 10.791 4.791 9 7 9H41C43.209 9 45 10.791 45 13V35Z" fill="#1565C0"/>
<path d="M15.187 19L12.561 26.832C12.561 26.832 11.894 23.519 11.828 23.103C10.333 19.692 8.12695 19.882 8.12695 19.882L10.727 30V29.998H13.888L18.259 19H15.187ZM17.69 30H20.561L22.297 19H19.39L17.69 30ZM38.009 19H34.988L30.278 30H33.13L33.718 28.429H37.314L37.62 30H40.233L38.009 19ZM34.514 26.328L36.077 22.171L36.895 26.328H34.514ZM26.37 22.206C26.37 21.6 26.868 21.149 28.296 21.149C29.224 21.149 30.287 21.823 30.287 21.823L30.753 19.514C30.753 19.514 29.395 18.999 28.062 18.999C25.043 18.999 23.486 20.443 23.486 22.271C23.486 25.577 27.465 25.124 27.465 26.822C27.465 27.113 27.234 27.786 25.577 27.786C23.915 27.786 22.818 27.177 22.818 27.177L22.323 29.393C22.323 29.393 23.386 29.999 25.44 29.999C27.499 29.999 30.355 28.459 30.355 26.247C30.355 23.586 26.37 23.394 26.37 22.206Z" fill="white"/>
<path d="M12.2114 24.945L11.2454 20.197C11.2454 20.197 10.8084 19.168 9.67242 19.168C8.53642 19.168 5.23242 19.168 5.23242 19.168C5.23242 19.168 10.8934 20.84 12.2114 24.945Z" fill="#FFC107"/>
</svg>
