<svg width="32" height="32" viewBox="0 0 32 32" xmlns="http://www.w3.org/2000/svg">
<path d="M27.7694 14.3579C24.8775 9.29812 21.8881 4.53112 18.4542 11.5239C18.317 11.7865 18.1906 12.1215 18.0613 12.4642C17.7481 13.2946 17.4179 14.1699 16.875 14.1699C16.3327 14.1699 16.0027 13.2921 15.6898 12.4601C15.5602 12.1153 15.4335 11.7784 15.2959 11.515C11.8619 4.52225 8.8725 9.28925 5.98063 14.349L5.77683 14.7058C5.63339 14.9568 5.49716 15.1951 5.375 15.4112C5.43844 15.3711 5.50122 15.3325 5.56336 15.2954L5.39669 15.3978L0.875 23.1904C2.69575 24.2924 5.0535 24.2508 6.95013 23.3594C7.85225 22.9943 8.58575 22.3616 9.25825 21.526L9.26894 21.5126L9.3025 21.4695L9.326 21.4384L9.36288 21.3884L9.3885 21.3527L9.41506 21.3152L9.45656 21.2554L9.515 21.1692L9.56119 21.0998L9.60931 21.026L9.65944 20.9481L9.7115 20.8661L9.76563 20.7799L9.86025 20.6269L9.91963 20.5296L10.0019 20.3933L10.066 20.2863L10.1545 20.137L10.2232 20.0202L10.3666 19.774L10.4666 19.6006L10.6232 19.3267L10.7598 19.0856L10.9019 18.8329L11.0798 18.5145L11.2656 18.1793L11.448 17.8483C11.6552 18.2422 11.8579 18.6508 12.0617 19.0616C13.2548 21.4669 14.485 23.9468 16.875 23.9911C19.2649 23.9468 20.495 21.469 21.6881 19.0657C23.2061 16.008 24.6642 13.071 28.375 15.42C28.2517 15.2017 28.1138 14.9606 27.9687 14.7068L27.7694 14.3579Z" />
<path d="M31.125 21C31.125 22.6568 29.7818 24 28.125 24C26.4682 24 25.125 22.6568 25.125 21C25.125 19.3432 26.4682 18 28.125 18C29.7818 18 31.125 19.3432 31.125 21Z" />
</svg>
